<svg xmlns="http://www.w3.org/2000/svg" xmlns:xlink="http://www.w3.org/1999/xlink" width="500" zoomAndPan="magnify" viewBox="0 0 375 374.999991" height="500" preserveAspectRatio="xMidYMid meet" version="1.0"><defs><g/><clipPath id="3a1d375661"><path d="M 93.078125 97.578125 L 282.078125 97.578125 L 282.078125 286.578125 L 93.078125 286.578125 Z M 93.078125 97.578125 " clip-rule="nonzero"/></clipPath><clipPath id="c459e2c4e1"><path d="M 105 226.332031 L 269 226.332031 L 269 235.332031 L 105 235.332031 Z M 105 226.332031 " clip-rule="nonzero"/></clipPath><clipPath id="7de0709b46"><path d="M 100 213.121094 L 275 213.121094 L 275 222.871094 L 100 222.871094 Z M 100 213.121094 " clip-rule="nonzero"/></clipPath><clipPath id="5ba077e3e1"><path d="M 120.207031 147 L 249.339844 147 L 249.339844 209.1875 L 120.207031 209.1875 Z M 120.207031 147 " clip-rule="nonzero"/></clipPath><clipPath id="2ccc5fc35e"><path d="M 113.703125 154.570312 L 261.453125 154.570312 L 261.453125 209.1875 L 113.703125 209.1875 Z M 113.703125 154.570312 " clip-rule="nonzero"/></clipPath><clipPath id="fae4629f98"><path d="M 134 105.703125 L 238 105.703125 L 238 207 L 134 207 Z M 134 105.703125 " clip-rule="nonzero"/></clipPath></defs><rect x="-37.5" width="450" fill="#ffffff" y="-37.499999" height="449.999989" fill-opacity="1"/><rect x="-37.5" width="450" fill="#ffffff" y="-37.499999" height="449.999989" fill-opacity="1"/><g clip-path="url(#3a1d375661)"><path fill="#000000" d="M 187.578125 286.578125 C 135.371094 286.578125 93.078125 243.996094 93.078125 192.078125 C 93.078125 140.164062 135.371094 97.578125 187.578125 97.578125 C 239.789062 97.578125 282.078125 139.871094 282.078125 192.078125 C 282.078125 244.289062 239.496094 286.578125 187.578125 286.578125 Z M 187.578125 103.414062 C 138.578125 103.414062 98.914062 143.078125 98.914062 192.078125 C 98.914062 241.078125 138.578125 280.746094 187.578125 280.746094 C 236.578125 280.746094 276.246094 241.078125 276.246094 192.078125 C 276.246094 143.078125 236.289062 103.414062 187.578125 103.414062 Z M 187.578125 103.414062 " fill-opacity="1" fill-rule="nonzero"/></g><g clip-path="url(#c459e2c4e1)"><path fill="#000000" d="M 260.566406 229.445312 C 258.214844 227.988281 255.546875 226.335938 250.457031 226.335938 C 245.367188 226.335938 242.699219 227.988281 240.347656 229.445312 C 238.085938 230.851562 236.128906 232.0625 231.984375 232.0625 C 227.835938 232.0625 225.882812 230.851562 223.617188 229.445312 C 221.265625 227.988281 218.601562 226.335938 213.507812 226.335938 C 208.417969 226.335938 205.753906 227.988281 203.402344 229.445312 C 201.136719 230.851562 199.183594 232.0625 195.035156 232.0625 C 190.890625 232.0625 188.9375 230.851562 186.671875 229.445312 C 184.320312 227.988281 181.65625 226.335938 176.5625 226.335938 C 171.472656 226.335938 168.808594 227.988281 166.457031 229.445312 C 164.191406 230.851562 162.238281 232.0625 158.09375 232.0625 C 153.945312 232.0625 151.992188 230.851562 149.726562 229.445312 C 147.375 227.988281 144.707031 226.335938 139.617188 226.335938 C 134.527344 226.335938 131.863281 227.988281 129.511719 229.445312 C 127.246094 230.851562 125.292969 232.0625 121.148438 232.0625 C 117 232.0625 115.046875 230.851562 112.78125 229.445312 C 110.859375 228.253906 108.722656 226.933594 105.230469 226.488281 L 105.230469 229.792969 C 107.738281 230.179688 109.296875 231.144531 111.039062 232.222656 C 113.390625 233.683594 116.054688 235.335938 121.148438 235.335938 C 126.238281 235.335938 128.902344 233.683594 131.253906 232.222656 C 133.519531 230.820312 135.472656 229.609375 139.617188 229.609375 C 143.765625 229.609375 145.71875 230.820312 147.984375 232.222656 C 150.335938 233.683594 153 235.335938 158.09375 235.335938 C 163.183594 235.335938 165.847656 233.683594 168.199219 232.222656 C 170.464844 230.820312 172.417969 229.609375 176.5625 229.609375 C 180.710938 229.609375 182.664062 230.820312 184.929688 232.222656 C 187.28125 233.683594 189.945312 235.335938 195.035156 235.335938 C 200.128906 235.335938 202.792969 233.683594 205.144531 232.222656 C 207.410156 230.820312 209.363281 229.609375 213.507812 229.609375 C 217.65625 229.609375 219.609375 230.820312 221.875 232.222656 C 224.226562 233.683594 226.890625 235.335938 231.984375 235.335938 C 237.074219 235.335938 239.738281 233.683594 242.09375 232.222656 C 244.355469 230.820312 246.3125 229.609375 250.457031 229.609375 C 254.605469 229.609375 256.558594 230.820312 258.824219 232.222656 C 261.175781 233.683594 263.84375 235.335938 268.933594 235.335938 L 268.933594 232.0625 C 264.785156 232.0625 262.832031 230.851562 260.566406 229.445312 " fill-opacity="1" fill-rule="nonzero"/></g><g clip-path="url(#7de0709b46)"><path fill="#000000" d="M 265.492188 216.496094 C 262.992188 214.914062 260.160156 213.125 254.753906 213.125 C 249.34375 213.125 246.511719 214.914062 244.011719 216.496094 C 241.605469 218.015625 239.53125 219.328125 235.125 219.328125 C 230.71875 219.328125 228.644531 218.015625 226.238281 216.496094 C 223.738281 214.914062 220.90625 213.125 215.5 213.125 C 210.09375 213.125 207.261719 214.914062 204.761719 216.496094 C 202.355469 218.015625 200.28125 219.328125 195.875 219.328125 C 191.46875 219.328125 189.394531 218.015625 186.988281 216.496094 C 184.488281 214.914062 181.65625 213.125 176.25 213.125 C 170.84375 213.125 168.011719 214.914062 165.511719 216.496094 C 163.105469 218.015625 161.03125 219.328125 156.625 219.328125 C 152.222656 219.328125 150.144531 218.015625 147.738281 216.496094 C 145.242188 214.914062 142.40625 213.125 137 213.125 C 131.59375 213.125 128.761719 214.914062 126.261719 216.496094 C 123.859375 218.015625 121.78125 219.328125 117.375 219.328125 C 112.972656 219.328125 110.894531 218.015625 108.492188 216.496094 C 106.445312 215.203125 104.179688 213.773438 100.464844 213.292969 L 100.464844 216.871094 C 103.132812 217.292969 104.789062 218.335938 106.636719 219.503906 C 109.136719 221.082031 111.96875 222.875 117.375 222.875 C 122.785156 222.875 125.617188 221.082031 128.113281 219.503906 C 130.519531 217.984375 132.59375 216.667969 137 216.667969 C 141.40625 216.667969 143.480469 217.984375 145.886719 219.503906 C 148.386719 221.082031 151.21875 222.875 156.625 222.875 C 162.035156 222.875 164.867188 221.082031 167.363281 219.503906 C 169.769531 217.984375 171.84375 216.667969 176.25 216.667969 C 180.65625 216.667969 182.730469 217.984375 185.136719 219.503906 C 187.632812 221.082031 190.464844 222.875 195.875 222.875 C 201.28125 222.875 204.113281 221.082031 206.613281 219.503906 C 209.019531 217.984375 211.09375 216.667969 215.5 216.667969 C 219.902344 216.667969 221.980469 217.984375 224.386719 219.503906 C 226.882812 221.082031 229.714844 222.875 235.125 222.875 C 240.53125 222.875 243.367188 221.082031 245.863281 219.503906 C 248.269531 217.984375 250.347656 216.667969 254.753906 216.667969 C 259.15625 216.667969 261.234375 217.984375 263.636719 219.503906 C 266.136719 221.082031 268.972656 222.875 274.378906 222.875 L 274.378906 219.328125 C 269.972656 219.328125 267.898438 218.015625 265.492188 216.496094 " fill-opacity="1" fill-rule="nonzero"/></g><path stroke-linecap="butt" transform="matrix(3.748553, 0, 0, 3.75, 95.84575, 208.429323)" fill="none" stroke-linejoin="miter" d="M 0.000508475 0.0000971698 L 48.621347 0.0000971698 " stroke="#000000" stroke-width="1" stroke-opacity="1" stroke-miterlimit="4"/><g clip-path="url(#5ba077e3e1)"><path fill="#000000" d="M 246.59375 206.59375 L 237.761719 206.59375 C 237.199219 201.101562 235.523438 188.015625 233.429688 176.464844 L 233.429688 149.773438 L 246.59375 149.773438 Z M 247.898438 147.179688 L 232.125 147.179688 C 231.410156 147.179688 230.828125 147.761719 230.828125 148.476562 L 230.828125 176.582031 C 230.828125 176.660156 230.832031 176.738281 230.847656 176.8125 C 233.101562 189.246094 234.875 203.484375 235.28125 208.003906 C 235.34375 208.675781 235.90625 209.1875 236.578125 209.1875 L 247.898438 209.1875 C 248.617188 209.1875 249.199219 208.609375 249.199219 207.890625 L 249.199219 148.476562 C 249.199219 147.761719 248.617188 147.179688 247.898438 147.179688 Z M 136.203125 168.382812 L 130.511719 168.382812 C 129.792969 168.382812 129.210938 168.964844 129.210938 169.679688 L 129.210938 206.59375 L 123.035156 206.59375 L 123.035156 165.152344 L 136.203125 165.152344 Z M 137.503906 162.554688 L 121.734375 162.554688 C 121.011719 162.554688 120.429688 163.136719 120.429688 163.851562 L 120.429688 207.890625 C 120.429688 208.609375 121.011719 209.1875 121.734375 209.1875 L 130.511719 209.1875 C 131.230469 209.1875 131.816406 208.609375 131.816406 207.890625 L 131.816406 170.980469 L 137.503906 170.980469 C 138.222656 170.980469 138.804688 170.394531 138.804688 169.679688 L 138.804688 163.851562 C 138.804688 163.136719 138.222656 162.554688 137.503906 162.554688 " fill-opacity="1" fill-rule="nonzero"/></g><g clip-path="url(#2ccc5fc35e)"><path fill="#000000" d="M 225.707031 206.59375 C 225.515625 203.039062 224.867188 192.824219 223.054688 180.527344 L 217.660156 180.527344 L 217.660156 206.59375 Z M 209.773438 206.59375 L 215.054688 206.59375 L 215.054688 179.230469 C 215.054688 178.515625 215.636719 177.933594 216.359375 177.933594 L 222.660156 177.933594 C 222.34375 175.914062 222.003906 173.9375 221.652344 171.992188 C 221.566406 172.007812 221.484375 172.015625 221.390625 172.015625 L 216.324219 172.015625 C 215.605469 172.015625 215.023438 171.433594 215.023438 170.71875 C 215.023438 170.003906 215.605469 169.421875 216.324219 169.421875 L 221.175781 169.421875 C 220.621094 166.554688 220.03125 163.777344 219.40625 161.101562 L 209.773438 161.101562 Z M 158.152344 206.59375 L 167.90625 206.59375 L 167.90625 176.15625 L 154.742188 176.15625 L 154.742188 188.457031 L 156.851562 188.457031 C 157.570312 188.457031 158.152344 189.039062 158.152344 189.753906 L 158.152344 190.078125 L 163.855469 190.078125 C 164.574219 190.078125 165.15625 190.660156 165.15625 191.375 C 165.15625 192.089844 164.574219 192.671875 163.855469 192.671875 L 158.152344 192.671875 L 158.152344 199.894531 C 158.34375 199.789062 158.558594 199.722656 158.789062 199.722656 L 163.855469 199.722656 C 164.574219 199.722656 165.15625 200.300781 165.15625 201.019531 C 165.15625 201.734375 164.574219 202.316406 163.855469 202.316406 L 158.789062 202.316406 C 158.558594 202.316406 158.34375 202.25 158.152344 202.144531 Z M 146.496094 206.59375 L 155.550781 206.59375 L 155.550781 191.050781 L 147.792969 191.050781 C 147.605469 192.765625 147.441406 194.390625 147.296875 195.902344 L 150.96875 195.902344 C 151.691406 195.902344 152.273438 196.484375 152.273438 197.199219 C 152.273438 197.914062 151.691406 198.496094 150.96875 198.496094 L 147.066406 198.496094 C 146.746094 202.207031 146.578125 205.039062 146.496094 206.59375 Z M 131.816406 206.59375 L 134.4375 206.59375 C 134.976562 201.339844 136.535156 189.148438 138.492188 178.03125 L 134.972656 178.03125 C 134.25 178.03125 133.667969 177.453125 133.667969 176.738281 C 133.667969 176.019531 134.25 175.4375 134.972656 175.4375 L 138.960938 175.4375 C 139.242188 173.914062 139.53125 172.417969 139.824219 170.980469 L 131.816406 170.980469 Z M 170.507812 198.496094 L 170.507812 206.59375 L 207.167969 206.59375 L 207.167969 198.496094 Z M 184.269531 191.242188 L 193.40625 191.242188 C 192.839844 189.261719 191.011719 187.804688 188.839844 187.804688 C 186.667969 187.804688 184.839844 189.261719 184.269531 191.242188 Z M 193.59375 195.902344 L 193.59375 193.832031 L 184.085938 193.832031 L 184.085938 195.902344 Z M 261.453125 207.890625 C 261.453125 208.609375 260.871094 209.1875 260.152344 209.1875 L 115.007812 209.1875 C 114.289062 209.1875 113.703125 208.609375 113.703125 207.890625 C 113.703125 207.175781 114.289062 206.59375 115.007812 206.59375 L 129.210938 206.59375 L 129.210938 197.605469 L 127.980469 197.605469 C 127.261719 197.605469 126.675781 197.023438 126.675781 196.308594 C 126.675781 195.59375 127.261719 195.007812 127.980469 195.007812 L 129.210938 195.007812 L 129.210938 187.167969 L 127.980469 187.167969 C 127.261719 187.167969 126.675781 186.585938 126.675781 185.871094 C 126.675781 185.15625 127.261719 184.574219 127.980469 184.574219 L 129.210938 184.574219 L 129.210938 176.734375 L 127.980469 176.734375 C 127.261719 176.734375 126.675781 176.152344 126.675781 175.4375 C 126.675781 174.722656 127.261719 174.140625 127.980469 174.140625 L 129.210938 174.140625 L 129.210938 169.679688 C 129.210938 168.964844 129.792969 168.382812 130.511719 168.382812 L 141.425781 168.382812 C 141.820312 168.382812 142.191406 168.5625 142.441406 168.867188 C 142.6875 169.167969 142.785156 169.570312 142.703125 169.953125 C 140.050781 182.34375 137.765625 199.789062 137.058594 206.59375 L 143.886719 206.59375 C 144.019531 204.03125 144.40625 197.722656 145.335938 189.609375 C 145.410156 188.953125 145.96875 188.457031 146.628906 188.457031 L 152.132812 188.457031 L 152.132812 174.859375 C 152.132812 174.144531 152.714844 173.566406 153.4375 173.566406 L 169.207031 173.566406 C 169.925781 173.566406 170.507812 174.144531 170.507812 174.859375 L 170.507812 195.902344 L 181.480469 195.902344 L 181.480469 192.539062 C 181.480469 188.941406 184.097656 185.941406 187.539062 185.328125 L 187.539062 181.570312 C 187.539062 180.855469 188.121094 180.277344 188.839844 180.277344 C 189.558594 180.277344 190.140625 180.855469 190.140625 181.570312 L 190.140625 185.328125 C 193.578125 185.941406 196.195312 188.941406 196.195312 192.539062 L 196.195312 195.902344 L 207.167969 195.902344 L 207.167969 159.808594 C 207.167969 159.089844 207.753906 158.511719 208.472656 158.511719 L 220.4375 158.511719 C 221.039062 158.511719 221.5625 158.921875 221.703125 159.503906 C 223.152344 165.53125 224.417969 172.101562 225.464844 179.039062 C 227.441406 192.082031 228.125 203.007812 228.3125 206.59375 L 260.152344 206.59375 C 260.871094 206.59375 261.453125 207.175781 261.453125 207.890625 Z M 163.855469 180.523438 L 158.789062 180.523438 C 158.070312 180.523438 157.484375 181.105469 157.484375 181.820312 C 157.484375 182.539062 158.070312 183.117188 158.789062 183.117188 L 163.855469 183.117188 C 164.574219 183.117188 165.15625 182.539062 165.15625 181.820312 C 165.15625 181.105469 164.574219 180.523438 163.855469 180.523438 Z M 237.304688 198.273438 L 242.367188 198.273438 C 243.085938 198.273438 243.671875 197.691406 243.671875 196.976562 C 243.671875 196.261719 243.085938 195.675781 242.367188 195.675781 L 237.304688 195.675781 C 236.582031 195.675781 236 196.261719 236 196.976562 C 236 197.691406 236.582031 198.273438 237.304688 198.273438 Z M 237.304688 184.625 L 242.367188 184.625 C 243.085938 184.625 243.671875 184.042969 243.671875 183.328125 C 243.671875 182.613281 243.085938 182.03125 242.367188 182.03125 L 237.304688 182.03125 C 236.582031 182.03125 236 182.613281 236 183.328125 C 236 184.042969 236.582031 184.625 237.304688 184.625 Z M 237.304688 170.980469 L 242.367188 170.980469 C 243.085938 170.980469 243.671875 170.394531 243.671875 169.679688 C 243.671875 168.964844 243.085938 168.382812 242.367188 168.382812 L 237.304688 168.382812 C 236.582031 168.382812 236 168.964844 236 169.679688 C 236 170.394531 236.582031 170.980469 237.304688 170.980469 Z M 237.304688 157.332031 L 242.367188 157.332031 C 243.085938 157.332031 243.671875 156.75 243.671875 156.035156 C 243.671875 155.316406 243.085938 154.738281 242.367188 154.738281 L 237.304688 154.738281 C 236.582031 154.738281 236 155.316406 236 156.035156 C 236 156.75 236.582031 157.332031 237.304688 157.332031 Z M 174.015625 205.195312 C 174.734375 205.195312 175.320312 204.617188 175.320312 203.898438 L 175.320312 201.621094 C 175.320312 200.902344 174.734375 200.324219 174.015625 200.324219 C 173.296875 200.324219 172.710938 200.902344 172.710938 201.621094 L 172.710938 203.898438 C 172.710938 204.617188 173.296875 205.195312 174.015625 205.195312 Z M 181.210938 205.195312 C 181.933594 205.195312 182.515625 204.617188 182.515625 203.898438 L 182.515625 201.621094 C 182.515625 200.902344 181.933594 200.324219 181.210938 200.324219 C 180.492188 200.324219 179.910156 200.902344 179.910156 201.621094 L 179.910156 203.898438 C 179.910156 204.617188 180.492188 205.195312 181.210938 205.195312 Z M 188.410156 205.195312 C 189.128906 205.195312 189.714844 204.617188 189.714844 203.898438 L 189.714844 201.621094 C 189.714844 200.902344 189.128906 200.324219 188.410156 200.324219 C 187.691406 200.324219 187.105469 200.902344 187.105469 201.621094 L 187.105469 203.898438 C 187.105469 204.617188 187.691406 205.195312 188.410156 205.195312 Z M 195.605469 205.195312 C 196.328125 205.195312 196.910156 204.617188 196.910156 203.898438 L 196.910156 201.621094 C 196.910156 200.902344 196.328125 200.324219 195.605469 200.324219 C 194.886719 200.324219 194.304688 200.902344 194.304688 201.621094 L 194.304688 203.898438 C 194.304688 204.617188 194.886719 205.195312 195.605469 205.195312 Z M 201.5 203.898438 L 201.5 201.621094 C 201.5 200.902344 202.085938 200.324219 202.804688 200.324219 C 203.523438 200.324219 204.105469 200.902344 204.105469 201.621094 L 204.105469 203.898438 C 204.105469 204.617188 203.523438 205.195312 202.804688 205.195312 C 202.085938 205.195312 201.5 204.617188 201.5 203.898438 " fill-opacity="1" fill-rule="nonzero"/></g><g clip-path="url(#fae4629f98)"><path fill="#000000" d="M 221.703125 159.503906 C 218.425781 145.871094 214.222656 134.996094 209.207031 127.179688 C 202.804688 117.203125 195.03125 112.148438 186.101562 112.148438 C 158.335938 112.148438 148.640625 160.679688 145.335938 189.609375 C 144.40625 197.714844 144.019531 204.027344 143.886719 206.59375 L 146.496094 206.59375 C 146.632812 203.992188 147.019531 197.816406 147.921875 189.898438 C 149.445312 176.582031 152.542969 157.417969 158.640625 141.78125 C 165.644531 123.839844 174.882812 114.742188 186.101562 114.742188 C 194.082031 114.742188 201.121094 119.394531 207.015625 128.578125 C 211.871094 136.148438 215.960938 146.753906 219.167969 160.109375 C 220.597656 166.0625 221.851562 172.5625 222.890625 179.425781 C 224.824219 192.210938 225.511719 202.933594 225.707031 206.59375 L 228.3125 206.59375 C 228.125 203.003906 227.441406 192.078125 225.464844 179.035156 C 224.417969 172.101562 223.152344 165.53125 221.703125 159.503906 Z M 237.761719 206.59375 L 235.144531 206.59375 C 234.5625 200.992188 232.902344 188.152344 230.847656 176.8125 C 229.757812 170.828125 228.714844 166.105469 227.734375 162.777344 C 222.15625 143.792969 215.414062 129.503906 207.703125 120.304688 C 201.039062 112.355469 193.769531 108.328125 186.101562 108.328125 C 178.429688 108.328125 171.160156 112.355469 164.5 120.304688 C 156.785156 129.503906 150.046875 143.792969 144.464844 162.777344 C 143.90625 164.695312 143.308594 167.105469 142.703125 169.953125 C 140.050781 182.34375 137.765625 199.789062 137.058594 206.589844 L 134.4375 206.589844 C 135.125 199.914062 137.449219 182.050781 140.15625 169.410156 C 140.773438 166.503906 141.386719 164.027344 141.964844 162.050781 C 155.644531 115.503906 173.515625 105.730469 186.101562 105.730469 C 198.683594 105.734375 216.558594 115.503906 230.234375 162.050781 C 231.238281 165.464844 232.308594 170.273438 233.410156 176.351562 C 235.511719 187.933594 237.199219 201.085938 237.761719 206.589844 " fill-opacity="1" fill-rule="nonzero"/></g><g fill="#000000" fill-opacity="1"><g transform="translate(145.459082, 264.904231)"><g><path d="M 0 -19.84375 L 0 -16.058594 L 5.097656 -16.058594 L 5.097656 0.0273438 L 8.882812 0.0273438 L 8.882812 -16.058594 L 13.984375 -16.058594 L 13.984375 -19.84375 L 8.882812 -19.84375 L 8.882812 -19.871094 L 5.097656 -19.871094 L 5.097656 -19.84375 Z M 0 -19.84375 "/></g></g></g><g fill="#000000" fill-opacity="1"><g transform="translate(160.7528, 264.904231)"><g><path d="M 7.78125 -19.925781 L 7.78125 -12.40625 L 3.8125 -12.40625 L 3.8125 -19.925781 L 0 -19.925781 L 0 -0.0273438 L 3.8125 -0.0273438 L 3.8125 -8.59375 L 7.78125 -8.59375 L 7.78125 -0.0273438 L 11.589844 -0.0273438 L 11.589844 -19.925781 Z M 7.78125 -19.925781 "/></g></g></g><g fill="#000000" fill-opacity="1"><g transform="translate(173.655234, 264.904231)"><g><path d="M 10.539062 -19.898438 L 0 -19.925781 L 0 -0.0273438 L 10.539062 -0.0273438 L 10.539062 -3.835938 L 3.8125 -3.835938 L 3.8125 -8.59375 L 8.148438 -8.59375 L 8.148438 -12.40625 L 3.8125 -12.40625 L 3.8125 -16.113281 L 10.539062 -16.113281 Z M 10.539062 -19.898438 "/></g></g></g><g fill="#000000" fill-opacity="1"><g transform="translate(185.506551, 264.904231)"><g/></g></g><g fill="#000000" fill-opacity="1"><g transform="translate(190.762126, 264.904231)"><g><path d="M 0 -0.0273438 L 10.539062 -0.0273438 L 10.539062 -3.835938 L 3.8125 -3.835938 L 3.8125 -19.925781 L 0 -19.925781 Z M 0 -0.0273438 "/></g></g></g><g fill="#000000" fill-opacity="1"><g transform="translate(202.613443, 264.904231)"><g><path d="M 7.175781 -19.84375 L 4.414062 -19.84375 C 1.996094 -19.84375 0 -17.875 0 -15.429688 L 0 -4.390625 C 0 -1.945312 1.996094 0.0273438 4.414062 0.0273438 L 7.175781 0.0273438 C 9.621094 0.0273438 11.589844 -1.945312 11.589844 -4.390625 L 11.589844 -15.429688 C 11.589844 -17.875 9.621094 -19.84375 7.175781 -19.84375 Z M 7.804688 -4.390625 C 7.804688 -4.046875 7.515625 -3.785156 7.175781 -3.785156 L 4.414062 -3.785156 C 4.074219 -3.785156 3.8125 -4.046875 3.8125 -4.390625 L 3.8125 -15.429688 C 3.8125 -15.769531 4.074219 -16.058594 4.414062 -16.058594 L 7.175781 -16.058594 C 7.515625 -16.058594 7.804688 -15.769531 7.804688 -15.429688 Z M 7.804688 -4.390625 "/></g></g></g><g fill="#000000" fill-opacity="1"><g transform="translate(215.515877, 264.904231)"><g><path d="M 0 -19.871094 L 0 -4.390625 C 0 -1.945312 1.996094 0.0273438 4.414062 0.0273438 L 7.175781 0.0273438 C 9.621094 0.0273438 11.589844 -1.945312 11.589844 -4.390625 L 11.589844 -19.871094 L 7.804688 -19.871094 L 7.804688 -4.390625 C 7.804688 -4.046875 7.515625 -3.785156 7.175781 -3.785156 L 4.414062 -3.785156 C 4.074219 -3.785156 3.8125 -4.046875 3.8125 -4.390625 L 3.8125 -19.871094 Z M 0 -19.871094 "/></g></g></g></svg>