<svg xmlns="http://www.w3.org/2000/svg" xmlns:xlink="http://www.w3.org/1999/xlink" width="500" zoomAndPan="magnify" viewBox="0 0 375 374.999991" height="500" preserveAspectRatio="xMidYMid meet" version="1.0"><defs><g/><clipPath id="eb67ebdda9"><path d="M 112.902344 87.203125 L 279.402344 87.203125 L 279.402344 225.953125 L 112.902344 225.953125 Z M 112.902344 87.203125 " clip-rule="nonzero"/></clipPath><clipPath id="4c0f15e223"><path d="M 174.660156 67.613281 L 217.410156 67.613281 L 217.410156 217.613281 L 174.660156 217.613281 Z M 174.660156 67.613281 " clip-rule="nonzero"/></clipPath><clipPath id="6a76c16007"><path d="M 70.953125 125.539062 L 187.203125 125.539062 L 187.203125 217.789062 L 70.953125 217.789062 Z M 70.953125 125.539062 " clip-rule="nonzero"/></clipPath><clipPath id="8b482cc27a"><path d="M 205.398438 125.539062 L 321.355469 125.539062 L 321.355469 217.789062 L 205.398438 217.789062 Z M 205.398438 125.539062 " clip-rule="nonzero"/></clipPath></defs><rect x="-37.5" width="450" fill="#ffffff" y="-37.499999" height="449.999989" fill-opacity="1"/><rect x="-37.5" width="450" fill="#ffffff" y="-37.499999" height="449.999989" fill-opacity="1"/><g clip-path="url(#eb67ebdda9)"><path fill="#000000" d="M 276.625 220.375 L 268.261719 220.375 C 267.445312 147.925781 234.769531 87.234375 196.152344 87.234375 C 157.535156 87.234375 124.859375 147.925781 124.039062 220.375 L 115.675781 220.375 C 114.140625 220.375 112.902344 221.617188 112.902344 223.148438 C 112.902344 224.683594 114.140625 225.921875 115.675781 225.921875 L 276.625 225.921875 C 278.160156 225.921875 279.402344 224.683594 279.402344 223.148438 C 279.402344 221.617188 278.160156 220.375 276.625 220.375 Z M 148.988281 220.375 C 149.535156 162.621094 167.085938 103.878906 196.152344 103.878906 C 225.214844 103.878906 242.769531 162.621094 243.3125 220.375 Z M 248.847656 220.375 C 248.296875 160.691406 229.875 98.328125 196.152344 98.328125 C 162.425781 98.328125 144.007812 160.691406 143.453125 220.375 L 129.566406 220.375 C 130.351562 150.929688 160.523438 92.78125 196.152344 92.78125 C 231.777344 92.78125 261.949219 150.929688 262.734375 220.375 Z M 248.847656 220.375 " fill-opacity="1" fill-rule="nonzero"/></g><g clip-path="url(#4c0f15e223)"><path fill="#0f0e0c" d="M 216.320312 175.539062 L 215.539062 175.539062 C 214.953125 175.539062 214.476562 176.019531 214.476562 176.609375 L 214.476562 177.546875 L 209.097656 177.546875 C 200.597656 177.546875 199.511719 175.0625 199.511719 175.0625 L 199.511719 82.019531 L 196.035156 67.613281 L 192.558594 82.015625 L 192.558594 175.058594 C 192.558594 175.058594 191.476562 177.542969 182.972656 177.542969 L 177.59375 177.542969 L 177.59375 176.605469 C 177.59375 176.015625 177.117188 175.535156 176.53125 175.535156 L 175.75 175.535156 C 175.167969 175.535156 174.6875 176.015625 174.6875 176.605469 L 174.6875 181.839844 C 174.6875 182.425781 175.167969 182.90625 175.75 182.90625 L 176.53125 182.90625 C 177.117188 182.90625 177.59375 182.425781 177.59375 181.839844 L 177.59375 180.898438 L 182.972656 180.898438 C 191.476562 180.898438 192.558594 183.382812 192.558594 183.382812 L 192.558594 184.304688 L 192.574219 184.304688 L 192.902344 204.398438 C 192.277344 204.761719 191.859375 205.441406 191.859375 206.210938 L 191.859375 215.511719 C 191.859375 216.667969 192.800781 217.613281 193.949219 217.613281 L 198.121094 217.613281 C 199.273438 217.613281 200.214844 216.667969 200.214844 215.511719 L 200.214844 206.210938 C 200.214844 205.441406 199.792969 204.761719 199.171875 204.398438 L 199.511719 183.382812 C 199.511719 183.382812 200.597656 180.898438 209.101562 180.898438 L 214.476562 180.898438 L 214.476562 181.839844 C 214.476562 182.425781 214.957031 182.90625 215.542969 182.90625 L 216.320312 182.90625 C 216.90625 182.90625 217.382812 182.425781 217.382812 181.839844 L 217.382812 176.605469 C 217.382812 176.019531 216.902344 175.539062 216.316406 175.539062 Z M 216.320312 175.539062 " fill-opacity="1" fill-rule="nonzero"/></g><g clip-path="url(#6a76c16007)"><path fill="#000000" d="M 164.597656 180.101562 C 166.363281 180.210938 168.109375 181.316406 169.527344 182.6875 L 97.027344 180.585938 L 170.34375 183.542969 C 170.890625 184.160156 171.367188 184.800781 171.742188 185.402344 L 92.679688 185.316406 L 84.585938 175.199219 Z M 99.4375 191.289062 L 123.136719 191.257812 L 103.75 192.28125 L 114.238281 199.636719 L 152.214844 195.601562 L 110.882812 201.644531 L 121.433594 207.929688 L 153.640625 200.878906 L 116.777344 210.570312 L 129.558594 216 L 176.476562 198.96875 L 129.515625 217.796875 L 111.347656 210.082031 L 118.910156 208.371094 L 105.746094 200.53125 L 111.601562 199.875 Z M 172.695312 196.710938 L 121.605469 211.074219 L 128.996094 214.125 L 176.011719 198.371094 C 174.84375 197.992188 173.710938 197.429688 172.695312 196.710938 Z M 165.890625 190.28125 L 108.714844 193.179688 L 115.84375 198.367188 L 169.191406 192.574219 C 168.550781 191.203125 167.726562 190.1875 165.890625 190.28125 Z M 169.792969 193.714844 L 115.625 202.519531 L 121.945312 206.285156 L 171.660156 195.890625 C 171.199219 195.480469 170.773438 195.03125 170.390625 194.550781 C 170.167969 194.273438 169.972656 193.992188 169.792969 193.714844 Z M 174.203125 163.613281 L 70.953125 125.554688 L 81.351562 149.535156 L 71.507812 147.417969 L 83.851562 168.777344 L 72.15625 167.785156 L 90.367188 190.699219 L 164.964844 189.347656 C 167.953125 189.292969 169.554688 189.988281 170.289062 191.746094 C 171.425781 194.46875 173.886719 196.722656 177.214844 197.769531 C 172.5625 192.316406 185.132812 188.542969 187.199219 207.570312 L 187.203125 190.707031 C 182.238281 190.527344 177.40625 189.128906 172.679688 186.816406 L 91.539062 188.109375 L 77.828125 171.042969 L 154.085938 177.660156 L 86.886719 169.035156 L 76.441406 151.167969 L 154.417969 168.917969 L 84.34375 150.152344 L 75.582031 129.945312 L 165.300781 163.003906 C 166.96875 163.621094 169.6875 165.976562 169.070312 168.421875 C 168.738281 169.730469 168.511719 171.039062 168.464844 172.347656 L 164.429688 171.28125 C 167.03125 172.316406 168.328125 173.605469 168.640625 175.414062 C 168.882812 176.84375 169.300781 178.230469 169.886719 179.535156 L 165.402344 178.992188 C 168.371094 180.019531 170.53125 181.132812 171.777344 182.71875 C 173.984375 185.515625 177.121094 187.65625 181.214844 188.421875 C 173.539062 184.617188 169.71875 177.539062 171.449219 169.78125 C 172.152344 166.625 175.75 165.519531 176.496094 168.839844 C 177.292969 166.59375 176.707031 164.539062 174.203125 163.613281 Z M 162.855469 164.050781 C 165.515625 164.886719 166.46875 166.242188 166.703125 167.863281 L 95.796875 145.851562 L 166.765625 168.753906 C 166.765625 169.351562 166.703125 169.976562 166.613281 170.613281 L 86.386719 148.421875 L 80.34375 134.550781 Z M 82.816406 155.878906 L 88.828125 166.652344 L 167.515625 178.195312 C 167.429688 177.5 167.296875 176.851562 167.101562 176.25 L 95.496094 163.425781 L 166.746094 175.347656 C 165.988281 173.785156 164.652344 172.667969 162.300781 172.1875 L 82.816406 155.878906 " fill-opacity="1" fill-rule="evenodd"/></g><g clip-path="url(#8b482cc27a)"><path fill="#000000" d="M 228.003906 180.101562 C 226.238281 180.210938 224.492188 181.316406 223.074219 182.6875 L 295.570312 180.585938 L 222.257812 183.542969 C 221.710938 184.160156 221.234375 184.800781 220.855469 185.402344 L 299.921875 185.316406 L 308.011719 175.199219 Z M 293.164062 191.289062 L 269.464844 191.257812 L 288.851562 192.28125 L 278.363281 199.636719 L 240.382812 195.601562 L 281.71875 201.644531 L 271.167969 207.929688 L 238.957031 200.878906 L 275.824219 210.570312 L 263.039062 216 L 216.121094 198.96875 L 263.085938 217.796875 L 281.25 210.082031 L 273.691406 208.371094 L 286.855469 200.53125 L 281 199.875 Z M 219.90625 196.710938 L 270.992188 211.074219 L 263.605469 214.125 L 216.589844 198.371094 C 217.753906 197.992188 218.886719 197.429688 219.90625 196.710938 Z M 226.710938 190.28125 L 283.886719 193.179688 L 276.757812 198.367188 L 223.410156 192.574219 C 224.050781 191.203125 224.871094 190.1875 226.710938 190.28125 Z M 222.808594 193.714844 L 276.972656 202.519531 L 270.65625 206.285156 L 220.941406 195.890625 C 221.402344 195.480469 221.828125 195.03125 222.210938 194.550781 C 222.429688 194.273438 222.628906 193.992188 222.808594 193.714844 Z M 218.398438 163.613281 L 321.648438 125.554688 L 311.25 149.535156 L 321.09375 147.417969 L 308.746094 168.777344 L 320.445312 167.785156 L 302.234375 190.699219 L 227.636719 189.347656 C 224.648438 189.292969 223.042969 189.988281 222.3125 191.746094 C 221.175781 194.46875 218.710938 196.722656 215.386719 197.769531 C 220.039062 192.316406 207.464844 188.542969 205.402344 207.570312 L 205.398438 190.707031 C 210.363281 190.527344 215.191406 189.128906 219.921875 186.816406 L 301.058594 188.109375 L 314.773438 171.042969 L 238.515625 177.660156 L 305.714844 169.035156 L 316.160156 151.167969 L 238.179688 168.917969 L 308.257812 150.152344 L 317.019531 129.945312 L 227.300781 163.003906 C 225.632812 163.621094 222.910156 165.976562 223.527344 168.421875 C 223.859375 169.730469 224.089844 171.039062 224.136719 172.347656 L 228.171875 171.28125 C 225.570312 172.316406 224.269531 173.605469 223.960938 175.414062 C 223.71875 176.84375 223.296875 178.230469 222.714844 179.535156 L 227.195312 178.992188 C 224.230469 180.019531 222.070312 181.132812 220.824219 182.71875 C 218.617188 185.515625 215.476562 187.65625 211.386719 188.421875 C 219.058594 184.617188 222.882812 177.539062 221.152344 169.78125 C 220.449219 166.625 216.851562 165.519531 216.105469 168.839844 C 215.308594 166.59375 215.894531 164.539062 218.398438 163.613281 Z M 229.746094 164.050781 C 227.085938 164.886719 226.128906 166.242188 225.898438 167.863281 L 296.800781 145.851562 L 225.835938 168.753906 C 225.832031 169.351562 225.898438 169.976562 225.988281 170.613281 L 306.214844 148.421875 L 312.257812 134.550781 Z M 309.78125 155.878906 L 303.773438 166.652344 L 225.082031 178.195312 C 225.171875 177.5 225.304688 176.851562 225.496094 176.25 L 297.101562 163.425781 L 225.855469 175.347656 C 226.609375 173.785156 227.949219 172.667969 230.300781 172.1875 L 309.78125 155.878906 " fill-opacity="1" fill-rule="evenodd"/></g><g fill="#000000" fill-opacity="1"><g transform="translate(112.911598, 254.534055)"><g><path d="M 13.832031 -10.554688 C 13.832031 -13.484375 11.589844 -15.933594 8.726562 -16.246094 L 14.210938 -26.144531 L 8.484375 -26.144531 L 5 -19.832031 L 5 -26.144531 L 0 -26.144531 L 0 -0.0351562 L 5 -0.0351562 L 5 -11.277344 L 8.070312 -11.277344 C 8.484375 -11.277344 8.828125 -10.933594 8.828125 -10.519531 L 8.898438 -0.0351562 L 13.898438 -0.0351562 Z M 13.832031 -10.554688 "/></g></g></g><g fill="#000000" fill-opacity="1"><g transform="translate(128.844499, 254.534055)"><g><path d="M 6.449219 -5.207031 L 11.761719 -5.207031 L 12.761719 -0.0351562 L 17.832031 -0.0351562 L 12.828125 -26.144531 L 10.277344 -26.144531 L 10.207031 -26.109375 L 9.105469 -26.109375 L 9.070312 -26.144531 L 6.519531 -26.144531 L 6.519531 -26.109375 L 0 -0.0351562 L 5.171875 -0.0351562 Z M 9.449219 -17.277344 L 10.796875 -10.207031 L 7.691406 -10.207031 Z M 9.449219 -17.277344 "/></g></g></g><g fill="#000000" fill-opacity="1"><g transform="translate(148.398521, 254.534055)"><g><path d="M 22.28125 -26.074219 L 18.003906 -8.585938 L 15.140625 -23.554688 L 10.070312 -23.554688 L 10.933594 -19.003906 L 8.382812 -8.585938 L 5.070312 -26.074219 L 0 -26.074219 L 4.933594 0.0351562 L 11.382812 0.0351562 L 13.175781 -7.207031 L 14.554688 0.0351562 L 21.003906 0.0351562 L 27.417969 -26.074219 Z M 22.28125 -26.074219 "/></g></g></g><g fill="#000000" fill-opacity="1"><g transform="translate(177.539877, 254.534055)"><g/></g></g><g fill="#000000" fill-opacity="1"><g transform="translate(184.437244, 254.534055)"><g><path d="M 5 -26.144531 L 0 -26.144531 L 0 -0.0351562 L 5 -0.0351562 Z M 5 -26.144531 "/></g></g></g><g fill="#000000" fill-opacity="1"><g transform="translate(191.162166, 254.534055)"><g><path d="M 0 -19.003906 C 0 -14.175781 2.828125 -11.347656 7.792969 -11.210938 L 8.585938 -11.210938 C 9.175781 -11.210938 10.347656 -11.210938 10.347656 -9.449219 L 10.347656 -6.96875 C 10.347656 -6.035156 9.035156 -4.964844 7.171875 -4.964844 L 0.621094 -4.964844 L 0.621094 0.0351562 L 7.171875 0.0351562 C 11.65625 0.0351562 15.3125 -3.105469 15.3125 -6.96875 L 15.3125 -9.449219 C 15.3125 -12.691406 13.210938 -16.210938 8.585938 -16.210938 L 8.140625 -16.210938 C 5.863281 -16.210938 5 -16.726562 5 -19.003906 C 5 -19.796875 6 -21.109375 6.761719 -21.109375 L 9.519531 -21.109375 L 14.519531 -21.074219 L 14.519531 -26.074219 L 6.140625 -26.074219 C 2.65625 -25.695312 0 -22.109375 0 -19.003906 Z M 0 -19.003906 "/></g></g></g><g fill="#000000" fill-opacity="1"><g transform="translate(208.198645, 254.534055)"><g/></g></g><g fill="#000000" fill-opacity="1"><g transform="translate(215.096012, 254.534055)"><g><path d="M 0 -0.0351562 L 13.832031 -0.0351562 L 13.832031 -5.035156 L 5 -5.035156 L 5 -26.144531 L 0 -26.144531 Z M 0 -0.0351562 "/></g></g></g><g fill="#000000" fill-opacity="1"><g transform="translate(230.649557, 254.534055)"><g><path d="M 6.449219 -5.207031 L 11.761719 -5.207031 L 12.761719 -0.0351562 L 17.832031 -0.0351562 L 12.828125 -26.144531 L 10.277344 -26.144531 L 10.207031 -26.109375 L 9.105469 -26.109375 L 9.070312 -26.144531 L 6.519531 -26.144531 L 6.519531 -26.109375 L 0 -0.0351562 L 5.171875 -0.0351562 Z M 9.449219 -17.277344 L 10.796875 -10.207031 L 7.691406 -10.207031 Z M 9.449219 -17.277344 "/></g></g></g><g fill="#000000" fill-opacity="1"><g transform="translate(250.203579, 254.534055)"><g><path d="M 22.28125 -26.074219 L 18.003906 -8.585938 L 15.140625 -23.554688 L 10.070312 -23.554688 L 10.933594 -19.003906 L 8.382812 -8.585938 L 5.070312 -26.074219 L 0 -26.074219 L 4.933594 0.0351562 L 11.382812 0.0351562 L 13.175781 -7.207031 L 14.554688 0.0351562 L 21.003906 0.0351562 L 27.417969 -26.074219 Z M 22.28125 -26.074219 "/></g></g></g></svg>