<svg xmlns="http://www.w3.org/2000/svg" xmlns:xlink="http://www.w3.org/1999/xlink" width="500" zoomAndPan="magnify" viewBox="0 0 375 374.999991" height="500" preserveAspectRatio="xMidYMid meet" version="1.0"><defs><g/><clipPath id="75e14b46ae"><path d="M 112.5 93.789062 L 262.5 93.789062 L 262.5 171.789062 L 112.5 171.789062 Z M 112.5 93.789062 " clip-rule="nonzero"/></clipPath><clipPath id="e785154982"><path d="M 112.5 117.226562 L 262.5 117.226562 L 262.5 171.976562 L 112.5 171.976562 Z M 112.5 117.226562 " clip-rule="nonzero"/></clipPath><clipPath id="3c99757344"><path d="M 114 192 L 261 192 L 261 200.25 L 114 200.25 Z M 114 192 " clip-rule="nonzero"/></clipPath><clipPath id="781fc5e92c"><path d="M 114 179.4375 L 261 179.4375 L 261 187.6875 L 114 187.6875 Z M 114 179.4375 " clip-rule="nonzero"/></clipPath></defs><rect x="-37.5" width="450" fill="#ffffff" y="-37.499999" height="449.999989" fill-opacity="1"/><rect x="-37.5" width="450" fill="#ffffff" y="-37.499999" height="449.999989" fill-opacity="1"/><g clip-path="url(#75e14b46ae)"><path fill="#000000" d="M 116.152344 168.132812 C 116.152344 129.09375 148.105469 97.441406 187.507812 97.441406 C 226.910156 97.441406 258.859375 129.09375 258.859375 168.132812 Z M 112.507812 171.785156 L 262.507812 171.785156 L 262.507812 168.132812 C 262.507812 158.09375 260.519531 148.355469 256.605469 139.179688 C 252.824219 130.328125 247.414062 122.375 240.523438 115.546875 C 233.632812 108.726562 225.617188 103.367188 216.683594 99.625 C 207.441406 95.753906 197.625 93.789062 187.507812 93.789062 C 177.390625 93.789062 167.574219 95.753906 158.328125 99.625 C 149.398438 103.367188 141.378906 108.726562 134.488281 115.546875 C 127.597656 122.375 122.1875 130.328125 118.40625 139.179688 C 114.492188 148.355469 112.507812 158.09375 112.507812 168.132812 Z M 112.507812 171.785156 " fill-opacity="1" fill-rule="nonzero"/></g><g clip-path="url(#e785154982)"><path fill="#000000" d="M 112.5 171.933594 L 150.269531 136.75 L 155.667969 142.160156 L 165.378906 132.414062 L 170.375 135.789062 L 182.640625 117.25 L 213.9375 142.160156 L 232.277344 142.160156 L 262.5 168.859375 L 231.5625 146.847656 L 228.855469 149.558594 L 228.855469 145.761719 L 213.574219 146.484375 L 183.367188 123.753906 L 174.011719 138.535156 L 184.269531 148.835938 L 165.738281 137.820312 L 143.265625 160.390625 L 153.152344 145.410156 L 149.960938 142.203125 Z M 112.5 171.933594 " fill-opacity="1" fill-rule="nonzero"/></g><g fill="#000000" fill-opacity="1"><g transform="translate(111.437919, 232.101489)"><g><path d="M 10.625 -11.9375 C 12.832031 -10.738281 14.363281 -9.671875 15.21875 -8.734375 C 16.070312 -7.796875 16.5 -6.597656 16.5 -5.140625 C 16.5 -3.378906 15.765625 -2.015625 14.296875 -1.046875 C 12.828125 -0.0859375 10.753906 0.390625 8.078125 0.390625 C 6.796875 0.390625 5.582031 0.269531 4.4375 0.03125 C 3.300781 -0.195312 2.328125 -0.492188 1.515625 -0.859375 L 1.328125 -5.53125 L 4.359375 -5.890625 L 5.421875 -2.5 C 5.828125 -2.375 6.269531 -2.28125 6.75 -2.21875 C 7.226562 -2.15625 7.71875 -2.125 8.21875 -2.125 C 8.757812 -2.125 9.273438 -2.15625 9.765625 -2.21875 C 10.265625 -2.28125 10.726562 -2.375 11.15625 -2.5 C 11.207031 -2.6875 11.238281 -2.898438 11.25 -3.140625 C 11.269531 -3.390625 11.28125 -3.628906 11.28125 -3.859375 C 11.28125 -4.640625 10.984375 -5.316406 10.390625 -5.890625 C 9.796875 -6.460938 8.59375 -7.265625 6.78125 -8.296875 C 4.71875 -9.421875 3.269531 -10.414062 2.4375 -11.28125 C 1.601562 -12.15625 1.1875 -13.296875 1.1875 -14.703125 C 1.1875 -16.304688 1.894531 -17.570312 3.3125 -18.5 C 4.726562 -19.425781 6.769531 -19.890625 9.4375 -19.890625 C 10.382812 -19.890625 11.398438 -19.785156 12.484375 -19.578125 C 13.566406 -19.378906 14.613281 -19.078125 15.625 -18.671875 L 15.796875 -13.984375 L 12.75 -13.625 L 11.65625 -17.109375 C 11.269531 -17.203125 10.867188 -17.269531 10.453125 -17.3125 C 10.046875 -17.351562 9.664062 -17.375 9.3125 -17.375 C 8.851562 -17.375 8.375 -17.335938 7.875 -17.265625 C 7.382812 -17.203125 6.945312 -17.113281 6.5625 -17 C 6.5 -16.800781 6.453125 -16.585938 6.421875 -16.359375 C 6.398438 -16.140625 6.390625 -15.914062 6.390625 -15.6875 C 6.390625 -15.125 6.644531 -14.601562 7.15625 -14.125 C 7.675781 -13.644531 8.832031 -12.914062 10.625 -11.9375 Z M 10.625 -11.9375 "/></g></g></g><g fill="#000000" fill-opacity="1"><g transform="translate(128.716883, 232.101489)"><g><path d="M 7.921875 -6.703125 C 7.921875 -5.117188 8.144531 -3.957031 8.59375 -3.21875 C 9.050781 -2.488281 9.78125 -2.125 10.78125 -2.125 C 11.425781 -2.125 12.113281 -2.363281 12.84375 -2.84375 C 13.582031 -3.320312 14.289062 -3.972656 14.96875 -4.796875 L 14.96875 -16.765625 L 11.859375 -17.375 L 12.21875 -19.5 L 20.171875 -19.890625 L 20.171875 -2.734375 L 22.75 -2.125 L 22.390625 0 L 16.375 0.390625 L 15.328125 -2.4375 C 14.398438 -1.5 13.394531 -0.789062 12.3125 -0.3125 C 11.226562 0.15625 10.066406 0.390625 8.828125 0.390625 C 6.785156 0.390625 5.253906 -0.175781 4.234375 -1.3125 C 3.222656 -2.445312 2.71875 -4.128906 2.71875 -6.359375 L 2.71875 -16.765625 L 0.140625 -17.375 L 0.5 -19.5 L 7.921875 -19.890625 Z M 7.921875 -6.703125 "/></g></g></g><g fill="#000000" fill-opacity="1"><g transform="translate(152.354218, 232.101489)"><g><path d="M 3.796875 -16.765625 L 1.21875 -17.375 L 1.578125 -19.5 L 7.59375 -19.890625 L 8.640625 -17.046875 C 9.171875 -18.035156 9.816406 -18.753906 10.578125 -19.203125 C 11.347656 -19.660156 12.242188 -19.890625 13.265625 -19.890625 C 13.742188 -19.890625 14.242188 -19.820312 14.765625 -19.6875 C 15.296875 -19.5625 15.78125 -19.378906 16.21875 -19.140625 L 15.78125 -13.6875 L 12.328125 -13.6875 L 11.84375 -17.09375 C 11.757812 -17.113281 11.675781 -17.128906 11.59375 -17.140625 C 11.507812 -17.148438 11.429688 -17.15625 11.359375 -17.15625 C 10.992188 -17.15625 10.601562 -16.9375 10.1875 -16.5 C 9.78125 -16.0625 9.382812 -15.460938 9 -14.703125 L 9 -2.734375 L 12.15625 -2.125 L 11.796875 0 L 1.578125 0 L 1.21875 -2.125 L 3.796875 -2.734375 Z M 3.796875 -16.765625 "/></g></g></g><g fill="#000000" fill-opacity="1"><g transform="translate(168.860843, 232.101489)"><g><path d="M 15.953125 -11.171875 C 15.953125 -13.253906 15.691406 -14.804688 15.171875 -15.828125 C 14.660156 -16.859375 13.804688 -17.375 12.609375 -17.375 C 11.960938 -17.375 11.257812 -17.125 10.5 -16.625 C 9.75 -16.132812 9.046875 -15.492188 8.390625 -14.703125 L 8.390625 -2.609375 C 8.972656 -2.453125 9.550781 -2.332031 10.125 -2.25 C 10.707031 -2.164062 11.222656 -2.125 11.671875 -2.125 C 12.328125 -2.125 12.957031 -2.1875 13.5625 -2.3125 C 14.175781 -2.445312 14.691406 -2.625 15.109375 -2.84375 C 15.296875 -3.488281 15.484375 -4.394531 15.671875 -5.5625 C 15.859375 -6.738281 15.953125 -7.894531 15.953125 -9.03125 Z M 3.1875 -16.765625 L 0.609375 -17.375 L 0.96875 -19.5 L 6.984375 -19.890625 L 8.03125 -17.046875 C 8.925781 -17.992188 9.90625 -18.703125 10.96875 -19.171875 C 12.03125 -19.648438 13.128906 -19.890625 14.265625 -19.890625 C 16.566406 -19.890625 18.289062 -19.210938 19.4375 -17.859375 C 20.59375 -16.515625 21.171875 -14.488281 21.171875 -11.78125 L 21.171875 -10.09375 C 21.171875 -6.875 20.335938 -4.320312 18.671875 -2.4375 C 17.015625 -0.550781 14.742188 0.390625 11.859375 0.390625 C 11.242188 0.390625 10.648438 0.347656 10.078125 0.265625 C 9.515625 0.179688 8.953125 0.078125 8.390625 -0.046875 L 8.390625 5.0625 L 10.953125 5.671875 L 10.59375 7.8125 L 0.96875 7.8125 L 0.609375 5.671875 L 3.1875 5.0625 Z M 3.1875 -16.765625 "/></g></g></g><g fill="#000000" fill-opacity="1"><g transform="translate(191.20495, 232.101489)"><g><path d="M 10.171875 0.390625 C 7.285156 0.390625 5.050781 -0.300781 3.46875 -1.6875 C 1.894531 -3.070312 1.109375 -5.019531 1.109375 -7.53125 L 1.109375 -9.203125 C 1.109375 -12.546875 1.976562 -15.160156 3.71875 -17.046875 C 5.457031 -18.941406 7.765625 -19.890625 10.640625 -19.890625 C 13.484375 -19.890625 15.722656 -19.195312 17.359375 -17.8125 C 19.003906 -16.4375 19.828125 -14.425781 19.828125 -11.78125 L 19.828125 -10.09375 C 19.828125 -6.894531 18.972656 -4.347656 17.265625 -2.453125 C 15.554688 -0.554688 13.191406 0.390625 10.171875 0.390625 Z M 14.625 -11.171875 C 14.625 -13.179688 14.207031 -14.71875 13.375 -15.78125 C 12.539062 -16.84375 11.484375 -17.375 10.203125 -17.375 C 9.628906 -17.375 9.082031 -17.304688 8.5625 -17.171875 C 8.050781 -17.046875 7.601562 -16.875 7.21875 -16.65625 C 6.945312 -15.8125 6.726562 -14.832031 6.5625 -13.71875 C 6.40625 -12.613281 6.328125 -11.46875 6.328125 -10.28125 L 6.328125 -8.140625 C 6.328125 -6.222656 6.75 -4.738281 7.59375 -3.6875 C 8.445312 -2.644531 9.488281 -2.125 10.71875 -2.125 C 11.320312 -2.125 11.882812 -2.1875 12.40625 -2.3125 C 12.925781 -2.445312 13.367188 -2.625 13.734375 -2.84375 C 13.992188 -3.519531 14.207031 -4.398438 14.375 -5.484375 C 14.539062 -6.566406 14.625 -7.75 14.625 -9.03125 Z M 14.625 -11.171875 "/></g></g></g><g fill="#000000" fill-opacity="1"><g transform="translate(212.183983, 232.101489)"><g><path d="M 9 -2.734375 L 11.578125 -2.125 L 11.21875 0 L 1.578125 0 L 1.21875 -2.125 L 3.796875 -2.734375 L 3.796875 -16.765625 L 1.21875 -17.375 L 1.578125 -19.5 L 9 -19.890625 Z M 3.34375 -25.0625 C 3.34375 -25.914062 3.566406 -26.660156 4.015625 -27.296875 C 4.460938 -27.941406 4.988281 -28.265625 5.59375 -28.265625 C 6.46875 -28.265625 7.210938 -28.039062 7.828125 -27.59375 C 8.453125 -27.15625 8.765625 -26.617188 8.765625 -25.984375 C 8.765625 -25.128906 8.535156 -24.382812 8.078125 -23.75 C 7.628906 -23.125 7.109375 -22.8125 6.515625 -22.8125 C 5.660156 -22.8125 4.914062 -23.03125 4.28125 -23.46875 C 3.65625 -23.914062 3.34375 -24.445312 3.34375 -25.0625 Z M 3.34375 -25.0625 "/></g></g></g><g fill="#000000" fill-opacity="1"><g transform="translate(224.685188, 232.101489)"><g><path d="M 1.21875 -2.125 L 3.796875 -2.734375 L 3.796875 -16.765625 L 1.21875 -17.375 L 1.578125 -19.5 L 7.59375 -19.890625 L 8.640625 -17.046875 C 9.765625 -18.085938 10.863281 -18.820312 11.9375 -19.25 C 13.019531 -19.675781 14.160156 -19.890625 15.359375 -19.890625 C 17.398438 -19.890625 18.953125 -19.367188 20.015625 -18.328125 C 21.078125 -17.285156 21.609375 -15.765625 21.609375 -13.765625 L 21.609375 -2.734375 L 24.1875 -2.125 L 23.828125 0 L 14.1875 0 L 13.828125 -2.125 L 16.40625 -2.734375 L 16.40625 -13.5 C 16.40625 -14.875 16.1875 -15.863281 15.75 -16.46875 C 15.3125 -17.070312 14.644531 -17.375 13.75 -17.375 C 13.113281 -17.375 12.382812 -17.148438 11.5625 -16.703125 C 10.738281 -16.265625 9.882812 -15.597656 9 -14.703125 L 9 -2.734375 L 11.578125 -2.125 L 11.21875 0 L 1.578125 0 Z M 1.21875 -2.125 "/></g></g></g><g fill="#000000" fill-opacity="1"><g transform="translate(249.687597, 232.101489)"><g><path d="M 12.5625 -19.5 L 12.921875 -17.359375 L 8.0625 -16.78125 L 8.0625 -5.25 C 8.0625 -4.25 8.21875 -3.476562 8.53125 -2.9375 C 8.851562 -2.394531 9.484375 -2.125 10.421875 -2.125 C 10.765625 -2.125 11.164062 -2.191406 11.625 -2.328125 C 12.082031 -2.460938 12.519531 -2.628906 12.9375 -2.828125 L 12.9375 -0.765625 C 12.289062 -0.398438 11.546875 -0.117188 10.703125 0.078125 C 9.867188 0.285156 9.03125 0.390625 8.1875 0.390625 C 6.269531 0.390625 4.898438 -0.03125 4.078125 -0.875 C 3.265625 -1.71875 2.859375 -3.039062 2.859375 -4.84375 L 2.859375 -16.78125 L 0.140625 -17.359375 L 0.5 -19.5 L 2.859375 -19.5 L 4.171875 -24.765625 L 8.0625 -24.40625 L 8.0625 -19.5 Z M 12.5625 -19.5 "/></g></g></g><g clip-path="url(#3c99757344)"><path fill="#000000" d="M 252.898438 194.855469 C 250.804688 193.515625 248.429688 192.003906 243.902344 192.003906 C 239.371094 192.003906 236.996094 193.515625 234.902344 194.855469 C 232.890625 196.140625 231.148438 197.253906 227.460938 197.253906 C 223.769531 197.253906 222.03125 196.140625 220.015625 194.855469 C 217.921875 193.515625 215.550781 192.003906 211.019531 192.003906 C 206.488281 192.003906 204.117188 193.515625 202.023438 194.855469 C 200.011719 196.140625 198.269531 197.253906 194.582031 197.253906 C 190.890625 197.253906 189.152344 196.140625 187.136719 194.855469 C 185.042969 193.515625 182.671875 192.003906 178.140625 192.003906 C 173.613281 192.003906 171.238281 193.515625 169.144531 194.855469 C 167.132812 196.140625 165.390625 197.253906 161.703125 197.253906 C 158.011719 197.253906 156.273438 196.140625 154.257812 194.855469 C 152.164062 193.515625 149.792969 192.003906 145.261719 192.003906 C 140.730469 192.003906 138.359375 193.515625 136.265625 194.855469 C 134.253906 196.140625 132.511719 197.253906 128.824219 197.253906 C 125.132812 197.253906 123.394531 196.140625 121.378906 194.855469 C 119.667969 193.761719 117.769531 192.550781 114.65625 192.144531 L 114.65625 195.171875 C 116.890625 195.527344 118.277344 196.410156 119.828125 197.398438 C 121.921875 198.738281 124.292969 200.253906 128.824219 200.253906 C 133.351562 200.253906 135.726562 198.738281 137.820312 197.398438 C 139.832031 196.113281 141.570312 195.003906 145.261719 195.003906 C 148.953125 195.003906 150.691406 196.113281 152.707031 197.398438 C 154.800781 198.738281 157.171875 200.253906 161.703125 200.253906 C 166.230469 200.253906 168.605469 198.738281 170.699219 197.398438 C 172.710938 196.113281 174.449219 195.003906 178.140625 195.003906 C 181.832031 195.003906 183.570312 196.113281 185.585938 197.398438 C 187.675781 198.738281 190.050781 200.253906 194.582031 200.253906 C 199.109375 200.253906 201.484375 198.738281 203.578125 197.398438 C 205.589844 196.113281 207.332031 195.003906 211.019531 195.003906 C 214.710938 195.003906 216.449219 196.113281 218.464844 197.398438 C 220.558594 198.738281 222.929688 200.253906 227.460938 200.253906 C 231.988281 200.253906 234.363281 198.738281 236.457031 197.398438 C 238.472656 196.113281 240.210938 195.003906 243.902344 195.003906 C 247.589844 195.003906 249.332031 196.113281 251.347656 197.398438 C 253.441406 198.738281 255.8125 200.253906 260.34375 200.253906 L 260.34375 197.253906 C 256.652344 197.253906 254.914062 196.140625 252.898438 194.855469 " fill-opacity="1" fill-rule="nonzero"/></g><g clip-path="url(#781fc5e92c)"><path fill="#000000" d="M 252.898438 182.292969 C 250.804688 180.953125 248.429688 179.441406 243.902344 179.441406 C 239.371094 179.441406 236.996094 180.953125 234.902344 182.292969 C 232.890625 183.578125 231.148438 184.691406 227.460938 184.691406 C 223.769531 184.691406 222.03125 183.578125 220.015625 182.292969 C 217.921875 180.953125 215.550781 179.441406 211.019531 179.441406 C 206.488281 179.441406 204.117188 180.953125 202.023438 182.292969 C 200.011719 183.578125 198.269531 184.691406 194.582031 184.691406 C 190.890625 184.691406 189.152344 183.578125 187.136719 182.292969 C 185.042969 180.953125 182.671875 179.441406 178.140625 179.441406 C 173.613281 179.441406 171.238281 180.953125 169.144531 182.292969 C 167.132812 183.578125 165.390625 184.691406 161.703125 184.691406 C 158.011719 184.691406 156.273438 183.578125 154.257812 182.292969 C 152.164062 180.953125 149.792969 179.441406 145.261719 179.441406 C 140.730469 179.441406 138.359375 180.953125 136.265625 182.292969 C 134.253906 183.578125 132.511719 184.691406 128.824219 184.691406 C 125.132812 184.691406 123.394531 183.578125 121.378906 182.292969 C 119.667969 181.199219 117.769531 179.988281 114.65625 179.582031 L 114.65625 182.609375 C 116.890625 182.964844 118.277344 183.847656 119.828125 184.835938 C 121.921875 186.175781 124.292969 187.691406 128.824219 187.691406 C 133.351562 187.691406 135.726562 186.175781 137.820312 184.835938 C 139.832031 183.550781 141.570312 182.441406 145.261719 182.441406 C 148.953125 182.441406 150.691406 183.550781 152.707031 184.835938 C 154.800781 186.175781 157.171875 187.691406 161.703125 187.691406 C 166.230469 187.691406 168.605469 186.175781 170.699219 184.835938 C 172.710938 183.550781 174.449219 182.441406 178.140625 182.441406 C 181.832031 182.441406 183.570312 183.550781 185.585938 184.835938 C 187.675781 186.175781 190.050781 187.691406 194.582031 187.691406 C 199.109375 187.691406 201.484375 186.175781 203.578125 184.835938 C 205.589844 183.550781 207.332031 182.441406 211.019531 182.441406 C 214.710938 182.441406 216.449219 183.550781 218.464844 184.835938 C 220.558594 186.175781 222.929688 187.691406 227.460938 187.691406 C 231.988281 187.691406 234.363281 186.175781 236.457031 184.835938 C 238.472656 183.550781 240.210938 182.441406 243.902344 182.441406 C 247.589844 182.441406 249.332031 183.550781 251.347656 184.835938 C 253.441406 186.175781 255.8125 187.691406 260.34375 187.691406 L 260.34375 184.691406 C 256.652344 184.691406 254.914062 183.578125 252.898438 182.292969 " fill-opacity="1" fill-rule="nonzero"/></g></svg>