<svg xmlns="http://www.w3.org/2000/svg" xmlns:xlink="http://www.w3.org/1999/xlink" width="500" zoomAndPan="magnify" viewBox="0 0 375 374.999991" height="500" preserveAspectRatio="xMidYMid meet" version="1.0"><defs><g/><clipPath id="344cec54cd"><path d="M 112.5 112.636719 L 262.5 112.636719 L 262.5 262.636719 L 112.5 262.636719 Z M 112.5 112.636719 " clip-rule="nonzero"/></clipPath></defs><rect x="-37.5" width="450" fill="#ffffff" y="-37.499999" height="449.999989" fill-opacity="1"/><rect x="-37.5" width="450" fill="#ebdfd4" y="-37.499999" height="449.999989" fill-opacity="1"/><g clip-path="url(#344cec54cd)"><path fill="#000000" d="M 261.492188 258.351562 C 262.464844 259.328125 262.464844 260.910156 261.492188 261.882812 C 261.003906 262.371094 260.367188 262.617188 259.730469 262.617188 C 259.089844 262.617188 258.453125 262.371094 257.964844 261.882812 L 187.488281 191.273438 L 117.011719 261.882812 C 116.527344 262.371094 115.886719 262.617188 115.25 262.617188 C 114.613281 262.617188 113.972656 262.371094 113.488281 261.882812 C 112.511719 260.910156 112.511719 259.328125 113.488281 258.351562 L 183.964844 187.742188 L 113.488281 117.132812 C 112.511719 116.15625 112.511719 114.578125 113.488281 113.601562 C 114.460938 112.625 116.039062 112.625 117.011719 113.601562 L 187.488281 184.210938 L 257.964844 113.601562 C 258.941406 112.625 260.519531 112.625 261.492188 113.601562 C 262.464844 114.578125 262.464844 116.15625 261.492188 117.132812 L 191.015625 187.742188 Z M 261.492188 258.351562 " fill-opacity="1" fill-rule="nonzero"/></g><g fill="#000000" fill-opacity="1"><g transform="translate(127.21014, 201.749987)"><g><path d="M 11.203125 0.375 C 9.359375 0.375 7.726562 0.117188 6.3125 -0.390625 C 4.894531 -0.910156 3.535156 -1.753906 2.234375 -2.921875 C 1.703125 -3.378906 1.4375 -3.898438 1.4375 -4.484375 C 1.4375 -4.941406 1.613281 -5.351562 1.96875 -5.71875 C 2.332031 -6.082031 2.753906 -6.265625 3.234375 -6.265625 C 3.660156 -6.265625 4.023438 -6.128906 4.328125 -5.859375 C 5.347656 -4.921875 6.394531 -4.226562 7.46875 -3.78125 C 8.539062 -3.332031 9.765625 -3.109375 11.140625 -3.109375 C 12.734375 -3.109375 14.078125 -3.472656 15.171875 -4.203125 C 16.273438 -4.941406 16.828125 -5.867188 16.828125 -6.984375 C 16.804688 -8.304688 16.253906 -9.328125 15.171875 -10.046875 C 14.097656 -10.773438 12.460938 -11.378906 10.265625 -11.859375 C 7.648438 -12.390625 5.640625 -13.257812 4.234375 -14.46875 C 2.828125 -15.6875 2.125 -17.375 2.125 -19.53125 C 2.125 -21.03125 2.515625 -22.34375 3.296875 -23.46875 C 4.085938 -24.59375 5.175781 -25.457031 6.5625 -26.0625 C 7.957031 -26.675781 9.53125 -26.984375 11.28125 -26.984375 C 12.851562 -26.984375 14.335938 -26.726562 15.734375 -26.21875 C 17.128906 -25.707031 18.253906 -25.035156 19.109375 -24.203125 C 19.691406 -23.703125 19.984375 -23.160156 19.984375 -22.578125 C 19.984375 -22.117188 19.8125 -21.710938 19.46875 -21.359375 C 19.132812 -21.003906 18.722656 -20.828125 18.234375 -20.828125 C 17.878906 -20.828125 17.585938 -20.925781 17.359375 -21.125 C 16.703125 -21.78125 15.789062 -22.335938 14.625 -22.796875 C 13.457031 -23.253906 12.34375 -23.484375 11.28125 -23.484375 C 9.582031 -23.484375 8.234375 -23.132812 7.234375 -22.4375 C 6.234375 -21.738281 5.734375 -20.820312 5.734375 -19.6875 C 5.734375 -18.445312 6.234375 -17.492188 7.234375 -16.828125 C 8.234375 -16.171875 9.722656 -15.613281 11.703125 -15.15625 C 13.679688 -14.726562 15.296875 -14.222656 16.546875 -13.640625 C 17.804688 -13.054688 18.773438 -12.242188 19.453125 -11.203125 C 20.140625 -10.171875 20.484375 -8.816406 20.484375 -7.140625 C 20.484375 -5.671875 20.070312 -4.363281 19.25 -3.21875 C 18.425781 -2.082031 17.300781 -1.195312 15.875 -0.5625 C 14.457031 0.0625 12.898438 0.375 11.203125 0.375 Z M 11.203125 0.375 "/></g></g></g><g fill="#000000" fill-opacity="1"><g transform="translate(227.596908, 201.749987)"><g><path d="M 17.828125 -3.53125 C 18.359375 -3.53125 18.789062 -3.363281 19.125 -3.03125 C 19.46875 -2.707031 19.640625 -2.28125 19.640625 -1.75 C 19.640625 -1.238281 19.46875 -0.816406 19.125 -0.484375 C 18.789062 -0.160156 18.359375 0 17.828125 0 L 4.984375 0 C 4.453125 0 4.015625 -0.175781 3.671875 -0.53125 C 3.328125 -0.882812 3.15625 -1.316406 3.15625 -1.828125 L 3.15625 -24.78125 C 3.15625 -25.28125 3.332031 -25.707031 3.6875 -26.0625 C 4.039062 -26.414062 4.492188 -26.59375 5.046875 -26.59375 C 5.554688 -26.59375 5.992188 -26.414062 6.359375 -26.0625 C 6.734375 -25.707031 6.921875 -25.28125 6.921875 -24.78125 L 6.921875 -3.53125 Z M 17.828125 -3.53125 "/></g></g></g><g fill="#000000" fill-opacity="1"><g transform="translate(173.31414, 156.85001)"><g><path d="M 20.40625 -26.59375 C 20.9375 -26.59375 21.375 -26.4375 21.71875 -26.125 C 22.0625 -25.8125 22.234375 -25.390625 22.234375 -24.859375 C 22.234375 -24.316406 22.0625 -23.894531 21.71875 -23.59375 C 21.375 -23.289062 20.9375 -23.140625 20.40625 -23.140625 L 13.640625 -23.140625 L 13.640625 -1.828125 C 13.640625 -1.316406 13.457031 -0.882812 13.09375 -0.53125 C 12.726562 -0.175781 12.265625 0 11.703125 0 C 11.148438 0 10.6875 -0.175781 10.3125 -0.53125 C 9.945312 -0.882812 9.765625 -1.316406 9.765625 -1.828125 L 9.765625 -23.140625 L 3.046875 -23.140625 C 2.503906 -23.140625 2.0625 -23.296875 1.71875 -23.609375 C 1.382812 -23.929688 1.21875 -24.359375 1.21875 -24.890625 C 1.21875 -25.398438 1.382812 -25.8125 1.71875 -26.125 C 2.0625 -26.4375 2.503906 -26.59375 3.046875 -26.59375 Z M 20.40625 -26.59375 "/></g></g></g><g fill="#000000" fill-opacity="1"><g transform="translate(157.412103, 254.163675)"><g><path d="M 26.265625 -26.640625 C 26.765625 -26.609375 27.191406 -26.421875 27.546875 -26.078125 C 27.898438 -25.742188 28.078125 -25.320312 28.078125 -24.8125 L 28.078125 -1.828125 C 28.078125 -1.316406 27.90625 -0.882812 27.5625 -0.53125 C 27.226562 -0.175781 26.78125 0 26.21875 0 C 25.664062 0 25.207031 -0.171875 24.84375 -0.515625 C 24.488281 -0.859375 24.3125 -1.296875 24.3125 -1.828125 L 24.3125 -19.421875 L 16.953125 -8.25 C 16.773438 -8.019531 16.550781 -7.828125 16.28125 -7.671875 C 16.019531 -7.523438 15.75 -7.460938 15.46875 -7.484375 C 15.21875 -7.460938 14.957031 -7.523438 14.6875 -7.671875 C 14.414062 -7.828125 14.191406 -8.019531 14.015625 -8.25 L 6.609375 -19.765625 L 6.609375 -1.828125 C 6.609375 -1.296875 6.445312 -0.859375 6.125 -0.515625 C 5.8125 -0.171875 5.390625 0 4.859375 0 C 4.359375 0 3.945312 -0.171875 3.625 -0.515625 C 3.3125 -0.859375 3.15625 -1.296875 3.15625 -1.828125 L 3.15625 -24.8125 C 3.15625 -25.289062 3.332031 -25.710938 3.6875 -26.078125 C 4.039062 -26.453125 4.484375 -26.640625 5.015625 -26.640625 C 5.316406 -26.640625 5.613281 -26.5625 5.90625 -26.40625 C 6.195312 -26.257812 6.429688 -26.054688 6.609375 -25.796875 L 15.625 -12.15625 L 24.734375 -25.796875 C 25.140625 -26.359375 25.648438 -26.640625 26.265625 -26.640625 Z M 26.265625 -26.640625 "/></g></g></g><g fill="#000000" fill-opacity="1"><g transform="translate(188.641723, 254.163675)"><g><path d="M 27.328125 -13.296875 C 27.328125 -10.742188 26.773438 -8.425781 25.671875 -6.34375 C 24.566406 -4.269531 23.035156 -2.628906 21.078125 -1.421875 C 19.128906 -0.222656 16.929688 0.375 14.484375 0.375 C 12.023438 0.375 9.816406 -0.222656 7.859375 -1.421875 C 5.910156 -2.628906 4.382812 -4.269531 3.28125 -6.34375 C 2.1875 -8.425781 1.640625 -10.742188 1.640625 -13.296875 C 1.640625 -15.859375 2.1875 -18.175781 3.28125 -20.25 C 4.382812 -22.332031 5.910156 -23.972656 7.859375 -25.171875 C 9.816406 -26.378906 12.023438 -26.984375 14.484375 -26.984375 C 16.929688 -26.984375 19.128906 -26.378906 21.078125 -25.171875 C 23.035156 -23.972656 24.566406 -22.332031 25.671875 -20.25 C 26.773438 -18.175781 27.328125 -15.859375 27.328125 -13.296875 Z M 23.40625 -13.296875 C 23.40625 -15.203125 23.023438 -16.921875 22.265625 -18.453125 C 21.503906 -19.984375 20.445312 -21.1875 19.09375 -22.0625 C 17.738281 -22.9375 16.203125 -23.375 14.484375 -23.375 C 12.753906 -23.375 11.210938 -22.941406 9.859375 -22.078125 C 8.503906 -21.210938 7.445312 -20.015625 6.6875 -18.484375 C 5.925781 -16.953125 5.546875 -15.222656 5.546875 -13.296875 C 5.546875 -11.398438 5.925781 -9.6875 6.6875 -8.15625 C 7.445312 -6.625 8.503906 -5.421875 9.859375 -4.546875 C 11.210938 -3.671875 12.753906 -3.234375 14.484375 -3.234375 C 16.203125 -3.234375 17.738281 -3.671875 19.09375 -4.546875 C 20.445312 -5.421875 21.503906 -6.625 22.265625 -8.15625 C 23.023438 -9.6875 23.40625 -11.398438 23.40625 -13.296875 Z M 23.40625 -13.296875 "/></g></g></g></svg>