<svg xmlns="http://www.w3.org/2000/svg" xmlns:xlink="http://www.w3.org/1999/xlink" width="500" zoomAndPan="magnify" viewBox="0 0 375 374.999991" height="500" preserveAspectRatio="xMidYMid meet" version="1.0"><defs><clipPath id="8ab18bbe32"><path d="M 93.078125 97.578125 L 282.078125 97.578125 L 282.078125 286.578125 L 93.078125 286.578125 Z M 93.078125 97.578125 " clip-rule="nonzero"/></clipPath><clipPath id="0740ac82a8"><path d="M 97.109375 117.226562 L 281.609375 117.226562 L 281.609375 184.726562 L 97.109375 184.726562 Z M 97.109375 117.226562 " clip-rule="nonzero"/></clipPath><clipPath id="1ab14a63ba"><path d="M 99 201.5625 L 276 201.5625 L 276 211.3125 L 99 211.3125 Z M 99 201.5625 " clip-rule="nonzero"/></clipPath><clipPath id="1b542413f5"><path d="M 99 192 L 276 192 L 276 201.75 L 99 201.75 Z M 99 192 " clip-rule="nonzero"/></clipPath></defs><rect x="-37.5" width="450" fill="#ffffff" y="-37.499999" height="449.999989" fill-opacity="1"/><rect x="-37.5" width="450" fill="#ffffff" y="-37.499999" height="449.999989" fill-opacity="1"/><g clip-path="url(#8ab18bbe32)"><path fill="#000000" d="M 187.578125 286.578125 C 135.371094 286.578125 93.078125 243.996094 93.078125 192.078125 C 93.078125 140.164062 135.371094 97.578125 187.578125 97.578125 C 239.789062 97.578125 282.078125 139.871094 282.078125 192.078125 C 282.078125 244.289062 239.496094 286.578125 187.578125 286.578125 Z M 187.578125 103.414062 C 138.578125 103.414062 98.914062 143.078125 98.914062 192.078125 C 98.914062 241.078125 138.578125 280.746094 187.578125 280.746094 C 236.578125 280.746094 276.246094 241.078125 276.246094 192.078125 C 276.246094 143.078125 236.289062 103.414062 187.578125 103.414062 Z M 187.578125 103.414062 " fill-opacity="1" fill-rule="nonzero"/></g><g clip-path="url(#0740ac82a8)"><path fill="#000000" d="M 97.109375 184.675781 L 143.566406 141.296875 L 150.207031 147.96875 L 162.152344 135.949219 L 168.296875 140.113281 L 183.378906 117.253906 L 221.878906 147.96875 L 244.433594 147.96875 L 281.609375 180.882812 L 243.558594 153.746094 L 240.226562 157.089844 L 240.226562 152.40625 L 221.429688 153.300781 L 184.277344 125.273438 L 172.769531 143.5 L 185.382812 156.195312 L 162.589844 142.617188 L 134.949219 170.441406 L 147.109375 151.976562 L 143.183594 148.019531 Z M 97.109375 184.675781 " fill-opacity="1" fill-rule="nonzero"/></g><g clip-path="url(#1ab14a63ba)"><path fill="#000000" d="M 266.648438 204.9375 C 264.113281 203.355469 261.246094 201.566406 255.765625 201.566406 C 250.28125 201.566406 247.414062 203.355469 244.878906 204.9375 C 242.441406 206.457031 240.335938 207.769531 235.875 207.769531 C 231.410156 207.769531 229.304688 206.457031 226.867188 204.9375 C 224.335938 203.355469 221.464844 201.566406 215.984375 201.566406 C 210.503906 201.566406 207.636719 203.355469 205.101562 204.9375 C 202.664062 206.457031 200.5625 207.769531 196.097656 207.769531 C 191.632812 207.769531 189.527344 206.457031 187.09375 204.9375 C 184.558594 203.355469 181.6875 201.566406 176.207031 201.566406 C 170.730469 201.566406 167.859375 203.355469 165.324219 204.9375 C 162.890625 206.457031 160.785156 207.769531 156.320312 207.769531 C 151.859375 207.769531 149.753906 206.457031 147.316406 204.9375 C 144.785156 203.355469 141.914062 201.566406 136.433594 201.566406 C 130.953125 201.566406 128.082031 203.355469 125.550781 204.9375 C 123.113281 206.457031 121.007812 207.769531 116.546875 207.769531 C 112.082031 207.769531 109.976562 206.457031 107.539062 204.9375 C 105.46875 203.644531 103.171875 202.210938 99.40625 201.734375 L 99.40625 205.308594 C 102.109375 205.730469 103.789062 206.777344 105.660156 207.945312 C 108.195312 209.523438 111.066406 211.316406 116.546875 211.316406 C 122.027344 211.316406 124.894531 209.523438 127.429688 207.945312 C 129.863281 206.425781 131.96875 205.109375 136.433594 205.109375 C 140.898438 205.109375 143 206.425781 145.4375 207.945312 C 147.972656 209.523438 150.839844 211.316406 156.320312 211.316406 C 161.800781 211.316406 164.671875 209.523438 167.203125 207.945312 C 169.640625 206.425781 171.746094 205.109375 176.207031 205.109375 C 180.671875 205.109375 182.777344 206.425781 185.214844 207.945312 C 187.746094 209.523438 190.617188 211.316406 196.097656 211.316406 C 201.578125 211.316406 204.449219 209.523438 206.980469 207.945312 C 209.417969 206.425781 211.519531 205.109375 215.984375 205.109375 C 220.449219 205.109375 222.554688 206.425781 224.992188 207.945312 C 227.523438 209.523438 230.394531 211.316406 235.875 211.316406 C 241.355469 211.316406 244.226562 209.523438 246.757812 207.945312 C 249.195312 206.425781 251.300781 205.109375 255.765625 205.109375 C 260.226562 205.109375 262.332031 206.425781 264.769531 207.945312 C 267.304688 209.523438 270.175781 211.316406 275.65625 211.316406 L 275.65625 207.769531 C 271.191406 207.769531 269.085938 206.457031 266.648438 204.9375 " fill-opacity="1" fill-rule="nonzero"/></g><g clip-path="url(#1b542413f5)"><path fill="#000000" d="M 266.648438 195.375 C 264.113281 193.792969 261.246094 192.003906 255.765625 192.003906 C 250.28125 192.003906 247.414062 193.792969 244.878906 195.375 C 242.441406 196.894531 240.335938 198.207031 235.875 198.207031 C 231.410156 198.207031 229.304688 196.894531 226.867188 195.375 C 224.335938 193.792969 221.464844 192.003906 215.984375 192.003906 C 210.503906 192.003906 207.636719 193.792969 205.101562 195.375 C 202.664062 196.894531 200.5625 198.207031 196.097656 198.207031 C 191.632812 198.207031 189.527344 196.894531 187.09375 195.375 C 184.558594 193.792969 181.6875 192.003906 176.207031 192.003906 C 170.730469 192.003906 167.859375 193.792969 165.324219 195.375 C 162.890625 196.894531 160.785156 198.207031 156.320312 198.207031 C 151.859375 198.207031 149.753906 196.894531 147.316406 195.375 C 144.785156 193.792969 141.914062 192.003906 136.433594 192.003906 C 130.953125 192.003906 128.082031 193.792969 125.550781 195.375 C 123.113281 196.894531 121.007812 198.207031 116.546875 198.207031 C 112.082031 198.207031 109.976562 196.894531 107.539062 195.375 C 105.46875 194.082031 103.171875 192.648438 99.40625 192.171875 L 99.40625 195.746094 C 102.109375 196.167969 103.789062 197.214844 105.660156 198.382812 C 108.195312 199.960938 111.066406 201.753906 116.546875 201.753906 C 122.027344 201.753906 124.894531 199.960938 127.429688 198.382812 C 129.863281 196.863281 131.96875 195.546875 136.433594 195.546875 C 140.898438 195.546875 143 196.863281 145.4375 198.382812 C 147.972656 199.960938 150.839844 201.753906 156.320312 201.753906 C 161.800781 201.753906 164.671875 199.960938 167.203125 198.382812 C 169.640625 196.863281 171.746094 195.546875 176.207031 195.546875 C 180.671875 195.546875 182.777344 196.863281 185.214844 198.382812 C 187.746094 199.960938 190.617188 201.753906 196.097656 201.753906 C 201.578125 201.753906 204.449219 199.960938 206.980469 198.382812 C 209.417969 196.863281 211.519531 195.546875 215.984375 195.546875 C 220.449219 195.546875 222.554688 196.863281 224.992188 198.382812 C 227.523438 199.960938 230.394531 201.753906 235.875 201.753906 C 241.355469 201.753906 244.226562 199.960938 246.757812 198.382812 C 249.195312 196.863281 251.300781 195.546875 255.765625 195.546875 C 260.226562 195.546875 262.332031 196.863281 264.769531 198.382812 C 267.304688 199.960938 270.175781 201.753906 275.65625 201.753906 L 275.65625 198.207031 C 271.191406 198.207031 269.085938 196.894531 266.648438 195.375 " fill-opacity="1" fill-rule="nonzero"/></g><path stroke-linecap="butt" transform="matrix(0.75, 0, 0, 0.75, 97.407977, 219.702526)" fill="none" stroke-linejoin="miter" d="M 60.508118 -3.337743 L 56.539367 4.901841 L 52.52895 -3.337743 L 45.9977 -3.337743 L 45.9977 28.959134 L 52.1852 28.959134 L 52.1852 10.011217 L 56.581034 19.021634 L 60.841451 10.1883 L 60.841451 28.959134 L 67.028951 28.959134 L 67.028951 -3.337743 Z M 75.34666 -3.337743 L 69.164368 -3.337743 L 69.164368 28.959134 L 75.34666 28.959134 Z M 89.122703 -3.296076 L 77.482077 -3.296076 L 77.482077 28.959134 L 89.122703 28.959134 C 93.091453 28.959134 96.28937 25.719551 96.28937 21.792467 L 96.28937 3.870591 C 96.28937 -0.0877424 93.091453 -3.296076 89.122703 -3.296076 Z M 90.153953 21.792467 C 90.153953 22.344551 89.674786 22.771634 89.122703 22.771634 L 83.664369 22.771634 L 83.664369 2.849758 L 89.122703 2.849758 C 89.674786 2.849758 90.153953 3.318508 90.153953 3.870591 Z M 125.98208 -3.254409 L 120.690413 18.3758 L 117.148746 -0.139826 L 110.883121 -0.139826 L 111.945621 5.495591 L 108.789371 18.3758 L 104.69562 -3.254409 L 98.424787 -3.254409 L 104.528954 29.042468 L 112.508121 29.042468 L 114.721663 20.084134 L 116.429996 29.042468 L 124.398747 29.042468 L 132.336247 -3.254409 Z M 151.570624 -3.296076 L 134.466456 -3.337743 L 134.466456 28.959134 L 151.570624 28.959134 L 151.570624 22.771634 L 140.653956 22.771634 L 140.653956 15.052884 L 147.695623 15.052884 L 147.695623 8.865383 L 140.653956 8.865383 L 140.653956 2.849758 L 151.570624 2.849758 Z M 153.70604 5.495591 C 153.70604 11.46955 157.206041 14.959134 163.351874 15.136217 L 164.331041 15.136217 C 165.060208 15.136217 166.508125 15.136217 166.508125 17.3133 L 166.508125 20.386217 C 166.508125 21.532051 164.883124 22.854967 162.581041 22.854967 L 154.476874 22.854967 L 154.476874 29.042468 L 162.581041 29.042468 C 168.122708 29.042468 172.653958 25.157051 172.653958 20.386217 L 172.653958 17.3133 C 172.653958 13.302883 170.049791 8.948716 164.331041 8.948716 L 163.778958 8.948716 C 160.956041 8.948716 159.893541 8.302883 159.893541 5.495591 C 159.893541 4.516425 161.133124 2.891424 162.070624 2.891424 L 165.476874 2.891424 L 171.664375 2.933091 L 171.664375 -3.254409 L 161.299791 -3.254409 C 156.987291 -2.785659 153.70604 1.651841 153.70604 5.495591 Z M 174.778958 -3.202326 L 174.778958 2.933091 L 183.060209 2.933091 L 183.060209 29.042468 L 189.195626 29.042468 L 189.195626 2.933091 L 197.471668 2.933091 L 197.471668 -3.202326 L 189.195626 -3.202326 L 189.195626 -3.254409 L 183.060209 -3.254409 L 183.060209 -3.202326 Z M 174.778958 -3.202326 " stroke="#000000" stroke-width="1.226659" stroke-opacity="1" stroke-miterlimit="4"/><path stroke-linecap="butt" transform="matrix(0.75, 0, 0, 0.75, 97.407977, 219.702526)" fill="none" stroke-linejoin="miter" d="M 84.810202 34.703927 L 74.820619 34.703927 C 70.851868 34.703927 67.653951 37.91226 67.653951 41.828927 L 67.653951 59.79247 C 67.653951 63.76122 70.851868 66.959137 74.820619 66.959137 L 84.810202 66.959137 L 84.810202 60.771637 L 74.820619 60.771637 C 74.268535 60.771637 73.841452 60.344553 73.841452 59.79247 L 73.841452 41.828927 C 73.841452 41.31851 74.268535 40.84976 74.820619 40.84976 L 84.810202 40.84976 Z M 98.581037 34.797677 L 94.10187 34.797677 C 90.174786 34.797677 86.935203 37.995593 86.935203 41.964344 L 86.935203 59.875803 C 86.935203 63.844553 90.174786 67.04247 94.10187 67.04247 L 98.581037 67.04247 C 102.549787 67.04247 105.747704 63.844553 105.747704 59.875803 L 105.747704 41.964344 C 105.747704 37.995593 102.549787 34.797677 98.581037 34.797677 Z M 99.612287 59.875803 C 99.612287 60.427887 99.13312 60.85497 98.581037 60.85497 L 94.10187 60.85497 C 93.549786 60.85497 93.122703 60.427887 93.122703 59.875803 L 93.122703 41.964344 C 93.122703 41.401844 93.549786 40.933094 94.10187 40.933094 L 98.581037 40.933094 C 99.13312 40.933094 99.612287 41.401844 99.612287 41.964344 Z M 115.85708 60.563303 L 122.429997 60.563303 L 123.66958 66.959137 L 129.940414 66.959137 L 123.752913 34.66226 L 120.596663 34.66226 L 120.502913 34.703927 L 119.13833 34.703927 L 119.096663 34.66226 L 115.940413 34.66226 L 115.940413 34.703927 L 107.883121 66.959137 L 114.273746 66.959137 Z M 119.565413 45.625802 L 121.23208 54.375803 L 117.38833 54.375803 Z M 132.065414 43.495594 C 132.065414 49.469552 135.565414 52.959136 141.711248 53.136219 L 142.690415 53.136219 C 143.419581 53.136219 144.867498 53.136219 144.867498 55.313303 L 144.867498 58.38622 C 144.867498 59.532053 143.242498 60.85497 140.940415 60.85497 L 132.836247 60.85497 L 132.836247 67.04247 L 140.940415 67.04247 C 146.482082 67.04247 151.013332 63.157053 151.013332 58.38622 L 151.013332 55.313303 C 151.013332 51.302886 148.409165 46.948719 142.690415 46.948719 L 142.138331 46.948719 C 139.315414 46.948719 138.252914 46.302886 138.252914 43.495594 C 138.252914 42.516427 139.492498 40.891427 140.429998 40.891427 L 143.836248 40.891427 L 150.023748 40.933094 L 150.023748 34.745593 L 139.659164 34.745593 C 135.346664 35.214343 132.065414 39.651844 132.065414 43.495594 Z M 153.138332 34.797677 L 153.138332 40.933094 L 161.419583 40.933094 L 161.419583 67.04247 L 167.555 67.04247 L 167.555 40.933094 L 175.831042 40.933094 L 175.831042 34.797677 L 167.555 34.797677 L 167.555 34.745593 L 161.419583 34.745593 L 161.419583 34.797677 Z M 153.138332 34.797677 " stroke="#000000" stroke-width="1.226659" stroke-opacity="1" stroke-miterlimit="4"/></svg>