<svg xmlns="http://www.w3.org/2000/svg" xmlns:xlink="http://www.w3.org/1999/xlink" width="500" zoomAndPan="magnify" viewBox="0 0 375 374.999991" height="500" preserveAspectRatio="xMidYMid meet" version="1.0"><defs><g/><clipPath id="03ddebc894"><path d="M 68.503906 112.5 L 262.753906 112.5 L 262.753906 306.75 L 68.503906 306.75 Z M 68.503906 112.5 " clip-rule="nonzero"/></clipPath><clipPath id="dde68c8555"><path d="M 70 112.5 L 262.753906 112.5 L 262.753906 305 L 70 305 Z M 70 112.5 " clip-rule="nonzero"/></clipPath><clipPath id="4419c1ce81"><path d="M 68.503906 125 L 250 125 L 250 306.75 L 68.503906 306.75 Z M 68.503906 125 " clip-rule="nonzero"/></clipPath><clipPath id="9c6588823b"><path d="M 69 119 L 253 119 L 253 306.75 L 69 306.75 Z M 69 119 " clip-rule="nonzero"/></clipPath></defs><rect x="-37.5" width="450" fill="#ffffff" y="-37.499999" height="449.999989" fill-opacity="1"/><rect x="-37.5" width="450" fill="#393536" y="-37.499999" height="449.999989" fill-opacity="1"/><g clip-path="url(#03ddebc894)"><path fill="#ffffff" d="M 259.808594 115.441406 C 257.925781 113.558594 255.929688 112.503906 255.34375 113.085938 L 253.113281 115.316406 C 253.046875 115.289062 252.972656 115.257812 252.902344 115.238281 C 252.699219 115.175781 252.484375 115.289062 252.421875 115.496094 C 252.375 115.644531 252.425781 115.796875 252.535156 115.894531 L 248.789062 119.640625 C 248.003906 119.519531 247.171875 119.757812 246.566406 120.363281 L 237.234375 129.695312 C 236.628906 130.300781 236.390625 131.132812 236.511719 131.921875 L 226.167969 142.265625 C 226.097656 142.238281 226.023438 142.207031 225.957031 142.1875 C 225.75 142.125 225.535156 142.238281 225.472656 142.441406 C 225.425781 142.59375 225.476562 142.746094 225.585938 142.84375 L 206.488281 161.941406 C 205.996094 161.796875 205.613281 161.820312 205.398438 162.035156 L 166.503906 200.929688 L 166.390625 200.816406 L 172.226562 194.980469 C 172.605469 194.605469 172.605469 193.992188 172.226562 193.613281 C 171.851562 193.238281 171.238281 193.238281 170.859375 193.613281 L 122.710938 241.761719 C 122.710938 241.765625 122.710938 241.765625 122.710938 241.765625 L 114.386719 250.089844 C 114.382812 250.089844 114.382812 250.089844 114.382812 250.09375 L 106.058594 258.414062 C 106.058594 258.414062 106.058594 258.417969 106.058594 258.417969 L 102.332031 262.140625 C 101.957031 262.519531 101.957031 263.132812 102.332031 263.507812 C 102.523438 263.699219 102.769531 263.792969 103.015625 263.792969 C 103.265625 263.792969 103.511719 263.699219 103.699219 263.507812 L 106.742188 260.46875 L 106.855469 260.582031 L 95.492188 271.945312 C 93.847656 271.105469 91.785156 271.371094 90.410156 272.746094 C 89.035156 274.121094 88.769531 276.183594 89.609375 277.828125 L 87.164062 280.269531 C 85.523438 279.429688 83.457031 279.695312 82.082031 281.070312 C 80.707031 282.449219 80.441406 284.511719 81.28125 286.15625 L 75.703125 291.730469 C 75.636719 291.707031 75.5625 291.675781 75.492188 291.652344 C 75.289062 291.589844 75.074219 291.707031 75.011719 291.910156 C 74.964844 292.058594 75.015625 292.214844 75.125 292.3125 L 70.925781 296.507812 L 69.152344 298.28125 L 69.152344 298.285156 C 68.484375 298.949219 69.695312 301.242188 71.855469 303.398438 C 74.011719 305.558594 76.304688 306.769531 76.96875 306.101562 L 76.972656 306.101562 L 78.746094 304.328125 C 78.773438 304.300781 78.796875 304.269531 78.816406 304.238281 L 78.828125 304.246094 L 82.945312 300.128906 C 83.019531 300.199219 83.113281 300.246094 83.214844 300.246094 C 83.253906 300.246094 83.292969 300.238281 83.328125 300.226562 C 83.53125 300.164062 83.648438 299.949219 83.585938 299.746094 C 83.566406 299.683594 83.539062 299.621094 83.515625 299.558594 L 113.433594 269.640625 C 114.382812 269.535156 115.304688 269.121094 116.03125 268.390625 C 116.761719 267.664062 117.175781 266.742188 117.28125 265.789062 L 121.757812 261.316406 C 122.707031 261.207031 123.628906 260.792969 124.359375 260.0625 C 125.085938 259.335938 125.503906 258.414062 125.609375 257.464844 L 130.085938 252.988281 C 131.035156 252.882812 131.957031 252.464844 132.683594 251.738281 C 133.414062 251.007812 133.828125 250.089844 133.9375 249.136719 L 138.410156 244.664062 C 139.359375 244.554688 140.28125 244.140625 141.011719 243.410156 C 141.738281 242.683594 142.15625 241.761719 142.261719 240.8125 L 145.613281 237.460938 C 145.683594 237.511719 145.757812 237.5625 145.832031 237.609375 L 144.90625 238.535156 C 144.527344 238.914062 144.527344 239.523438 144.90625 239.902344 C 145.09375 240.089844 145.339844 240.183594 145.589844 240.183594 C 145.835938 240.183594 146.082031 240.089844 146.273438 239.902344 L 147.902344 238.269531 C 149.105469 238.339844 150.335938 237.921875 151.253906 237.003906 C 152.171875 236.082031 152.59375 234.855469 152.523438 233.652344 L 156.230469 229.945312 C 157.433594 230.015625 158.660156 229.59375 159.578125 228.675781 C 160.5 227.757812 160.917969 226.53125 160.847656 225.324219 L 195.582031 190.59375 L 202.09375 184.078125 C 202.09375 184.078125 202.09375 184.078125 202.097656 184.078125 L 212.101562 174.074219 C 212.476562 173.695312 212.476562 173.085938 212.101562 172.707031 C 211.722656 172.328125 211.109375 172.328125 210.734375 172.707031 L 207.925781 175.511719 L 207.746094 175.328125 L 213.21875 169.855469 C 213.433594 169.640625 213.453125 169.257812 213.3125 168.765625 L 232.410156 149.667969 C 232.484375 149.738281 232.578125 149.78125 232.683594 149.78125 C 232.71875 149.78125 232.757812 149.777344 232.796875 149.765625 C 233 149.703125 233.113281 149.488281 233.050781 149.28125 C 233.035156 149.222656 233.003906 149.15625 232.980469 149.097656 L 246.449219 135.628906 C 247.828125 135.203125 249.128906 134.445312 250.222656 133.355469 C 251.316406 132.261719 252.070312 130.960938 252.5 129.578125 L 259.359375 122.71875 C 259.433594 122.789062 259.527344 122.835938 259.628906 122.835938 C 259.667969 122.835938 259.707031 122.828125 259.742188 122.816406 C 259.949219 122.753906 260.0625 122.539062 260 122.335938 C 259.980469 122.273438 259.953125 122.210938 259.929688 122.148438 L 262.167969 119.910156 C 262.75 119.324219 261.695312 117.328125 259.808594 115.441406 Z M 108.222656 259.214844 L 108.109375 259.101562 L 115.070312 252.140625 L 115.179688 252.253906 Z M 116.546875 250.886719 L 116.433594 250.773438 L 123.394531 243.816406 L 123.507812 243.925781 Z M 124.875 242.558594 L 124.761719 242.449219 L 131.71875 235.488281 L 131.832031 235.601562 Z M 133.199219 234.234375 L 133.085938 234.121094 L 140.046875 227.164062 L 140.160156 227.273438 Z M 141.527344 225.910156 L 141.414062 225.796875 L 148.371094 218.835938 L 148.484375 218.949219 Z M 151.859375 231.578125 C 151.8125 231.507812 151.761719 231.433594 151.710938 231.363281 L 153.9375 229.132812 C 154.011719 229.183594 154.082031 229.234375 154.15625 229.28125 Z M 149.851562 217.582031 L 149.738281 217.46875 L 156.699219 210.511719 L 156.8125 210.625 Z M 160.1875 223.253906 C 160.140625 223.179688 160.089844 223.109375 160.035156 223.035156 L 163.390625 219.683594 C 163.535156 219.667969 163.683594 219.644531 163.828125 219.609375 Z M 158.179688 209.257812 L 158.066406 209.144531 L 165.023438 202.183594 L 165.136719 202.296875 Z M 167.167969 216.273438 C 167.199219 216.125 167.222656 215.980469 167.238281 215.832031 L 171.714844 211.359375 C 171.863281 211.339844 172.007812 211.316406 172.152344 211.285156 Z M 175.492188 207.945312 C 175.523438 207.800781 175.550781 207.65625 175.566406 207.507812 L 193.347656 189.726562 L 193.53125 189.910156 Z M 194.898438 188.542969 L 194.714844 188.359375 L 199.863281 183.210938 L 200.042969 183.394531 Z M 201.410156 182.027344 L 201.230469 181.84375 L 206.378906 176.695312 L 206.558594 176.878906 Z M 201.410156 182.027344 " fill-opacity="1" fill-rule="nonzero"/></g><g clip-path="url(#dde68c8555)"><path fill="#737373" d="M 158.179688 209.257812 L 165.136719 202.296875 L 167.523438 204.683594 C 166.457031 206.375 166.65625 208.632812 168.128906 210.109375 C 169.109375 211.085938 170.4375 211.503906 171.714844 211.359375 L 167.238281 215.832031 C 167.382812 214.554688 166.96875 213.226562 165.988281 212.246094 C 164.515625 210.773438 162.253906 210.574219 160.566406 211.640625 Z M 159.804688 218.433594 C 158.328125 216.960938 158.128906 214.699219 159.199219 213.007812 L 156.8125 210.625 L 149.851562 217.582031 L 154.15625 221.882812 C 155.84375 220.816406 158.105469 221.015625 159.578125 222.488281 C 159.75 222.660156 159.898438 222.84375 160.035156 223.035156 L 163.390625 219.683594 C 162.113281 219.828125 160.78125 219.414062 159.804688 218.433594 Z M 144.460938 231.578125 L 140.160156 227.277344 L 133.199219 234.234375 L 135.585938 236.621094 C 137.277344 235.554688 139.539062 235.753906 141.011719 237.226562 C 141.992188 238.207031 142.40625 239.535156 142.261719 240.8125 L 145.613281 237.460938 C 145.421875 237.324219 145.238281 237.171875 145.066406 237.003906 C 143.59375 235.527344 143.394531 233.269531 144.460938 231.578125 Z M 153.394531 228.675781 C 151.921875 227.203125 151.71875 224.941406 152.789062 223.25 L 148.484375 218.949219 L 141.527344 225.910156 L 145.828125 230.210938 C 147.519531 229.144531 149.78125 229.34375 151.253906 230.816406 C 151.425781 230.988281 151.574219 231.171875 151.710938 231.363281 L 153.9375 229.132812 C 153.75 228.996094 153.566406 228.847656 153.394531 228.675781 Z M 88.535156 286.964844 L 89.496094 287.925781 L 96.859375 280.5625 L 95.832031 279.535156 C 94.140625 280.601562 91.882812 280.402344 90.410156 278.929688 C 90.074219 278.597656 89.808594 278.222656 89.605469 277.828125 L 87.164062 280.269531 C 87.5625 280.472656 87.9375 280.738281 88.269531 281.070312 C 89.882812 282.683594 89.96875 285.246094 88.535156 286.964844 Z M 118.171875 260.066406 C 116.699219 258.589844 116.5 256.332031 117.566406 254.640625 L 115.179688 252.253906 L 108.222656 259.214844 L 110.609375 261.597656 C 112.296875 260.53125 114.558594 260.730469 116.03125 262.203125 C 117.011719 263.183594 117.425781 264.511719 117.28125 265.789062 L 121.757812 261.316406 C 120.480469 261.460938 119.152344 261.042969 118.171875 260.066406 Z M 126.5 251.738281 C 125.023438 250.265625 124.824219 248.003906 125.894531 246.3125 L 123.507812 243.929688 L 116.546875 250.886719 L 118.933594 253.273438 C 120.625 252.207031 122.886719 252.40625 124.359375 253.878906 C 125.339844 254.859375 125.753906 256.1875 125.609375 257.464844 L 130.085938 252.988281 C 128.808594 253.132812 127.476562 252.71875 126.5 251.738281 Z M 110.957031 269.195312 L 88.582031 291.574219 C 88.390625 291.765625 88.144531 291.859375 87.898438 291.859375 C 87.648438 291.859375 87.402344 291.765625 87.210938 291.574219 C 86.835938 291.199219 86.835938 290.585938 87.210938 290.207031 L 88.128906 289.292969 L 86.980469 288.144531 C 85.371094 288.875 83.40625 288.582031 82.082031 287.257812 C 81.75 286.925781 81.484375 286.550781 81.28125 286.152344 L 75.703125 291.730469 C 76.996094 292.191406 78.679688 293.382812 80.265625 294.96875 C 81.867188 296.570312 83.058594 298.261719 83.515625 299.558594 L 113.433594 269.640625 C 112.589844 269.734375 111.730469 269.589844 110.957031 269.195312 Z M 134.824219 243.410156 C 133.351562 241.9375 133.152344 239.679688 134.21875 237.988281 L 131.832031 235.601562 L 124.875 242.558594 L 127.261719 244.945312 C 128.953125 243.878906 131.210938 244.078125 132.683594 245.550781 C 133.664062 246.53125 134.078125 247.859375 133.9375 249.136719 L 138.410156 244.664062 C 137.132812 244.808594 135.804688 244.390625 134.824219 243.410156 Z M 79.71875 295.515625 C 78.15625 293.953125 76.449219 292.753906 75.265625 292.390625 C 75.210938 292.375 75.164062 292.347656 75.125 292.308594 L 70.925781 296.507812 C 71.59375 295.839844 73.886719 297.050781 76.042969 299.210938 C 78.113281 301.28125 79.3125 303.472656 78.816406 304.238281 L 78.828125 304.246094 L 82.945312 300.128906 C 82.902344 300.085938 82.863281 300.035156 82.84375 299.972656 C 82.484375 298.789062 81.285156 297.082031 79.71875 295.515625 Z M 97.199219 278.167969 L 98.226562 279.195312 L 109.46875 267.953125 C 108.351562 266.496094 108.273438 264.496094 109.242188 262.964844 L 106.855469 260.582031 L 95.492188 271.945312 C 95.886719 272.148438 96.261719 272.414062 96.59375 272.746094 C 98.066406 274.21875 98.265625 276.480469 97.199219 278.167969 Z M 237.234375 133.355469 C 236.832031 132.949219 236.589844 132.445312 236.511719 131.921875 L 226.167969 142.265625 C 227.296875 142.675781 228.761719 143.714844 230.140625 145.09375 C 231.535156 146.484375 232.574219 147.960938 232.980469 149.09375 L 246.449219 135.628906 C 243.296875 136.601562 239.726562 135.847656 237.234375 133.355469 Z M 259.808594 115.441406 C 257.925781 113.558594 255.929688 112.503906 255.34375 113.085938 L 253.113281 115.316406 C 254.246094 115.730469 255.710938 116.765625 257.089844 118.144531 C 258.480469 119.535156 259.523438 121.011719 259.929688 122.144531 L 262.167969 119.910156 C 262.75 119.324219 261.695312 117.328125 259.808594 115.441406 Z M 256.542969 118.691406 C 255.183594 117.332031 253.703125 116.292969 252.675781 115.976562 C 252.621094 115.960938 252.574219 115.933594 252.535156 115.894531 L 248.789062 119.640625 C 249.316406 119.722656 249.820312 119.960938 250.222656 120.363281 C 252.714844 122.859375 253.472656 126.429688 252.5 129.578125 L 259.359375 122.71875 C 259.316406 122.675781 259.277344 122.625 259.257812 122.558594 C 258.945312 121.535156 257.90625 120.054688 256.542969 118.691406 Z M 229.59375 145.640625 C 228.234375 144.28125 226.753906 143.238281 225.730469 142.925781 C 225.671875 142.910156 225.625 142.878906 225.585938 142.84375 L 206.488281 161.941406 C 205.996094 161.796875 205.613281 161.820312 205.398438 162.035156 L 166.503906 200.929688 L 168.890625 203.316406 C 170.582031 202.25 172.84375 202.449219 174.316406 203.921875 C 175.296875 204.902344 175.710938 206.230469 175.566406 207.507812 L 193.347656 189.726562 L 192.257812 188.636719 C 191.523438 188.867188 190.691406 188.703125 190.113281 188.125 C 189.285156 187.296875 189.285156 185.953125 190.113281 185.125 C 190.941406 184.296875 192.285156 184.296875 193.113281 185.125 C 193.691406 185.707031 193.855469 186.535156 193.625 187.269531 L 194.714844 188.359375 L 199.863281 183.210938 L 198.773438 182.121094 C 198.039062 182.351562 197.207031 182.1875 196.628906 181.609375 C 195.800781 180.78125 195.800781 179.4375 196.628906 178.609375 C 197.457031 177.78125 198.800781 177.78125 199.628906 178.609375 C 200.207031 179.191406 200.371094 180.019531 200.140625 180.753906 L 201.230469 181.84375 L 206.378906 176.695312 L 205.289062 175.605469 C 204.554688 175.839844 203.722656 175.671875 203.144531 175.09375 C 202.316406 174.265625 202.316406 172.921875 203.144531 172.09375 C 203.972656 171.265625 205.316406 171.265625 206.144531 172.09375 C 206.722656 172.675781 206.886719 173.503906 206.65625 174.238281 L 207.746094 175.328125 L 213.222656 169.851562 C 213.433594 169.640625 213.453125 169.253906 213.3125 168.765625 L 232.414062 149.664062 C 232.371094 149.621094 232.332031 149.570312 232.3125 149.507812 C 231.996094 148.484375 230.957031 147.003906 229.59375 145.640625 Z M 229.59375 145.640625 " fill-opacity="1" fill-rule="nonzero"/></g><path fill="#ffffff" d="M 230.140625 145.09375 C 231.535156 146.484375 232.574219 147.960938 232.980469 149.09375 C 233.003906 149.15625 233.03125 149.222656 233.050781 149.28125 C 233.113281 149.488281 233 149.703125 232.792969 149.765625 C 232.757812 149.777344 232.71875 149.78125 232.679688 149.78125 C 232.578125 149.78125 232.484375 149.738281 232.410156 149.664062 C 232.367188 149.621094 232.332031 149.570312 232.3125 149.507812 C 231.996094 148.484375 230.957031 147.003906 229.597656 145.640625 C 228.234375 144.28125 226.753906 143.238281 225.730469 142.925781 C 225.675781 142.910156 225.628906 142.878906 225.585938 142.84375 C 225.476562 142.746094 225.425781 142.59375 225.472656 142.441406 C 225.535156 142.238281 225.75 142.125 225.957031 142.1875 C 226.023438 142.207031 226.097656 142.238281 226.167969 142.265625 C 227.296875 142.675781 228.761719 143.714844 230.140625 145.09375 Z M 253.113281 115.316406 C 253.042969 115.289062 252.972656 115.257812 252.902344 115.238281 C 252.699219 115.175781 252.484375 115.289062 252.421875 115.496094 C 252.375 115.644531 252.425781 115.796875 252.535156 115.894531 C 252.574219 115.933594 252.621094 115.960938 252.675781 115.976562 C 253.703125 116.292969 255.183594 117.332031 256.542969 118.691406 C 257.90625 120.054688 258.945312 121.535156 259.261719 122.558594 C 259.28125 122.625 259.316406 122.675781 259.359375 122.71875 C 259.433594 122.789062 259.527344 122.835938 259.628906 122.835938 C 259.667969 122.835938 259.707031 122.828125 259.742188 122.816406 C 259.945312 122.753906 260.0625 122.539062 260 122.335938 C 259.980469 122.273438 259.953125 122.210938 259.929688 122.148438 C 259.523438 121.011719 258.480469 119.539062 257.089844 118.148438 C 255.710938 116.765625 254.246094 115.730469 253.113281 115.316406 Z M 75.703125 291.730469 C 75.632812 291.707031 75.5625 291.671875 75.492188 291.652344 C 75.289062 291.589844 75.074219 291.703125 75.011719 291.910156 C 74.964844 292.058594 75.015625 292.210938 75.125 292.308594 C 75.164062 292.347656 75.210938 292.375 75.265625 292.390625 C 76.449219 292.753906 78.15625 293.953125 79.71875 295.515625 C 81.285156 297.082031 82.484375 298.789062 82.847656 299.972656 C 82.867188 300.035156 82.902344 300.085938 82.945312 300.128906 C 83.019531 300.199219 83.113281 300.246094 83.214844 300.246094 C 83.253906 300.246094 83.292969 300.238281 83.328125 300.226562 C 83.53125 300.164062 83.648438 299.949219 83.585938 299.746094 C 83.566406 299.683594 83.539062 299.621094 83.515625 299.558594 C 83.058594 298.261719 81.867188 296.570312 80.265625 294.96875 C 78.679688 293.382812 76.996094 292.191406 75.703125 291.730469 Z M 75.703125 291.730469 " fill-opacity="1" fill-rule="nonzero"/><g clip-path="url(#4419c1ce81)"><path fill="#545454" d="M 76.96875 306.101562 C 76.304688 306.769531 74.011719 305.558594 71.855469 303.398438 C 69.695312 301.242188 68.484375 298.949219 69.152344 298.285156 C 69.503906 297.933594 70.304688 298.101562 71.300781 298.65625 C 72.195312 299.15625 73.246094 299.964844 74.269531 300.984375 C 75.289062 302.007812 76.097656 303.058594 76.597656 303.953125 C 77.152344 304.949219 77.320312 305.75 76.96875 306.101562 Z M 249.125 127.820312 L 247.632812 126.328125 C 247.175781 125.871094 246.433594 125.871094 245.972656 126.328125 L 243.199219 129.105469 C 242.742188 129.5625 242.742188 130.304688 243.199219 130.761719 L 244.691406 132.253906 C 245.148438 132.710938 245.890625 132.710938 246.347656 132.253906 L 249.125 129.476562 C 249.582031 129.019531 249.582031 128.277344 249.125 127.820312 Z M 249.125 127.820312 " fill-opacity="1" fill-rule="nonzero"/></g><g clip-path="url(#9c6588823b)"><path fill="#ffffff" d="M 78.816406 304.238281 C 78.796875 304.269531 78.773438 304.300781 78.746094 304.328125 L 76.972656 306.101562 C 77.320312 305.75 77.152344 304.949219 76.597656 303.953125 C 76.101562 303.0625 75.289062 302.007812 74.269531 300.984375 C 73.246094 299.964844 72.191406 299.15625 71.300781 298.65625 C 70.304688 298.101562 69.503906 297.929688 69.152344 298.28125 L 70.925781 296.507812 C 71.59375 295.839844 73.886719 297.050781 76.042969 299.210938 C 78.113281 301.28125 79.3125 303.472656 78.816406 304.238281 Z M 252.5 129.578125 C 252.070312 130.960938 251.316406 132.261719 250.222656 133.355469 C 249.128906 134.445312 247.828125 135.203125 246.449219 135.628906 C 243.296875 136.601562 239.726562 135.847656 237.234375 133.355469 C 236.832031 132.949219 236.589844 132.445312 236.511719 131.921875 C 236.390625 131.132812 236.628906 130.300781 237.234375 129.695312 L 246.566406 120.363281 C 247.171875 119.757812 248.003906 119.519531 248.789062 119.640625 C 249.316406 119.722656 249.820312 119.960938 250.222656 120.363281 C 252.71875 122.859375 253.472656 126.429688 252.5 129.578125 Z M 246.347656 132.253906 L 249.125 129.476562 C 249.582031 129.019531 249.582031 128.277344 249.125 127.820312 L 247.632812 126.328125 C 247.175781 125.871094 246.433594 125.871094 245.972656 126.328125 L 243.199219 129.105469 C 242.742188 129.5625 242.742188 130.304688 243.199219 130.761719 L 244.691406 132.253906 C 245.148438 132.710938 245.890625 132.710938 246.347656 132.253906 Z M 206.652344 174.238281 L 207.746094 175.328125 L 207.925781 175.511719 L 210.734375 172.707031 C 211.109375 172.328125 211.722656 172.328125 212.101562 172.707031 C 212.476562 173.082031 212.476562 173.695312 212.101562 174.074219 L 202.097656 184.078125 C 202.097656 184.078125 202.097656 184.078125 202.09375 184.078125 L 195.582031 190.59375 L 160.847656 225.324219 C 160.917969 226.527344 160.5 227.753906 159.578125 228.675781 C 158.660156 229.59375 157.433594 230.015625 156.230469 229.945312 L 152.523438 233.652344 C 152.59375 234.855469 152.171875 236.082031 151.253906 237 C 150.332031 237.921875 149.105469 238.339844 147.902344 238.269531 L 146.273438 239.902344 C 146.082031 240.089844 145.835938 240.183594 145.589844 240.183594 C 145.339844 240.183594 145.09375 240.089844 144.902344 239.902344 C 144.527344 239.523438 144.527344 238.910156 144.902344 238.535156 L 145.832031 237.609375 C 145.757812 237.5625 145.683594 237.511719 145.613281 237.460938 C 145.421875 237.324219 145.238281 237.171875 145.066406 237 C 143.59375 235.527344 143.394531 233.265625 144.460938 231.578125 L 140.160156 227.273438 L 140.046875 227.164062 L 133.085938 234.121094 L 135.585938 236.621094 C 137.277344 235.554688 139.539062 235.753906 141.011719 237.226562 C 141.992188 238.207031 142.40625 239.535156 142.261719 240.8125 C 142.152344 241.761719 141.738281 242.683594 141.011719 243.410156 C 140.28125 244.140625 139.359375 244.554688 138.410156 244.664062 C 137.132812 244.804688 135.804688 244.390625 134.824219 243.410156 C 133.351562 241.9375 133.152344 239.679688 134.21875 237.988281 L 131.71875 235.488281 L 124.761719 242.445312 L 127.261719 244.945312 C 128.949219 243.878906 131.210938 244.078125 132.683594 245.550781 C 133.664062 246.53125 134.078125 247.859375 133.933594 249.136719 C 133.828125 250.085938 133.414062 251.007812 132.683594 251.738281 C 131.957031 252.464844 131.035156 252.882812 130.085938 252.988281 C 128.804688 253.132812 127.476562 252.71875 126.5 251.738281 C 125.023438 250.265625 124.824219 248.003906 125.894531 246.3125 L 123.394531 243.8125 L 116.433594 250.773438 L 118.933594 253.273438 C 120.625 252.203125 122.886719 252.40625 124.359375 253.878906 C 125.339844 254.855469 125.753906 256.1875 125.609375 257.464844 C 125.5 258.414062 125.085938 259.335938 124.359375 260.0625 C 123.628906 260.792969 122.707031 261.207031 121.757812 261.3125 C 120.480469 261.457031 119.152344 261.042969 118.171875 260.0625 C 116.699219 258.589844 116.5 256.328125 117.566406 254.640625 L 115.066406 252.140625 L 108.109375 259.097656 L 110.609375 261.597656 C 112.296875 260.53125 114.558594 260.730469 116.03125 262.203125 C 117.011719 263.183594 117.425781 264.511719 117.28125 265.789062 C 117.175781 266.738281 116.761719 267.660156 116.03125 268.390625 C 115.304688 269.117188 114.382812 269.535156 113.433594 269.640625 C 112.589844 269.734375 111.730469 269.585938 110.957031 269.195312 L 88.582031 291.574219 C 88.390625 291.765625 88.144531 291.859375 87.898438 291.859375 C 87.648438 291.859375 87.402344 291.765625 87.210938 291.574219 C 86.835938 291.199219 86.835938 290.585938 87.210938 290.207031 L 88.128906 289.292969 L 86.980469 288.144531 C 85.371094 288.875 83.40625 288.582031 82.082031 287.257812 C 81.75 286.925781 81.484375 286.550781 81.28125 286.152344 C 80.441406 284.511719 80.707031 282.445312 82.082031 281.070312 C 83.457031 279.695312 85.519531 279.429688 87.164062 280.269531 C 87.5625 280.472656 87.9375 280.738281 88.269531 281.070312 C 89.882812 282.683594 89.96875 285.246094 88.535156 286.964844 L 89.496094 287.925781 L 96.859375 280.5625 L 95.832031 279.535156 C 94.144531 280.601562 91.882812 280.402344 90.410156 278.929688 C 90.078125 278.597656 89.8125 278.222656 89.609375 277.828125 C 88.765625 276.183594 89.03125 274.121094 90.410156 272.742188 C 91.785156 271.367188 93.847656 271.101562 95.492188 271.941406 C 95.890625 272.144531 96.261719 272.410156 96.59375 272.742188 C 98.070312 274.21875 98.269531 276.476562 97.199219 278.167969 L 98.226562 279.195312 L 109.46875 267.953125 C 108.351562 266.492188 108.273438 264.496094 109.242188 262.964844 L 106.855469 260.578125 L 106.742188 260.46875 L 103.699219 263.507812 C 103.511719 263.699219 103.265625 263.792969 103.015625 263.792969 C 102.769531 263.792969 102.523438 263.695312 102.332031 263.507812 C 101.957031 263.128906 101.957031 262.519531 102.332031 262.140625 L 106.058594 258.417969 C 106.058594 258.417969 106.058594 258.417969 106.058594 258.414062 L 114.382812 250.089844 C 114.386719 250.089844 114.386719 250.089844 114.386719 250.089844 L 122.710938 241.765625 C 122.710938 241.765625 122.710938 241.761719 122.710938 241.761719 L 170.859375 193.613281 C 171.238281 193.234375 171.851562 193.234375 172.226562 193.613281 C 172.605469 193.992188 172.605469 194.601562 172.226562 194.980469 L 166.390625 200.816406 L 168.890625 203.316406 C 170.582031 202.246094 172.84375 202.449219 174.316406 203.921875 C 175.292969 204.902344 175.710938 206.230469 175.566406 207.507812 C 175.550781 207.652344 175.523438 207.800781 175.492188 207.945312 L 193.53125 189.90625 L 193.347656 189.726562 L 192.253906 188.632812 C 191.523438 188.867188 190.691406 188.703125 190.113281 188.121094 C 189.285156 187.296875 189.285156 185.953125 190.113281 185.125 C 190.941406 184.296875 192.285156 184.296875 193.113281 185.125 C 193.691406 185.703125 193.855469 186.535156 193.621094 187.265625 L 194.714844 188.359375 L 194.898438 188.539062 L 200.046875 183.394531 L 199.863281 183.210938 L 198.769531 182.121094 C 198.039062 182.351562 197.207031 182.1875 196.628906 181.609375 C 195.800781 180.78125 195.800781 179.4375 196.628906 178.609375 C 197.457031 177.78125 198.800781 177.78125 199.628906 178.609375 C 200.207031 179.1875 200.371094 180.019531 200.140625 180.753906 L 201.414062 182.027344 L 206.558594 176.878906 L 205.285156 175.605469 C 204.554688 175.835938 203.722656 175.671875 203.144531 175.09375 C 202.316406 174.265625 202.316406 172.921875 203.144531 172.09375 C 203.972656 171.265625 205.3125 171.265625 206.144531 172.09375 C 206.722656 172.675781 206.886719 173.507812 206.652344 174.238281 Z M 165.023438 202.183594 L 158.066406 209.144531 L 158.179688 209.257812 L 160.566406 211.640625 C 162.253906 210.574219 164.515625 210.773438 165.988281 212.246094 C 166.96875 213.226562 167.382812 214.554688 167.238281 215.832031 C 167.222656 215.980469 167.199219 216.125 167.167969 216.273438 L 172.152344 211.285156 C 172.007812 211.316406 171.863281 211.34375 171.714844 211.359375 C 170.4375 211.503906 169.109375 211.085938 168.128906 210.109375 C 166.65625 208.632812 166.457031 206.375 167.523438 204.683594 Z M 154.15625 229.28125 C 154.082031 229.234375 154.011719 229.183594 153.9375 229.132812 C 153.75 228.996094 153.5625 228.847656 153.394531 228.675781 C 151.917969 227.203125 151.71875 224.941406 152.789062 223.25 L 148.484375 218.949219 L 148.371094 218.835938 L 141.414062 225.796875 L 145.828125 230.210938 C 147.519531 229.144531 149.777344 229.34375 151.253906 230.816406 C 151.421875 230.988281 151.574219 231.171875 151.710938 231.363281 C 151.761719 231.433594 151.8125 231.507812 151.859375 231.578125 Z M 160.1875 223.253906 L 163.828125 219.609375 C 163.683594 219.644531 163.535156 219.667969 163.390625 219.683594 C 162.113281 219.828125 160.78125 219.414062 159.804688 218.433594 C 158.332031 216.960938 158.132812 214.699219 159.199219 213.007812 L 156.8125 210.621094 L 156.699219 210.511719 L 149.738281 217.46875 L 149.851562 217.582031 L 154.15625 221.882812 C 155.847656 220.816406 158.105469 221.015625 159.578125 222.488281 C 159.75 222.660156 159.902344 222.84375 160.039062 223.035156 C 160.089844 223.109375 160.140625 223.179688 160.1875 223.253906 Z M 160.1875 223.253906 " fill-opacity="1" fill-rule="nonzero"/></g><g fill="#ffffff" fill-opacity="1"><g transform="translate(68.260113, 167.231635)"><g><path d="M 2.375 -8.859375 L 1.328125 -4.984375 L -31.625 -13.8125 L -30.578125 -17.6875 Z M 2.375 -8.859375 "/></g></g></g><g fill="#ffffff" fill-opacity="1"><g transform="translate(70.560218, 155.650313)"><g><path d="M 1.796875 -4.109375 L -21.765625 -14.453125 L -20.3125 -17.75 L -16.625 -16.125 L -16.3125 -16.53125 C -17.34375 -17.925781 -17.957031 -19.390625 -18.15625 -20.921875 C -18.351562 -22.453125 -18.066406 -24.097656 -17.296875 -25.859375 C -16.046875 -28.691406 -14.414062 -30.425781 -12.40625 -31.0625 C -10.40625 -31.695312 -7.90625 -31.359375 -4.90625 -30.046875 L 10.265625 -23.390625 L 8.734375 -19.921875 L -6.34375 -26.53125 C -7.769531 -27.15625 -8.992188 -27.472656 -10.015625 -27.484375 C -11.035156 -27.492188 -11.910156 -27.207031 -12.640625 -26.625 C -13.367188 -26.039062 -14.003906 -25.128906 -14.546875 -23.890625 C -15.472656 -21.753906 -15.519531 -19.726562 -14.6875 -17.8125 C -13.851562 -15.894531 -11.878906 -14.25 -8.765625 -12.875 L 3.328125 -7.578125 Z M 1.796875 -4.109375 "/></g></g></g><g fill="#ffffff" fill-opacity="1"><g transform="translate(81.877893, 130.990448)"><g/></g></g><g fill="#ffffff" fill-opacity="1"><g transform="translate(86.807876, 122.459165)"><g><path d="M 7.5 -16.21875 L 10.390625 -15.515625 C 10.503906 -14.640625 10.378906 -13.722656 10.015625 -12.765625 C 9.648438 -11.804688 9.109375 -10.867188 8.390625 -9.953125 C 5.359375 -6.078125 1.890625 -5.671875 -2.015625 -8.734375 L -14.34375 -18.375 L -17.09375 -14.859375 L -19.546875 -16.78125 L -16.796875 -20.296875 L -21.09375 -23.65625 L -19.234375 -27.0625 L -14.4375 -23.3125 L -9.34375 -29.828125 L -6.890625 -27.90625 L -11.984375 -21.390625 L 0.046875 -11.984375 C 2.367188 -10.160156 4.316406 -10.253906 5.890625 -12.265625 C 6.753906 -13.367188 7.191406 -14.5625 7.203125 -15.84375 Z M 7.5 -16.21875 "/></g></g></g><g fill="#ffffff" fill-opacity="1"><g transform="translate(96.5866, 108.872747)"><g><path d="M 3.3125 -3.015625 L -20.921875 -29.71875 L -18.109375 -32.265625 L -8.71875 -21.90625 L -8.296875 -22.171875 C -8.828125 -25.492188 -7.804688 -28.320312 -5.234375 -30.65625 C -2.941406 -32.738281 -0.753906 -33.660156 1.328125 -33.421875 C 3.421875 -33.191406 5.566406 -31.863281 7.765625 -29.4375 L 18.90625 -17.171875 L 16.109375 -14.625 L 5.03125 -26.8125 C 3.988281 -27.96875 3.003906 -28.757812 2.078125 -29.1875 C 1.148438 -29.613281 0.238281 -29.703125 -0.65625 -29.453125 C -1.5625 -29.210938 -2.515625 -28.640625 -3.515625 -27.734375 C -5.242188 -26.160156 -6.128906 -24.335938 -6.171875 -22.265625 C -6.210938 -20.203125 -5.070312 -17.894531 -2.75 -15.34375 L 6.125 -5.5625 Z M 3.3125 -3.015625 "/></g></g></g><g fill="#ffffff" fill-opacity="1"><g transform="translate(115.893069, 91.039219)"><g><path d="M 14.84375 -22.890625 L -0.296875 -13.765625 C 1.410156 -11.160156 3.238281 -9.59375 5.1875 -9.0625 C 7.132812 -8.53125 9.140625 -8.882812 11.203125 -10.125 C 12.773438 -11.0625 13.867188 -12.097656 14.484375 -13.234375 C 15.109375 -14.378906 15.34375 -15.710938 15.1875 -17.234375 L 15.609375 -17.484375 L 18.46875 -17.5 C 18.789062 -15.519531 18.519531 -13.648438 17.65625 -11.890625 C 16.800781 -10.128906 15.234375 -8.566406 12.953125 -7.203125 C 10.816406 -5.921875 8.726562 -5.238281 6.6875 -5.15625 C 4.65625 -5.082031 2.710938 -5.648438 0.859375 -6.859375 C -0.984375 -8.066406 -2.664062 -9.941406 -4.1875 -12.484375 C -5.695312 -14.984375 -6.53125 -17.351562 -6.6875 -19.59375 C -6.851562 -21.84375 -6.429688 -23.84375 -5.421875 -25.59375 C -4.410156 -27.351562 -2.929688 -28.816406 -0.984375 -29.984375 C 1.847656 -31.679688 4.53125 -32.207031 7.0625 -31.5625 C 9.601562 -30.925781 11.820312 -29.050781 13.71875 -25.9375 C 14.457031 -24.695312 14.929688 -23.847656 15.140625 -23.390625 Z M 10.484375 -24 C 9.035156 -26.300781 7.5 -27.6875 5.875 -28.15625 C 4.25 -28.632812 2.515625 -28.320312 0.671875 -27.21875 C -1.253906 -26.0625 -2.445312 -24.613281 -2.90625 -22.875 C -3.375 -21.144531 -3.03125 -19.046875 -1.875 -16.578125 Z M 10.484375 -24 "/></g></g></g><g fill="#ffffff" fill-opacity="1"><g transform="translate(137.580351, 78.457651)"><g/></g></g><g fill="#ffffff" fill-opacity="1"><g transform="translate(146.217291, 74.206607)"><g><path d="M 11.40625 -2.8125 C 9.851562 -2.351562 8.351562 -2.132812 6.90625 -2.15625 C 5.46875 -2.1875 4.1875 -2.425781 3.0625 -2.875 C 1.945312 -3.332031 1.078125 -3.957031 0.453125 -4.75 L 1.9375 -7.609375 L 2.421875 -7.75 C 3.566406 -6.769531 4.796875 -6.132812 6.109375 -5.84375 C 7.429688 -5.550781 8.878906 -5.632812 10.453125 -6.09375 C 12.273438 -6.625 13.554688 -7.378906 14.296875 -8.359375 C 15.035156 -9.335938 15.222656 -10.460938 14.859375 -11.734375 C 14.578125 -12.703125 14.054688 -13.421875 13.296875 -13.890625 C 12.535156 -14.359375 11.460938 -14.566406 10.078125 -14.515625 L 5.625 -14.3125 C 3.238281 -14.207031 1.363281 -14.585938 0 -15.453125 C -1.351562 -16.328125 -2.28125 -17.625 -2.78125 -19.34375 C -3.164062 -20.675781 -3.160156 -21.9375 -2.765625 -23.125 C -2.367188 -24.320312 -1.601562 -25.375 -0.46875 -26.28125 C 0.65625 -27.195312 2.109375 -27.914062 3.890625 -28.4375 C 6.160156 -29.09375 8.039062 -29.289062 9.53125 -29.03125 C 11.03125 -28.78125 12.3125 -28.203125 13.375 -27.296875 L 11.890625 -24.671875 L 11.453125 -24.546875 C 10.390625 -25.222656 9.332031 -25.625 8.28125 -25.75 C 7.226562 -25.882812 6.0625 -25.765625 4.78125 -25.390625 C 3.15625 -24.910156 1.992188 -24.253906 1.296875 -23.421875 C 0.597656 -22.597656 0.410156 -21.628906 0.734375 -20.515625 C 1.023438 -19.515625 1.566406 -18.796875 2.359375 -18.359375 C 3.148438 -17.929688 4.363281 -17.753906 6 -17.828125 L 10.375 -18.03125 C 12.664062 -18.144531 14.460938 -17.753906 15.765625 -16.859375 C 17.066406 -15.960938 17.976562 -14.625 18.5 -12.84375 C 18.914062 -11.394531 18.941406 -10.015625 18.578125 -8.703125 C 18.210938 -7.398438 17.425781 -6.238281 16.21875 -5.21875 C 15.007812 -4.195312 13.40625 -3.394531 11.40625 -2.8125 Z M 11.40625 -2.8125 "/></g></g></g><g fill="#ffffff" fill-opacity="1"><g transform="translate(165.92089, 67.895715)"><g><path d="M 4.46875 -0.4375 L 0.90625 -36.328125 L 4.671875 -36.703125 L 6.0625 -22.78125 L 6.546875 -22.734375 C 8.097656 -25.734375 10.601562 -27.40625 14.0625 -27.75 C 17.132812 -28.050781 19.441406 -27.484375 20.984375 -26.046875 C 22.523438 -24.609375 23.457031 -22.257812 23.78125 -19 L 25.421875 -2.515625 L 21.640625 -2.140625 L 20.015625 -18.53125 C 19.859375 -20.070312 19.535156 -21.289062 19.046875 -22.1875 C 18.554688 -23.09375 17.875 -23.71875 17 -24.0625 C 16.132812 -24.40625 15.03125 -24.507812 13.6875 -24.375 C 11.363281 -24.144531 9.570312 -23.207031 8.3125 -21.5625 C 7.050781 -19.925781 6.59375 -17.390625 6.9375 -13.953125 L 8.234375 -0.8125 Z M 4.46875 -0.4375 "/></g></g></g><g fill="#ffffff" fill-opacity="1"><g transform="translate(191.951833, 64.980953)"><g><path d="M 12.609375 1.8125 C 9.710938 1.507812 7.632812 0.519531 6.375 -1.15625 C 5.113281 -2.84375 4.640625 -5.160156 4.953125 -8.109375 L 6.734375 -25.171875 L 10.515625 -24.78125 L 8.75 -7.8125 C 8.34375 -3.9375 9.960938 -1.804688 13.609375 -1.421875 C 15.929688 -1.179688 17.84375 -1.742188 19.34375 -3.109375 C 20.851562 -4.484375 21.785156 -6.878906 22.140625 -10.296875 L 23.515625 -23.421875 L 27.28125 -23.015625 L 24.609375 2.578125 L 21.046875 2.203125 L 21.46875 -1.8125 L 21 -2 C 19.945312 -0.507812 18.765625 0.546875 17.453125 1.171875 C 16.148438 1.796875 14.535156 2.007812 12.609375 1.8125 Z M 12.609375 1.8125 "/></g></g></g><g fill="#ffffff" fill-opacity="1"><g transform="translate(218.171435, 67.934565)"><g><path d="M 22.03125 -28.53125 C 20.582031 -28.925781 19.382812 -28.847656 18.4375 -28.296875 C 17.488281 -27.742188 16.820312 -26.78125 16.4375 -25.40625 C 16.195312 -24.53125 16.054688 -23.488281 16.015625 -22.28125 L 23.90625 -20.109375 L 23.078125 -17.09375 L 15.1875 -19.265625 L 9.203125 2.53125 L 5.53125 1.515625 L 11.515625 -20.28125 L 7.203125 -21.46875 L 8.03125 -24.484375 L 12.34375 -23.296875 C 12.375 -24.441406 12.523438 -25.515625 12.796875 -26.515625 C 13.234375 -28.117188 13.941406 -29.375 14.921875 -30.28125 C 15.910156 -31.195312 17.085938 -31.757812 18.453125 -31.96875 C 19.816406 -32.175781 21.296875 -32.0625 22.890625 -31.625 C 25.367188 -30.945312 27.117188 -29.894531 28.140625 -28.46875 L 26.015625 -26.265625 L 25.53125 -26.3125 C 24.757812 -27.363281 23.59375 -28.101562 22.03125 -28.53125 Z M 22.03125 -28.53125 "/></g></g></g><g fill="#ffffff" fill-opacity="1"><g transform="translate(233.780656, 72.078046)"><g><path d="M 25.453125 -25.515625 C 24.066406 -26.097656 22.867188 -26.175781 21.859375 -25.75 C 20.847656 -25.332031 20.066406 -24.460938 19.515625 -23.140625 C 19.171875 -22.304688 18.898438 -21.285156 18.703125 -20.078125 L 26.265625 -16.9375 L 25.0625 -14.0625 L 17.5 -17.203125 L 8.8125 3.671875 L 5.296875 2.203125 L 13.984375 -18.671875 L 9.859375 -20.390625 L 11.0625 -23.265625 L 15.1875 -21.546875 C 15.351562 -22.679688 15.632812 -23.726562 16.03125 -24.6875 C 16.675781 -26.21875 17.539062 -27.375 18.625 -28.15625 C 19.71875 -28.945312 20.953125 -29.359375 22.328125 -29.390625 C 23.710938 -29.421875 25.164062 -29.117188 26.6875 -28.484375 C 29.0625 -27.492188 30.671875 -26.226562 31.515625 -24.6875 L 29.125 -22.78125 L 28.625 -22.875 C 28.007812 -24.007812 26.953125 -24.890625 25.453125 -25.515625 Z M 25.453125 -25.515625 "/></g></g></g><g fill="#ffffff" fill-opacity="1"><g transform="translate(248.912254, 78.390986)"><g><path d="M 8.71875 5.375 C 7.132812 4.5 6.132812 3.359375 5.71875 1.953125 C 5.3125 0.546875 5.601562 -1.050781 6.59375 -2.84375 L 21.328125 -29.421875 L 24.640625 -27.578125 L 10.046875 -1.234375 C 9.523438 -0.296875 9.328125 0.472656 9.453125 1.078125 C 9.585938 1.691406 10.039062 2.210938 10.8125 2.640625 C 11.28125 2.898438 11.785156 3.085938 12.328125 3.203125 L 12.5625 3.453125 L 11.515625 6.28125 C 11.171875 6.300781 10.75 6.226562 10.25 6.0625 C 9.75 5.894531 9.238281 5.664062 8.71875 5.375 Z M 8.71875 5.375 "/></g></g></g><g fill="#ffffff" fill-opacity="1"><g transform="translate(259.771577, 84.356303)"><g><path d="M 22.578125 -21.78125 C 21.910156 -22.238281 21.503906 -22.816406 21.359375 -23.515625 C 21.222656 -24.210938 21.378906 -24.882812 21.828125 -25.53125 C 22.253906 -26.164062 22.820312 -26.550781 23.53125 -26.6875 C 24.238281 -26.820312 24.925781 -26.660156 25.59375 -26.203125 C 26.257812 -25.742188 26.660156 -25.160156 26.796875 -24.453125 C 26.929688 -23.753906 26.785156 -23.085938 26.359375 -22.453125 C 25.910156 -21.804688 25.332031 -21.414062 24.625 -21.28125 C 23.925781 -21.15625 23.242188 -21.320312 22.578125 -21.78125 Z M 6.84375 4.671875 L 3.703125 2.53125 L 18.203125 -18.734375 L 21.34375 -16.59375 Z M 6.84375 4.671875 "/></g></g></g><g fill="#ffffff" fill-opacity="1"><g transform="translate(268.72302, 89.490785)"><g><path d="M 3.296875 3.03125 L 20.734375 -15.890625 L 23.390625 -13.4375 L 20.65625 -10.484375 L 20.9375 -10.0625 C 22.59375 -10.582031 24.175781 -10.679688 25.6875 -10.359375 C 27.195312 -10.046875 28.660156 -9.238281 30.078125 -7.9375 C 32.347656 -5.84375 33.457031 -3.742188 33.40625 -1.640625 C 33.363281 0.460938 32.226562 2.71875 30 5.125 L 18.78125 17.3125 L 16 14.734375 L 27.15625 2.625 C 28.207031 1.476562 28.90625 0.425781 29.25 -0.53125 C 29.59375 -1.5 29.601562 -2.421875 29.28125 -3.296875 C 28.957031 -4.171875 28.300781 -5.066406 27.3125 -5.984375 C 25.601562 -7.554688 23.707031 -8.257812 21.625 -8.09375 C 19.539062 -7.9375 17.347656 -6.601562 15.046875 -4.09375 L 6.09375 5.609375 Z M 3.296875 3.03125 "/></g></g></g><g fill="#ffffff" fill-opacity="1"><g transform="translate(288.200194, 107.215757)"><g><path d="M -0.953125 17.15625 C -3.359375 13.875 -4.566406 11.082031 -4.578125 8.78125 C -4.597656 6.476562 -3.707031 4.664062 -1.90625 3.34375 C -0.738281 2.476562 0.445312 2.140625 1.65625 2.328125 C 2.863281 2.523438 4.113281 3.1875 5.40625 4.3125 L 5.796875 4.03125 C 5.691406 3.125 5.765625 2.332031 6.015625 1.65625 C 6.273438 0.976562 6.742188 0.390625 7.421875 -0.109375 C 8.222656 -0.691406 9.054688 -0.914062 9.921875 -0.78125 C 10.796875 -0.644531 11.734375 -0.175781 12.734375 0.625 L 13.125 0.34375 C 12.664062 -2.789062 13.78125 -5.34375 16.46875 -7.3125 C 17.8125 -8.3125 19.238281 -8.882812 20.75 -9.03125 C 22.257812 -9.1875 23.722656 -8.910156 25.140625 -8.203125 C 26.566406 -7.503906 27.835938 -6.394531 28.953125 -4.875 C 30.234375 -3.125 30.914062 -1.382812 31 0.34375 C 31.8125 0.414062 32.578125 0.359375 33.296875 0.171875 C 34.015625 -0.015625 34.753906 -0.335938 35.515625 -0.796875 L 36.03125 -0.578125 L 37.28125 2.375 C 36.144531 3.019531 35.023438 3.359375 33.921875 3.390625 C 32.816406 3.421875 31.6875 3.144531 30.53125 2.5625 L 30.140625 2.859375 C 30.109375 3.910156 29.851562 4.851562 29.375 5.6875 C 28.894531 6.53125 28.1875 7.296875 27.25 7.984375 C 25.945312 8.941406 24.539062 9.488281 23.03125 9.625 C 21.53125 9.769531 20.0625 9.488281 18.625 8.78125 C 17.195312 8.082031 15.9375 6.984375 14.84375 5.484375 C 14.71875 5.304688 14.5 4.984375 14.1875 4.515625 C 13.851562 3.992188 13.597656 3.613281 13.421875 3.375 C 12.941406 2.726562 12.390625 2.332031 11.765625 2.1875 C 11.140625 2.050781 10.5625 2.175781 10.03125 2.5625 C 9.375 3.039062 9.046875 3.597656 9.046875 4.234375 C 9.054688 4.878906 9.394531 5.703125 10.0625 6.703125 L 13.5 11.734375 C 14.976562 13.910156 15.640625 15.84375 15.484375 17.53125 C 15.335938 19.21875 14.425781 20.675781 12.75 21.90625 C 11.507812 22.8125 10.144531 23.296875 8.65625 23.359375 C 7.164062 23.429688 5.59375 22.96875 3.9375 21.96875 C 2.289062 20.96875 0.660156 19.363281 -0.953125 17.15625 Z M 17.46875 3.546875 C 18.550781 5.015625 19.769531 5.867188 21.125 6.109375 C 22.488281 6.347656 23.859375 5.960938 25.234375 4.953125 C 26.660156 3.898438 27.46875 2.691406 27.65625 1.328125 C 27.84375 -0.0351562 27.394531 -1.457031 26.3125 -2.9375 C 25.226562 -4.414062 24.015625 -5.257812 22.671875 -5.46875 C 21.335938 -5.6875 19.945312 -5.265625 18.5 -4.203125 C 17.101562 -3.179688 16.3125 -2.003906 16.125 -0.671875 C 15.9375 0.660156 16.382812 2.066406 17.46875 3.546875 Z M 1.671875 15.21875 C 2.796875 16.738281 3.882812 17.859375 4.9375 18.578125 C 5.988281 19.304688 6.953125 19.675781 7.828125 19.6875 C 8.703125 19.707031 9.484375 19.46875 10.171875 18.96875 C 10.773438 18.519531 11.179688 18.035156 11.390625 17.515625 C 11.597656 17.003906 11.601562 16.425781 11.40625 15.78125 C 11.21875 15.132812 10.820312 14.351562 10.21875 13.4375 L 7.046875 8.609375 L 6.546875 7.9375 C 4.617188 5.363281 2.660156 4.804688 0.671875 6.265625 C -1.734375 8.035156 -1.398438 11.019531 1.671875 15.21875 Z M 1.671875 15.21875 "/></g></g></g><g fill="#ffffff" fill-opacity="1"><g transform="translate(302.174815, 126.807222)"><g/></g></g><g fill="#ffffff" fill-opacity="1"><g transform="translate(307.932695, 133.458093)"><g><path d="M 1.375 4.265625 L 25.875 -3.59375 L 26.96875 -0.15625 L 23.359375 1 L 23.421875 1.5 C 25.054688 1.894531 26.414062 2.566406 27.5 3.515625 C 28.582031 4.460938 29.382812 5.753906 29.90625 7.390625 C 30.519531 9.285156 30.632812 10.867188 30.25 12.140625 C 29.863281 13.410156 28.960938 14.597656 27.546875 15.703125 L 27.6875 16.15625 C 29.457031 16.519531 30.925781 17.191406 32.09375 18.171875 C 33.257812 19.160156 34.132812 20.5625 34.71875 22.375 C 35.519531 24.882812 35.441406 26.976562 34.484375 28.65625 C 33.523438 30.332031 31.648438 31.617188 28.859375 32.515625 L 12.15625 37.875 L 10.984375 34.25 L 27.609375 28.921875 C 29.378906 28.347656 30.566406 27.550781 31.171875 26.53125 C 31.773438 25.519531 31.8125 24.179688 31.28125 22.515625 C 30.65625 20.566406 29.4375 19.203125 27.625 18.421875 C 25.8125 17.640625 23.269531 17.769531 20 18.8125 L 7.34375 22.875 L 6.1875 19.265625 L 22.8125 13.9375 C 24.582031 13.363281 25.765625 12.566406 26.359375 11.546875 C 26.960938 10.523438 27 9.1875 26.46875 7.53125 C 25.84375 5.570312 24.644531 4.195312 22.875 3.40625 C 21.101562 2.613281 18.664062 2.710938 15.5625 3.703125 L 2.53125 7.890625 Z M 1.375 4.265625 "/></g></g></g><g fill="#ffffff" fill-opacity="1"><g transform="translate(319.538933, 171.411931)"><g><path d="M 0.234375 10.609375 C 0.0546875 8.085938 0.578125 6.070312 1.796875 4.5625 C 3.015625 3.0625 4.851562 2.226562 7.3125 2.0625 C 8.84375 1.957031 10.148438 2.179688 11.234375 2.734375 C 12.316406 3.296875 13.234375 4.210938 13.984375 5.484375 C 14.734375 6.765625 15.363281 8.453125 15.875 10.546875 C 16.300781 12.390625 16.742188 13.78125 17.203125 14.71875 C 17.660156 15.664062 18.140625 16.289062 18.640625 16.59375 C 19.140625 16.894531 19.753906 17.019531 20.484375 16.96875 C 21.648438 16.882812 22.515625 16.421875 23.078125 15.578125 C 23.648438 14.742188 23.875 13.441406 23.75 11.671875 C 23.632812 10.003906 23.210938 8.601562 22.484375 7.46875 C 21.765625 6.332031 20.738281 5.304688 19.40625 4.390625 L 19.359375 3.921875 L 21.875 1.890625 C 23.34375 2.878906 24.535156 4.1875 25.453125 5.8125 C 26.367188 7.4375 26.898438 9.316406 27.046875 11.453125 C 27.253906 14.472656 26.742188 16.75 25.515625 18.28125 C 24.285156 19.8125 22.5 20.65625 20.15625 20.8125 L 6.53125 21.734375 C 5.113281 21.828125 4.445312 22.476562 4.53125 23.6875 C 4.5625 24.082031 4.65625 24.46875 4.8125 24.84375 L 4.75 25.171875 L 2.140625 25.78125 C 1.929688 25.519531 1.757812 25.160156 1.625 24.703125 C 1.5 24.253906 1.421875 23.796875 1.390625 23.328125 C 1.296875 21.910156 1.535156 20.816406 2.109375 20.046875 C 2.679688 19.285156 3.5625 18.765625 4.75 18.484375 L 4.765625 17.984375 C 3.367188 17.347656 2.296875 16.429688 1.546875 15.234375 C 0.796875 14.035156 0.359375 12.492188 0.234375 10.609375 Z M 3.3125 11.25 C 3.414062 12.6875 3.828125 13.90625 4.546875 14.90625 C 5.273438 15.90625 6.253906 16.644531 7.484375 17.125 C 8.722656 17.601562 10.117188 17.789062 11.671875 17.6875 L 14.9375 17.46875 L 15.015625 17 C 14.578125 16.46875 14.191406 15.800781 13.859375 15 C 13.523438 14.195312 13.203125 13.0625 12.890625 11.59375 C 12.585938 10.125 12.195312 8.960938 11.71875 8.109375 C 11.238281 7.265625 10.664062 6.675781 10 6.34375 C 9.332031 6.007812 8.523438 5.875 7.578125 5.9375 C 6.078125 6.039062 4.960938 6.5625 4.234375 7.5 C 3.515625 8.4375 3.207031 9.6875 3.3125 11.25 Z M 3.3125 11.25 "/></g></g></g><g fill="#ffffff" fill-opacity="1"><g transform="translate(321.637664, 194.610872)"><g><path d="M -2.21875 13.171875 C -1.945312 11.109375 -1.21875 9.359375 -0.03125 7.921875 C 1.144531 6.492188 2.773438 5.460938 4.859375 4.828125 C 6.953125 4.203125 9.457031 4.082031 12.375 4.46875 C 15.289062 4.851562 17.675781 5.632812 19.53125 6.8125 C 21.394531 8 22.707031 9.46875 23.46875 11.21875 C 24.238281 12.976562 24.484375 14.929688 24.203125 17.078125 C 23.984375 18.773438 23.460938 20.257812 22.640625 21.53125 C 21.828125 22.8125 20.628906 23.84375 19.046875 24.625 L 19.078125 25.109375 L 32.84375 26.921875 L 32.34375 30.6875 L -3.40625 26 L -2.90625 22.234375 L 0.8125 22.71875 L 0.96875 22.25 C -0.1875 21.25 -1.070312 19.984375 -1.6875 18.453125 C -2.300781 16.921875 -2.476562 15.160156 -2.21875 13.171875 Z M 1 14.78125 C 0.6875 17.15625 1.253906 19.160156 2.703125 20.796875 C 4.148438 22.429688 6.53125 23.46875 9.84375 23.90625 C 13.164062 24.34375 15.734375 23.957031 17.546875 22.75 C 19.359375 21.539062 20.421875 19.75 20.734375 17.375 C 21.054688 14.925781 20.507812 12.929688 19.09375 11.390625 C 17.675781 9.859375 15.265625 8.867188 11.859375 8.421875 C 5.285156 7.554688 1.664062 9.675781 1 14.78125 Z M 1 14.78125 "/></g></g></g><g fill="#ffffff" fill-opacity="1"><g transform="translate(318.414841, 221.623013)"><g><path d="M -1.484375 4.234375 L 22.796875 12.78125 L 21.59375 16.1875 L 17.78125 14.84375 L 17.515625 15.25 C 18.640625 16.570312 19.359375 17.988281 19.671875 19.5 C 19.984375 21.019531 19.816406 22.679688 19.171875 24.484375 C 18.148438 27.398438 16.660156 29.25 14.703125 30.03125 C 12.753906 30.820312 10.234375 30.675781 7.140625 29.59375 L -8.484375 24.09375 L -7.21875 20.515625 L 8.3125 25.984375 C 9.78125 26.492188 11.023438 26.710938 12.046875 26.640625 C 13.066406 26.578125 13.914062 26.226562 14.59375 25.59375 C 15.269531 24.957031 15.832031 24.003906 16.28125 22.734375 C 17.050781 20.535156 16.953125 18.507812 15.984375 16.65625 C 15.015625 14.8125 12.921875 13.328125 9.703125 12.203125 L -2.75 7.8125 Z M -1.484375 4.234375 "/></g></g></g><g fill="#ffffff" fill-opacity="1"><g transform="translate(309.899083, 246.487682)"><g><path d="M -2.1875 27.203125 L 6.796875 11.96875 C 4.054688 10.488281 1.707031 9.976562 -0.25 10.4375 C -2.21875 10.894531 -3.8125 12.15625 -5.03125 14.21875 C -5.96875 15.800781 -6.441406 17.238281 -6.453125 18.53125 C -6.472656 19.832031 -6.039062 21.113281 -5.15625 22.375 L -5.40625 22.796875 L -7.9375 24.1875 C -9.164062 22.59375 -9.816406 20.816406 -9.890625 18.859375 C -9.960938 16.898438 -9.320312 14.773438 -7.96875 12.484375 C -6.707031 10.347656 -5.195312 8.757812 -3.4375 7.71875 C -1.6875 6.6875 0.289062 6.265625 2.5 6.453125 C 4.707031 6.640625 7.082031 7.488281 9.625 9 C 12.132812 10.476562 13.992188 12.164062 15.203125 14.0625 C 16.410156 15.957031 16.984375 17.914062 16.921875 19.9375 C 16.867188 21.96875 16.265625 23.960938 15.109375 25.921875 C 13.429688 28.753906 11.320312 30.492188 8.78125 31.140625 C 6.238281 31.785156 3.390625 31.179688 0.234375 29.328125 C -0.992188 28.597656 -1.804688 28.078125 -2.203125 27.765625 Z M 2.15625 26.09375 C 4.539062 27.4375 6.5625 27.929688 8.21875 27.578125 C 9.875 27.222656 11.25 26.125 12.34375 24.28125 C 13.488281 22.34375 13.851562 20.5 13.4375 18.75 C 13.019531 17 11.710938 15.3125 9.515625 13.6875 Z M 2.15625 26.09375 "/></g></g></g><g fill="#ffffff" fill-opacity="1"><g transform="translate(297.545355, 267.536079)"><g><path d="M -8.03125 8.578125 C -6.96875 7.347656 -5.820312 6.347656 -4.59375 5.578125 C -3.375 4.816406 -2.171875 4.320312 -0.984375 4.09375 C 0.191406 3.863281 1.257812 3.910156 2.21875 4.234375 L 2.515625 7.4375 L 2.203125 7.8125 C 0.679688 7.613281 -0.703125 7.75 -1.953125 8.21875 C -3.210938 8.695312 -4.378906 9.554688 -5.453125 10.796875 C -6.679688 12.222656 -7.34375 13.550781 -7.4375 14.78125 C -7.539062 16.007812 -7.085938 17.054688 -6.078125 17.921875 C -5.316406 18.585938 -4.488281 18.910156 -3.59375 18.890625 C -2.695312 18.867188 -1.6875 18.457031 -0.5625 17.65625 L 3.078125 15.078125 C 5.015625 13.679688 6.789062 12.976562 8.40625 12.96875 C 10.019531 12.957031 11.503906 13.539062 12.859375 14.71875 C 13.921875 15.625 14.609375 16.679688 14.921875 17.890625 C 15.242188 19.109375 15.175781 20.410156 14.71875 21.796875 C 14.269531 23.179688 13.4375 24.570312 12.21875 25.96875 C 10.675781 27.757812 9.207031 28.953125 7.8125 29.546875 C 6.425781 30.148438 5.035156 30.359375 3.640625 30.171875 L 3.453125 27.171875 L 3.765625 26.828125 C 5.023438 26.816406 6.128906 26.578125 7.078125 26.109375 C 8.035156 25.640625 8.945312 24.898438 9.8125 23.890625 C 10.925781 22.609375 11.546875 21.429688 11.671875 20.359375 C 11.804688 19.285156 11.4375 18.367188 10.5625 17.609375 C 9.769531 16.929688 8.925781 16.625 8.03125 16.6875 C 7.132812 16.757812 6.015625 17.265625 4.671875 18.203125 L 1.125 20.78125 C -0.738281 22.132812 -2.457031 22.78125 -4.03125 22.71875 C -5.613281 22.664062 -7.109375 22.035156 -8.515625 20.828125 C -9.648438 19.847656 -10.421875 18.710938 -10.828125 17.421875 C -11.242188 16.140625 -11.21875 14.738281 -10.75 13.21875 C -10.289062 11.695312 -9.382812 10.148438 -8.03125 8.578125 Z M -8.03125 8.578125 "/></g></g></g><g fill="#ffffff" fill-opacity="1"><g transform="translate(284.014512, 283.576343)"><g><path d="M -9.328125 7.140625 C -8.085938 6.109375 -6.796875 5.3125 -5.453125 4.75 C -4.117188 4.195312 -2.847656 3.898438 -1.640625 3.859375 C -0.441406 3.828125 0.601562 4.050781 1.5 4.53125 L 1.265625 7.75 L 0.890625 8.078125 C -0.566406 7.628906 -1.953125 7.535156 -3.265625 7.796875 C -4.585938 8.054688 -5.878906 8.710938 -7.140625 9.765625 C -8.597656 10.972656 -9.472656 12.175781 -9.765625 13.375 C -10.054688 14.570312 -9.78125 15.675781 -8.9375 16.6875 C -8.289062 17.46875 -7.519531 17.921875 -6.625 18.046875 C -5.738281 18.171875 -4.675781 17.929688 -3.4375 17.328125 L 0.578125 15.359375 C 2.710938 14.316406 4.578125 13.921875 6.171875 14.171875 C 7.773438 14.421875 9.148438 15.234375 10.296875 16.609375 C 11.179688 17.679688 11.679688 18.84375 11.796875 20.09375 C 11.910156 21.351562 11.628906 22.625 10.953125 23.90625 C 10.273438 25.195312 9.222656 26.4375 7.796875 27.625 C 5.984375 29.132812 4.34375 30.066406 2.875 30.421875 C 1.414062 30.785156 0.015625 30.769531 -1.328125 30.375 L -1.015625 27.375 L -0.65625 27.078125 C 0.582031 27.273438 1.707031 27.222656 2.71875 26.921875 C 3.726562 26.617188 4.742188 26.039062 5.765625 25.1875 C 7.078125 24.101562 7.882812 23.039062 8.1875 22 C 8.5 20.957031 8.285156 19.992188 7.546875 19.109375 C 6.878906 18.304688 6.09375 17.863281 5.1875 17.78125 C 4.289062 17.707031 3.109375 18.023438 1.640625 18.734375 L -2.28125 20.6875 C -4.351562 21.707031 -6.160156 22.066406 -7.703125 21.765625 C -9.253906 21.460938 -10.625 20.597656 -11.8125 19.171875 C -12.769531 18.015625 -13.34375 16.765625 -13.53125 15.421875 C -13.71875 14.078125 -13.460938 12.691406 -12.765625 11.265625 C -12.066406 9.847656 -10.921875 8.472656 -9.328125 7.140625 Z M -9.328125 7.140625 "/></g></g></g><g fill="#ffffff" fill-opacity="1"><g transform="translate(267.229066, 297.258463)"><g/></g></g></svg>