<svg xmlns="http://www.w3.org/2000/svg" xmlns:xlink="http://www.w3.org/1999/xlink" width="500" zoomAndPan="magnify" viewBox="0 0 375 374.999991" height="500" preserveAspectRatio="xMidYMid meet" version="1.0"><defs><g/><clipPath id="c5a0c9ad8f"><path d="M 132.796875 104.707031 L 259.546875 104.707031 L 259.546875 226.207031 L 132.796875 226.207031 Z M 132.796875 104.707031 " clip-rule="nonzero"/></clipPath></defs><rect x="-37.5" width="450" fill="#ffffff" y="-37.499999" height="449.999989" fill-opacity="1"/><rect x="-37.5" width="450" fill="#ffffff" y="-37.499999" height="449.999989" fill-opacity="1"/><rect x="-37.5" width="450" fill="#ebdfd4" y="-37.499999" height="449.999989" fill-opacity="1"/><g clip-path="url(#c5a0c9ad8f)"><path fill="#231f20" d="M 196.179688 104.707031 C 175.667969 104.707031 132.851562 149.3125 132.851562 204.335938 C 132.851562 206.957031 132.949219 209.554688 133.132812 212.125 C 136.472656 165.765625 169.144531 128.28125 189.867188 121.347656 L 196.179688 226.210938 L 202.472656 121.648438 C 221.449219 129.316406 255.691406 166.445312 259.210938 212.207031 C 259.402344 209.609375 259.503906 206.984375 259.503906 204.335938 C 259.503906 149.3125 213.230469 104.707031 196.179688 104.707031 " fill-opacity="1" fill-rule="nonzero"/></g><path fill="#231f20" d="M 177.644531 161.683594 C 177.644531 158.183594 180.476562 155.34375 183.976562 155.34375 L 208.382812 155.34375 C 211.878906 155.34375 214.714844 158.183594 214.714844 161.683594 C 214.714844 165.183594 211.878906 168.023438 208.382812 168.023438 L 183.976562 168.023438 C 180.476562 168.023438 177.644531 165.183594 177.644531 161.683594 " fill-opacity="1" fill-rule="nonzero"/><path fill="#231f20" d="M 177.644531 180.210938 C 177.644531 177.410156 179.910156 175.140625 182.710938 175.140625 L 209.648438 175.140625 C 212.445312 175.140625 214.714844 177.410156 214.714844 180.210938 C 214.714844 183.011719 212.445312 185.285156 209.648438 185.285156 L 182.710938 185.285156 C 179.910156 185.285156 177.644531 183.011719 177.644531 180.210938 " fill-opacity="1" fill-rule="nonzero"/><path fill="#231f20" d="M 177.644531 196.199219 C 177.644531 193.875 179.523438 191.992188 181.84375 191.992188 L 210.511719 191.992188 C 212.832031 191.992188 214.714844 193.875 214.714844 196.199219 C 214.714844 198.519531 212.832031 200.40625 210.511719 200.40625 L 181.84375 200.40625 C 179.523438 200.40625 177.644531 198.519531 177.644531 196.199219 " fill-opacity="1" fill-rule="nonzero"/><path fill="#231f20" d="M 177.644531 210.296875 C 177.644531 208.332031 179.234375 206.738281 181.199219 206.738281 L 211.15625 206.738281 C 213.121094 206.738281 214.714844 208.332031 214.714844 210.296875 C 214.714844 212.265625 213.121094 213.859375 211.15625 213.859375 L 181.199219 213.859375 C 179.234375 213.859375 177.644531 212.265625 177.644531 210.296875 " fill-opacity="1" fill-rule="nonzero"/><g fill="#000000" fill-opacity="1"><g transform="translate(162.914364, 260.159647)"><g><path d="M 2.242188 0 L 7.335938 0 L 7.335938 -10.027344 L 10.3125 -13.570312 L 17.726562 0 L 23.636719 0 L 13.695312 -17.402344 L 23.230469 -28.894531 L 17.15625 -28.894531 L 7.375 -16.710938 L 7.335938 -16.710938 L 7.335938 -28.894531 L 2.242188 -28.894531 Z M 2.242188 0 "/></g></g></g><g fill="#000000" fill-opacity="1"><g transform="translate(186.873095, 260.159647)"><g><path d="M 0.324219 0 L 5.5 0 L 7.5 -6.316406 L 18.585938 -6.316406 L 20.539062 0 L 25.757812 0 L 16.21875 -28.894531 L 9.863281 -28.894531 Z M 8.476562 -10.269531 L 13.042969 -24.535156 L 13.125 -24.535156 L 17.566406 -10.269531 Z M 8.476562 -10.269531 "/></g></g></g><g fill="#000000" fill-opacity="1"><g transform="translate(212.950631, 260.159647)"><g><path d="M 1.792969 -9.089844 L 14.550781 -9.089844 L 14.550781 -12.59375 L 1.792969 -12.59375 Z M 1.792969 -9.089844 "/></g></g></g><g fill="#000000" fill-opacity="1"><g transform="translate(151.441709, 317.159643)"><g><path d="M 2.242188 0 L 7.335938 0 L 7.335938 -10.027344 L 10.3125 -13.570312 L 17.726562 0 L 23.636719 0 L 13.695312 -17.402344 L 23.230469 -28.894531 L 17.15625 -28.894531 L 7.375 -16.710938 L 7.335938 -16.710938 L 7.335938 -28.894531 L 2.242188 -28.894531 Z M 2.242188 0 "/></g></g></g><g fill="#000000" fill-opacity="1"><g transform="translate(175.40044, 317.159643)"><g><path d="M 0.324219 0 L 5.5 0 L 7.5 -6.316406 L 18.585938 -6.316406 L 20.539062 0 L 25.757812 0 L 16.21875 -28.894531 L 9.863281 -28.894531 Z M 8.476562 -10.269531 L 13.042969 -24.535156 L 13.125 -24.535156 L 17.566406 -10.269531 Z M 8.476562 -10.269531 "/></g></g></g><g fill="#000000" fill-opacity="1"><g transform="translate(201.477976, 317.159643)"><g><path d="M 7.621094 0 L 14.347656 0 L 19.683594 -23.476562 L 19.765625 -23.476562 L 24.984375 0 L 31.75 0 L 39.003906 -28.894531 L 33.828125 -28.894531 L 28.40625 -5.09375 L 28.324219 -5.09375 L 22.984375 -28.894531 L 16.382812 -28.894531 L 11.085938 -5.09375 L 11.003906 -5.09375 L 5.5 -28.894531 L 0.324219 -28.894531 Z M 7.621094 0 "/></g></g></g><g fill="#000000" fill-opacity="1"><g transform="translate(108.349442, 282.708469)"><g><path d="M 6.859375 0.21875 C 5.867188 0.21875 4.984375 0.0859375 4.203125 -0.171875 C 3.421875 -0.441406 2.769531 -0.796875 2.25 -1.234375 C 1.726562 -1.671875 1.335938 -2.148438 1.078125 -2.671875 L 2.078125 -3.90625 L 2.359375 -3.90625 C 3.328125 -2.257812 4.828125 -1.4375 6.859375 -1.4375 C 8.046875 -1.4375 8.925781 -1.679688 9.5 -2.171875 C 10.070312 -2.671875 10.359375 -3.363281 10.359375 -4.25 C 10.359375 -4.757812 10.265625 -5.191406 10.078125 -5.546875 C 9.890625 -5.910156 9.578125 -6.21875 9.140625 -6.46875 C 8.703125 -6.726562 8.109375 -6.953125 7.359375 -7.140625 L 5.515625 -7.578125 C 4.148438 -7.910156 3.144531 -8.4375 2.5 -9.15625 C 1.851562 -9.875 1.53125 -10.785156 1.53125 -11.890625 C 1.53125 -12.671875 1.726562 -13.367188 2.125 -13.984375 C 2.53125 -14.597656 3.117188 -15.078125 3.890625 -15.421875 C 4.660156 -15.765625 5.582031 -15.9375 6.65625 -15.9375 C 7.84375 -15.9375 8.84375 -15.769531 9.65625 -15.4375 C 10.46875 -15.101562 11.117188 -14.601562 11.609375 -13.9375 L 10.703125 -12.71875 L 10.4375 -12.71875 C 9.976562 -13.269531 9.441406 -13.671875 8.828125 -13.921875 C 8.210938 -14.179688 7.488281 -14.3125 6.65625 -14.3125 C 5.570312 -14.3125 4.75 -14.097656 4.1875 -13.671875 C 3.632812 -13.253906 3.359375 -12.675781 3.359375 -11.9375 C 3.359375 -11.226562 3.5625 -10.660156 3.96875 -10.234375 C 4.382812 -9.816406 5.070312 -9.492188 6.03125 -9.265625 L 7.921875 -8.8125 C 9.441406 -8.457031 10.539062 -7.910156 11.21875 -7.171875 C 11.90625 -6.429688 12.25 -5.484375 12.25 -4.328125 C 12.25 -3.441406 12.050781 -2.65625 11.65625 -1.96875 C 11.257812 -1.289062 10.65625 -0.753906 9.84375 -0.359375 C 9.039062 0.0234375 8.046875 0.21875 6.859375 0.21875 Z M 6.859375 0.21875 "/></g></g></g><g fill="#000000" fill-opacity="1"><g transform="translate(121.807018, 282.708469)"><g><path d="M 8.015625 -1.875 L 8.578125 -0.625 C 8.296875 -0.34375 7.925781 -0.132812 7.46875 0 C 7.019531 0.144531 6.53125 0.21875 6 0.21875 C 3.726562 0.21875 2.59375 -0.925781 2.59375 -3.21875 L 2.59375 -10.40625 L 0.53125 -10.40625 L 0.53125 -11.84375 L 2.59375 -11.84375 L 2.59375 -14.359375 L 4.34375 -14.65625 L 4.34375 -11.84375 L 8.171875 -11.84375 L 8.171875 -10.40625 L 4.34375 -10.40625 L 4.34375 -3.390625 C 4.34375 -2.023438 4.9375 -1.34375 6.125 -1.34375 C 6.769531 -1.34375 7.320312 -1.519531 7.78125 -1.875 Z M 8.015625 -1.875 "/></g></g></g><g fill="#000000" fill-opacity="1"><g transform="translate(130.828853, 282.708469)"><g/></g></g><g fill="#000000" fill-opacity="1"><g transform="translate(136.220473, 282.708469)"><g><path d="M 4.21875 -15.703125 L 4.21875 -1.53125 L 11.78125 -1.53125 L 11.78125 0 L 2.375 0 L 2.375 -15.703125 Z M 4.21875 -15.703125 "/></g></g></g><g fill="#000000" fill-opacity="1"><g transform="translate(148.668463, 282.708469)"><g><path d="M 6.796875 0.21875 C 5.679688 0.21875 4.707031 -0.015625 3.875 -0.484375 C 3.050781 -0.953125 2.414062 -1.644531 1.96875 -2.5625 C 1.519531 -3.488281 1.296875 -4.609375 1.296875 -5.921875 C 1.296875 -7.234375 1.519531 -8.347656 1.96875 -9.265625 C 2.414062 -10.191406 3.050781 -10.890625 3.875 -11.359375 C 4.707031 -11.835938 5.679688 -12.078125 6.796875 -12.078125 C 7.910156 -12.078125 8.878906 -11.835938 9.703125 -11.359375 C 10.535156 -10.890625 11.175781 -10.191406 11.625 -9.265625 C 12.070312 -8.347656 12.296875 -7.234375 12.296875 -5.921875 C 12.296875 -4.609375 12.070312 -3.488281 11.625 -2.5625 C 11.175781 -1.644531 10.535156 -0.953125 9.703125 -0.484375 C 8.878906 -0.015625 7.910156 0.21875 6.796875 0.21875 Z M 6.796875 -1.34375 C 7.984375 -1.34375 8.890625 -1.710938 9.515625 -2.453125 C 10.140625 -3.203125 10.453125 -4.359375 10.453125 -5.921875 C 10.453125 -7.484375 10.140625 -8.632812 9.515625 -9.375 C 8.890625 -10.125 7.984375 -10.5 6.796875 -10.5 C 5.617188 -10.5 4.710938 -10.125 4.078125 -9.375 C 3.453125 -8.632812 3.140625 -7.484375 3.140625 -5.921875 C 3.140625 -4.359375 3.453125 -3.203125 4.078125 -2.453125 C 4.710938 -1.710938 5.617188 -1.34375 6.796875 -1.34375 Z M 6.796875 -1.34375 "/></g></g></g><g fill="#000000" fill-opacity="1"><g transform="translate(162.265657, 282.708469)"><g><path d="M 5.859375 0.21875 C 4.515625 0.21875 3.515625 -0.132812 2.859375 -0.84375 C 2.203125 -1.550781 1.875 -2.585938 1.875 -3.953125 L 1.875 -11.84375 L 3.625 -11.84375 L 3.625 -4 C 3.625 -2.195312 4.472656 -1.296875 6.171875 -1.296875 C 7.242188 -1.296875 8.085938 -1.644531 8.703125 -2.34375 C 9.328125 -3.050781 9.640625 -4.191406 9.640625 -5.765625 L 9.640625 -11.84375 L 11.390625 -11.84375 L 11.390625 0 L 9.75 0 L 9.75 -1.859375 L 9.515625 -1.90625 C 9.109375 -1.1875 8.617188 -0.648438 8.046875 -0.296875 C 7.484375 0.046875 6.753906 0.21875 5.859375 0.21875 Z M 5.859375 0.21875 "/></g></g></g><g fill="#000000" fill-opacity="1"><g transform="translate(175.723233, 282.708469)"><g><path d="M 2.9375 -14.140625 C 2.570312 -14.140625 2.269531 -14.253906 2.03125 -14.484375 C 1.800781 -14.710938 1.6875 -15.007812 1.6875 -15.375 C 1.6875 -15.726562 1.800781 -16.019531 2.03125 -16.25 C 2.269531 -16.488281 2.570312 -16.609375 2.9375 -16.609375 C 3.3125 -16.609375 3.613281 -16.488281 3.84375 -16.25 C 4.082031 -16.019531 4.203125 -15.726562 4.203125 -15.375 C 4.203125 -15.007812 4.082031 -14.710938 3.84375 -14.484375 C 3.613281 -14.253906 3.3125 -14.140625 2.9375 -14.140625 Z M 3.8125 0 L 2.0625 0 L 2.0625 -11.84375 L 3.8125 -11.84375 Z M 3.8125 0 "/></g></g></g><g fill="#000000" fill-opacity="1"><g transform="translate(181.598172, 282.708469)"><g><path d="M 5.40625 0.21875 C 4.65625 0.21875 3.960938 0.125 3.328125 -0.0625 C 2.703125 -0.257812 2.171875 -0.53125 1.734375 -0.875 C 1.296875 -1.21875 0.988281 -1.609375 0.8125 -2.046875 L 1.84375 -3.109375 L 2.0625 -3.109375 C 2.445312 -2.523438 2.910156 -2.082031 3.453125 -1.78125 C 4.003906 -1.488281 4.65625 -1.34375 5.40625 -1.34375 C 6.28125 -1.34375 6.941406 -1.507812 7.390625 -1.84375 C 7.847656 -2.1875 8.078125 -2.664062 8.078125 -3.28125 C 8.078125 -3.738281 7.9375 -4.117188 7.65625 -4.421875 C 7.382812 -4.734375 6.941406 -4.960938 6.328125 -5.109375 L 4.328125 -5.609375 C 3.265625 -5.867188 2.484375 -6.273438 1.984375 -6.828125 C 1.492188 -7.390625 1.25 -8.082031 1.25 -8.90625 C 1.25 -9.550781 1.414062 -10.109375 1.75 -10.578125 C 2.082031 -11.054688 2.554688 -11.425781 3.171875 -11.6875 C 3.796875 -11.945312 4.53125 -12.078125 5.375 -12.078125 C 6.46875 -12.078125 7.328125 -11.921875 7.953125 -11.609375 C 8.578125 -11.304688 9.066406 -10.882812 9.421875 -10.34375 L 8.4375 -9.375 L 8.21875 -9.375 C 7.84375 -9.8125 7.429688 -10.125 6.984375 -10.3125 C 6.535156 -10.507812 6 -10.609375 5.375 -10.609375 C 4.601562 -10.609375 4.007812 -10.46875 3.59375 -10.1875 C 3.175781 -9.914062 2.96875 -9.515625 2.96875 -8.984375 C 2.96875 -8.503906 3.113281 -8.113281 3.40625 -7.8125 C 3.695312 -7.519531 4.207031 -7.285156 4.9375 -7.109375 L 6.90625 -6.640625 C 7.9375 -6.398438 8.679688 -5.992188 9.140625 -5.421875 C 9.597656 -4.859375 9.828125 -4.148438 9.828125 -3.296875 C 9.828125 -2.597656 9.660156 -1.984375 9.328125 -1.453125 C 9.003906 -0.929688 8.507812 -0.519531 7.84375 -0.21875 C 7.175781 0.0703125 6.363281 0.21875 5.40625 0.21875 Z M 5.40625 0.21875 "/></g></g></g><g fill="#000000" fill-opacity="1"><g transform="translate(192.553257, 282.708469)"><g/></g></g><g fill="#000000" fill-opacity="1"><g transform="translate(197.944877, 282.708469)"><g><path d="M 11.609375 -15.703125 L 11.609375 -14.1875 L 4.21875 -14.1875 L 4.21875 -8.46875 L 10.859375 -8.46875 L 10.859375 -6.921875 L 4.21875 -6.921875 L 4.21875 0 L 2.375 0 L 2.375 -15.703125 Z M 11.609375 -15.703125 "/></g></g></g><g fill="#000000" fill-opacity="1"><g transform="translate(210.392866, 282.708469)"><g><path d="M 6.796875 0.21875 C 5.679688 0.21875 4.707031 -0.015625 3.875 -0.484375 C 3.050781 -0.953125 2.414062 -1.644531 1.96875 -2.5625 C 1.519531 -3.488281 1.296875 -4.609375 1.296875 -5.921875 C 1.296875 -7.234375 1.519531 -8.347656 1.96875 -9.265625 C 2.414062 -10.191406 3.050781 -10.890625 3.875 -11.359375 C 4.707031 -11.835938 5.679688 -12.078125 6.796875 -12.078125 C 7.910156 -12.078125 8.878906 -11.835938 9.703125 -11.359375 C 10.535156 -10.890625 11.175781 -10.191406 11.625 -9.265625 C 12.070312 -8.347656 12.296875 -7.234375 12.296875 -5.921875 C 12.296875 -4.609375 12.070312 -3.488281 11.625 -2.5625 C 11.175781 -1.644531 10.535156 -0.953125 9.703125 -0.484375 C 8.878906 -0.015625 7.910156 0.21875 6.796875 0.21875 Z M 6.796875 -1.34375 C 7.984375 -1.34375 8.890625 -1.710938 9.515625 -2.453125 C 10.140625 -3.203125 10.453125 -4.359375 10.453125 -5.921875 C 10.453125 -7.484375 10.140625 -8.632812 9.515625 -9.375 C 8.890625 -10.125 7.984375 -10.5 6.796875 -10.5 C 5.617188 -10.5 4.710938 -10.125 4.078125 -9.375 C 3.453125 -8.632812 3.140625 -7.484375 3.140625 -5.921875 C 3.140625 -4.359375 3.453125 -3.203125 4.078125 -2.453125 C 4.710938 -1.710938 5.617188 -1.34375 6.796875 -1.34375 Z M 6.796875 -1.34375 "/></g></g></g><g fill="#000000" fill-opacity="1"><g transform="translate(223.99006, 282.708469)"><g><path d="M 6.796875 0.21875 C 5.679688 0.21875 4.707031 -0.015625 3.875 -0.484375 C 3.050781 -0.953125 2.414062 -1.644531 1.96875 -2.5625 C 1.519531 -3.488281 1.296875 -4.609375 1.296875 -5.921875 C 1.296875 -7.234375 1.519531 -8.347656 1.96875 -9.265625 C 2.414062 -10.191406 3.050781 -10.890625 3.875 -11.359375 C 4.707031 -11.835938 5.679688 -12.078125 6.796875 -12.078125 C 7.910156 -12.078125 8.878906 -11.835938 9.703125 -11.359375 C 10.535156 -10.890625 11.175781 -10.191406 11.625 -9.265625 C 12.070312 -8.347656 12.296875 -7.234375 12.296875 -5.921875 C 12.296875 -4.609375 12.070312 -3.488281 11.625 -2.5625 C 11.175781 -1.644531 10.535156 -0.953125 9.703125 -0.484375 C 8.878906 -0.015625 7.910156 0.21875 6.796875 0.21875 Z M 6.796875 -1.34375 C 7.984375 -1.34375 8.890625 -1.710938 9.515625 -2.453125 C 10.140625 -3.203125 10.453125 -4.359375 10.453125 -5.921875 C 10.453125 -7.484375 10.140625 -8.632812 9.515625 -9.375 C 8.890625 -10.125 7.984375 -10.5 6.796875 -10.5 C 5.617188 -10.5 4.710938 -10.125 4.078125 -9.375 C 3.453125 -8.632812 3.140625 -7.484375 3.140625 -5.921875 C 3.140625 -4.359375 3.453125 -3.203125 4.078125 -2.453125 C 4.710938 -1.710938 5.617188 -1.34375 6.796875 -1.34375 Z M 6.796875 -1.34375 "/></g></g></g><g fill="#000000" fill-opacity="1"><g transform="translate(237.587254, 282.708469)"><g><path d="M 8.015625 -1.875 L 8.578125 -0.625 C 8.296875 -0.34375 7.925781 -0.132812 7.46875 0 C 7.019531 0.144531 6.53125 0.21875 6 0.21875 C 3.726562 0.21875 2.59375 -0.925781 2.59375 -3.21875 L 2.59375 -10.40625 L 0.53125 -10.40625 L 0.53125 -11.84375 L 2.59375 -11.84375 L 2.59375 -14.359375 L 4.34375 -14.65625 L 4.34375 -11.84375 L 8.171875 -11.84375 L 8.171875 -10.40625 L 4.34375 -10.40625 L 4.34375 -3.390625 C 4.34375 -2.023438 4.9375 -1.34375 6.125 -1.34375 C 6.769531 -1.34375 7.320312 -1.519531 7.78125 -1.875 Z M 8.015625 -1.875 "/></g></g></g><g fill="#000000" fill-opacity="1"><g transform="translate(246.609089, 282.708469)"><g><path d="M 7.875 0.21875 C 6.988281 0.21875 6.222656 0.0507812 5.578125 -0.28125 C 4.929688 -0.625 4.421875 -1.078125 4.046875 -1.640625 L 3.8125 -1.59375 L 3.8125 0 L 2.0625 0 L 2.0625 -16.609375 L 3.8125 -16.609375 L 3.8125 -10.078125 L 4.046875 -10.03125 C 4.941406 -11.394531 6.25 -12.078125 7.96875 -12.078125 C 8.945312 -12.078125 9.800781 -11.847656 10.53125 -11.390625 C 11.257812 -10.941406 11.828125 -10.253906 12.234375 -9.328125 C 12.640625 -8.410156 12.84375 -7.273438 12.84375 -5.921875 C 12.84375 -4.578125 12.628906 -3.441406 12.203125 -2.515625 C 11.773438 -1.597656 11.1875 -0.910156 10.4375 -0.453125 C 9.695312 -0.00390625 8.84375 0.21875 7.875 0.21875 Z M 7.453125 -1.34375 C 9.816406 -1.34375 11 -2.867188 11 -5.921875 C 11 -7.503906 10.691406 -8.660156 10.078125 -9.390625 C 9.460938 -10.128906 8.585938 -10.5 7.453125 -10.5 C 6.347656 -10.5 5.460938 -10.117188 4.796875 -9.359375 C 4.140625 -8.609375 3.8125 -7.460938 3.8125 -5.921875 C 3.8125 -4.378906 4.140625 -3.226562 4.796875 -2.46875 C 5.460938 -1.71875 6.347656 -1.34375 7.453125 -1.34375 Z M 7.453125 -1.34375 "/></g></g></g><g fill="#000000" fill-opacity="1"><g transform="translate(260.743297, 282.708469)"><g><path d="M 4.890625 0.21875 C 3.722656 0.21875 2.8125 -0.0820312 2.15625 -0.6875 C 1.5 -1.289062 1.171875 -2.160156 1.171875 -3.296875 C 1.171875 -3.992188 1.316406 -4.582031 1.609375 -5.0625 C 1.898438 -5.550781 2.347656 -5.945312 2.953125 -6.25 C 3.566406 -6.5625 4.363281 -6.800781 5.34375 -6.96875 C 6.195312 -7.101562 6.847656 -7.257812 7.296875 -7.4375 C 7.742188 -7.625 8.046875 -7.828125 8.203125 -8.046875 C 8.359375 -8.265625 8.4375 -8.546875 8.4375 -8.890625 C 8.4375 -9.421875 8.25 -9.828125 7.875 -10.109375 C 7.507812 -10.398438 6.921875 -10.546875 6.109375 -10.546875 C 5.335938 -10.546875 4.675781 -10.394531 4.125 -10.09375 C 3.582031 -9.800781 3.082031 -9.363281 2.625 -8.78125 L 2.40625 -8.78125 L 1.546875 -9.984375 C 2.046875 -10.628906 2.679688 -11.140625 3.453125 -11.515625 C 4.234375 -11.890625 5.117188 -12.078125 6.109375 -12.078125 C 7.503906 -12.078125 8.53125 -11.769531 9.1875 -11.15625 C 9.851562 -10.539062 10.1875 -9.691406 10.1875 -8.609375 L 10.1875 -2.328125 C 10.1875 -1.671875 10.460938 -1.34375 11.015625 -1.34375 C 11.203125 -1.34375 11.382812 -1.375 11.5625 -1.4375 L 11.703125 -1.390625 L 11.90625 -0.1875 C 11.78125 -0.09375 11.613281 -0.0234375 11.40625 0.015625 C 11.195312 0.0664062 10.976562 0.09375 10.75 0.09375 C 10.101562 0.09375 9.613281 -0.0507812 9.28125 -0.34375 C 8.945312 -0.632812 8.734375 -1.054688 8.640625 -1.609375 L 8.40625 -1.640625 C 8.070312 -1.015625 7.617188 -0.546875 7.046875 -0.234375 C 6.472656 0.0664062 5.753906 0.21875 4.890625 0.21875 Z M 5.28125 -1.171875 C 5.9375 -1.171875 6.503906 -1.320312 6.984375 -1.625 C 7.472656 -1.925781 7.84375 -2.351562 8.09375 -2.90625 C 8.351562 -3.457031 8.484375 -4.097656 8.484375 -4.828125 L 8.484375 -6.328125 L 8.28125 -6.375 C 8.019531 -6.1875 7.695312 -6.03125 7.3125 -5.90625 C 6.9375 -5.78125 6.40625 -5.664062 5.71875 -5.5625 C 5.03125 -5.46875 4.484375 -5.320312 4.078125 -5.125 C 3.679688 -4.9375 3.394531 -4.691406 3.21875 -4.390625 C 3.050781 -4.097656 2.96875 -3.734375 2.96875 -3.296875 C 2.96875 -2.597656 3.171875 -2.066406 3.578125 -1.703125 C 3.984375 -1.347656 4.550781 -1.171875 5.28125 -1.171875 Z M 5.28125 -1.171875 "/></g></g></g><g fill="#000000" fill-opacity="1"><g transform="translate(272.997962, 282.708469)"><g><path d="M 4.71875 0.21875 C 3.875 0.21875 3.210938 -0.015625 2.734375 -0.484375 C 2.253906 -0.960938 2.015625 -1.675781 2.015625 -2.625 L 2.015625 -16.609375 L 3.765625 -16.609375 L 3.765625 -2.734375 C 3.765625 -2.242188 3.859375 -1.890625 4.046875 -1.671875 C 4.242188 -1.453125 4.539062 -1.34375 4.9375 -1.34375 C 5.1875 -1.34375 5.4375 -1.382812 5.6875 -1.46875 L 5.828125 -1.421875 L 6.03125 -0.046875 C 5.90625 0.046875 5.722656 0.113281 5.484375 0.15625 C 5.242188 0.195312 4.988281 0.21875 4.71875 0.21875 Z M 4.71875 0.21875 "/></g></g></g><g fill="#000000" fill-opacity="1"><g transform="translate(279.442129, 282.708469)"><g><path d="M 4.71875 0.21875 C 3.875 0.21875 3.210938 -0.015625 2.734375 -0.484375 C 2.253906 -0.960938 2.015625 -1.675781 2.015625 -2.625 L 2.015625 -16.609375 L 3.765625 -16.609375 L 3.765625 -2.734375 C 3.765625 -2.242188 3.859375 -1.890625 4.046875 -1.671875 C 4.242188 -1.453125 4.539062 -1.34375 4.9375 -1.34375 C 5.1875 -1.34375 5.4375 -1.382812 5.6875 -1.46875 L 5.828125 -1.421875 L 6.03125 -0.046875 C 5.90625 0.046875 5.722656 0.113281 5.484375 0.15625 C 5.242188 0.195312 4.988281 0.21875 4.71875 0.21875 Z M 4.71875 0.21875 "/></g></g></g></svg>