<svg xmlns="http://www.w3.org/2000/svg" xmlns:xlink="http://www.w3.org/1999/xlink" width="500" zoomAndPan="magnify" viewBox="0 0 375 374.999991" height="500" preserveAspectRatio="xMidYMid meet" version="1.0"><defs><g/><clipPath id="4b891df785"><path d="M 93.078125 97.578125 L 282.078125 97.578125 L 282.078125 286.578125 L 93.078125 286.578125 Z M 93.078125 97.578125 " clip-rule="nonzero"/></clipPath><clipPath id="ec539d899f"><path d="M 99 201.5625 L 276 201.5625 L 276 211.3125 L 99 211.3125 Z M 99 201.5625 " clip-rule="nonzero"/></clipPath><clipPath id="b2b1deddfd"><path d="M 97.109375 117.226562 L 277.859375 117.226562 L 277.859375 183.226562 L 97.109375 183.226562 Z M 97.109375 117.226562 " clip-rule="nonzero"/></clipPath><clipPath id="fc0563dc48"><path d="M 97 187.023438 L 278 187.023438 L 278 196.773438 L 97 196.773438 Z M 97 187.023438 " clip-rule="nonzero"/></clipPath></defs><rect x="-37.5" width="450" fill="#ffffff" y="-37.499999" height="449.999989" fill-opacity="1"/><rect x="-37.5" width="450" fill="#ffffff" y="-37.499999" height="449.999989" fill-opacity="1"/><g clip-path="url(#4b891df785)"><path fill="#000000" d="M 187.578125 286.578125 C 135.371094 286.578125 93.078125 243.996094 93.078125 192.078125 C 93.078125 140.164062 135.371094 97.578125 187.578125 97.578125 C 239.789062 97.578125 282.078125 139.871094 282.078125 192.078125 C 282.078125 244.289062 239.496094 286.578125 187.578125 286.578125 Z M 187.578125 103.414062 C 138.578125 103.414062 98.914062 143.078125 98.914062 192.078125 C 98.914062 241.078125 138.578125 280.746094 187.578125 280.746094 C 236.578125 280.746094 276.246094 241.078125 276.246094 192.078125 C 276.246094 143.078125 236.289062 103.414062 187.578125 103.414062 Z M 187.578125 103.414062 " fill-opacity="1" fill-rule="nonzero"/></g><g fill="#000000" fill-opacity="1"><g transform="translate(111.437919, 240.632737)"><g><path d="M 10.625 -11.9375 C 12.832031 -10.738281 14.363281 -9.671875 15.21875 -8.734375 C 16.070312 -7.796875 16.5 -6.597656 16.5 -5.140625 C 16.5 -3.378906 15.765625 -2.015625 14.296875 -1.046875 C 12.828125 -0.0859375 10.753906 0.390625 8.078125 0.390625 C 6.796875 0.390625 5.582031 0.269531 4.4375 0.03125 C 3.300781 -0.195312 2.328125 -0.492188 1.515625 -0.859375 L 1.328125 -5.53125 L 4.359375 -5.890625 L 5.421875 -2.5 C 5.828125 -2.375 6.269531 -2.28125 6.75 -2.21875 C 7.226562 -2.15625 7.71875 -2.125 8.21875 -2.125 C 8.757812 -2.125 9.273438 -2.15625 9.765625 -2.21875 C 10.265625 -2.28125 10.726562 -2.375 11.15625 -2.5 C 11.207031 -2.6875 11.238281 -2.898438 11.25 -3.140625 C 11.269531 -3.390625 11.28125 -3.628906 11.28125 -3.859375 C 11.28125 -4.640625 10.984375 -5.316406 10.390625 -5.890625 C 9.796875 -6.460938 8.59375 -7.265625 6.78125 -8.296875 C 4.71875 -9.421875 3.269531 -10.414062 2.4375 -11.28125 C 1.601562 -12.15625 1.1875 -13.296875 1.1875 -14.703125 C 1.1875 -16.304688 1.894531 -17.570312 3.3125 -18.5 C 4.726562 -19.425781 6.769531 -19.890625 9.4375 -19.890625 C 10.382812 -19.890625 11.398438 -19.785156 12.484375 -19.578125 C 13.566406 -19.378906 14.613281 -19.078125 15.625 -18.671875 L 15.796875 -13.984375 L 12.75 -13.625 L 11.65625 -17.109375 C 11.269531 -17.203125 10.867188 -17.269531 10.453125 -17.3125 C 10.046875 -17.351562 9.664062 -17.375 9.3125 -17.375 C 8.851562 -17.375 8.375 -17.335938 7.875 -17.265625 C 7.382812 -17.203125 6.945312 -17.113281 6.5625 -17 C 6.5 -16.800781 6.453125 -16.585938 6.421875 -16.359375 C 6.398438 -16.140625 6.390625 -15.914062 6.390625 -15.6875 C 6.390625 -15.125 6.644531 -14.601562 7.15625 -14.125 C 7.675781 -13.644531 8.832031 -12.914062 10.625 -11.9375 Z M 10.625 -11.9375 "/></g></g></g><g fill="#000000" fill-opacity="1"><g transform="translate(128.716883, 240.632737)"><g><path d="M 7.921875 -6.703125 C 7.921875 -5.117188 8.144531 -3.957031 8.59375 -3.21875 C 9.050781 -2.488281 9.78125 -2.125 10.78125 -2.125 C 11.425781 -2.125 12.113281 -2.363281 12.84375 -2.84375 C 13.582031 -3.320312 14.289062 -3.972656 14.96875 -4.796875 L 14.96875 -16.765625 L 11.859375 -17.375 L 12.21875 -19.5 L 20.171875 -19.890625 L 20.171875 -2.734375 L 22.75 -2.125 L 22.390625 0 L 16.375 0.390625 L 15.328125 -2.4375 C 14.398438 -1.5 13.394531 -0.789062 12.3125 -0.3125 C 11.226562 0.15625 10.066406 0.390625 8.828125 0.390625 C 6.785156 0.390625 5.253906 -0.175781 4.234375 -1.3125 C 3.222656 -2.445312 2.71875 -4.128906 2.71875 -6.359375 L 2.71875 -16.765625 L 0.140625 -17.375 L 0.5 -19.5 L 7.921875 -19.890625 Z M 7.921875 -6.703125 "/></g></g></g><g fill="#000000" fill-opacity="1"><g transform="translate(152.354218, 240.632737)"><g><path d="M 3.796875 -16.765625 L 1.21875 -17.375 L 1.578125 -19.5 L 7.59375 -19.890625 L 8.640625 -17.046875 C 9.171875 -18.035156 9.816406 -18.753906 10.578125 -19.203125 C 11.347656 -19.660156 12.242188 -19.890625 13.265625 -19.890625 C 13.742188 -19.890625 14.242188 -19.820312 14.765625 -19.6875 C 15.296875 -19.5625 15.78125 -19.378906 16.21875 -19.140625 L 15.78125 -13.6875 L 12.328125 -13.6875 L 11.84375 -17.09375 C 11.757812 -17.113281 11.675781 -17.128906 11.59375 -17.140625 C 11.507812 -17.148438 11.429688 -17.15625 11.359375 -17.15625 C 10.992188 -17.15625 10.601562 -16.9375 10.1875 -16.5 C 9.78125 -16.0625 9.382812 -15.460938 9 -14.703125 L 9 -2.734375 L 12.15625 -2.125 L 11.796875 0 L 1.578125 0 L 1.21875 -2.125 L 3.796875 -2.734375 Z M 3.796875 -16.765625 "/></g></g></g><g fill="#000000" fill-opacity="1"><g transform="translate(168.860843, 240.632737)"><g><path d="M 15.953125 -11.171875 C 15.953125 -13.253906 15.691406 -14.804688 15.171875 -15.828125 C 14.660156 -16.859375 13.804688 -17.375 12.609375 -17.375 C 11.960938 -17.375 11.257812 -17.125 10.5 -16.625 C 9.75 -16.132812 9.046875 -15.492188 8.390625 -14.703125 L 8.390625 -2.609375 C 8.972656 -2.453125 9.550781 -2.332031 10.125 -2.25 C 10.707031 -2.164062 11.222656 -2.125 11.671875 -2.125 C 12.328125 -2.125 12.957031 -2.1875 13.5625 -2.3125 C 14.175781 -2.445312 14.691406 -2.625 15.109375 -2.84375 C 15.296875 -3.488281 15.484375 -4.394531 15.671875 -5.5625 C 15.859375 -6.738281 15.953125 -7.894531 15.953125 -9.03125 Z M 3.1875 -16.765625 L 0.609375 -17.375 L 0.96875 -19.5 L 6.984375 -19.890625 L 8.03125 -17.046875 C 8.925781 -17.992188 9.90625 -18.703125 10.96875 -19.171875 C 12.03125 -19.648438 13.128906 -19.890625 14.265625 -19.890625 C 16.566406 -19.890625 18.289062 -19.210938 19.4375 -17.859375 C 20.59375 -16.515625 21.171875 -14.488281 21.171875 -11.78125 L 21.171875 -10.09375 C 21.171875 -6.875 20.335938 -4.320312 18.671875 -2.4375 C 17.015625 -0.550781 14.742188 0.390625 11.859375 0.390625 C 11.242188 0.390625 10.648438 0.347656 10.078125 0.265625 C 9.515625 0.179688 8.953125 0.078125 8.390625 -0.046875 L 8.390625 5.0625 L 10.953125 5.671875 L 10.59375 7.8125 L 0.96875 7.8125 L 0.609375 5.671875 L 3.1875 5.0625 Z M 3.1875 -16.765625 "/></g></g></g><g fill="#000000" fill-opacity="1"><g transform="translate(191.20495, 240.632737)"><g><path d="M 10.171875 0.390625 C 7.285156 0.390625 5.050781 -0.300781 3.46875 -1.6875 C 1.894531 -3.070312 1.109375 -5.019531 1.109375 -7.53125 L 1.109375 -9.203125 C 1.109375 -12.546875 1.976562 -15.160156 3.71875 -17.046875 C 5.457031 -18.941406 7.765625 -19.890625 10.640625 -19.890625 C 13.484375 -19.890625 15.722656 -19.195312 17.359375 -17.8125 C 19.003906 -16.4375 19.828125 -14.425781 19.828125 -11.78125 L 19.828125 -10.09375 C 19.828125 -6.894531 18.972656 -4.347656 17.265625 -2.453125 C 15.554688 -0.554688 13.191406 0.390625 10.171875 0.390625 Z M 14.625 -11.171875 C 14.625 -13.179688 14.207031 -14.71875 13.375 -15.78125 C 12.539062 -16.84375 11.484375 -17.375 10.203125 -17.375 C 9.628906 -17.375 9.082031 -17.304688 8.5625 -17.171875 C 8.050781 -17.046875 7.601562 -16.875 7.21875 -16.65625 C 6.945312 -15.8125 6.726562 -14.832031 6.5625 -13.71875 C 6.40625 -12.613281 6.328125 -11.46875 6.328125 -10.28125 L 6.328125 -8.140625 C 6.328125 -6.222656 6.75 -4.738281 7.59375 -3.6875 C 8.445312 -2.644531 9.488281 -2.125 10.71875 -2.125 C 11.320312 -2.125 11.882812 -2.1875 12.40625 -2.3125 C 12.925781 -2.445312 13.367188 -2.625 13.734375 -2.84375 C 13.992188 -3.519531 14.207031 -4.398438 14.375 -5.484375 C 14.539062 -6.566406 14.625 -7.75 14.625 -9.03125 Z M 14.625 -11.171875 "/></g></g></g><g fill="#000000" fill-opacity="1"><g transform="translate(212.183983, 240.632737)"><g><path d="M 9 -2.734375 L 11.578125 -2.125 L 11.21875 0 L 1.578125 0 L 1.21875 -2.125 L 3.796875 -2.734375 L 3.796875 -16.765625 L 1.21875 -17.375 L 1.578125 -19.5 L 9 -19.890625 Z M 3.34375 -25.0625 C 3.34375 -25.914062 3.566406 -26.660156 4.015625 -27.296875 C 4.460938 -27.941406 4.988281 -28.265625 5.59375 -28.265625 C 6.46875 -28.265625 7.210938 -28.039062 7.828125 -27.59375 C 8.453125 -27.15625 8.765625 -26.617188 8.765625 -25.984375 C 8.765625 -25.128906 8.535156 -24.382812 8.078125 -23.75 C 7.628906 -23.125 7.109375 -22.8125 6.515625 -22.8125 C 5.660156 -22.8125 4.914062 -23.03125 4.28125 -23.46875 C 3.65625 -23.914062 3.34375 -24.445312 3.34375 -25.0625 Z M 3.34375 -25.0625 "/></g></g></g><g fill="#000000" fill-opacity="1"><g transform="translate(224.685188, 240.632737)"><g><path d="M 1.21875 -2.125 L 3.796875 -2.734375 L 3.796875 -16.765625 L 1.21875 -17.375 L 1.578125 -19.5 L 7.59375 -19.890625 L 8.640625 -17.046875 C 9.765625 -18.085938 10.863281 -18.820312 11.9375 -19.25 C 13.019531 -19.675781 14.160156 -19.890625 15.359375 -19.890625 C 17.398438 -19.890625 18.953125 -19.367188 20.015625 -18.328125 C 21.078125 -17.285156 21.609375 -15.765625 21.609375 -13.765625 L 21.609375 -2.734375 L 24.1875 -2.125 L 23.828125 0 L 14.1875 0 L 13.828125 -2.125 L 16.40625 -2.734375 L 16.40625 -13.5 C 16.40625 -14.875 16.1875 -15.863281 15.75 -16.46875 C 15.3125 -17.070312 14.644531 -17.375 13.75 -17.375 C 13.113281 -17.375 12.382812 -17.148438 11.5625 -16.703125 C 10.738281 -16.265625 9.882812 -15.597656 9 -14.703125 L 9 -2.734375 L 11.578125 -2.125 L 11.21875 0 L 1.578125 0 Z M 1.21875 -2.125 "/></g></g></g><g fill="#000000" fill-opacity="1"><g transform="translate(249.687597, 240.632737)"><g><path d="M 12.5625 -19.5 L 12.921875 -17.359375 L 8.0625 -16.78125 L 8.0625 -5.25 C 8.0625 -4.25 8.21875 -3.476562 8.53125 -2.9375 C 8.851562 -2.394531 9.484375 -2.125 10.421875 -2.125 C 10.765625 -2.125 11.164062 -2.191406 11.625 -2.328125 C 12.082031 -2.460938 12.519531 -2.628906 12.9375 -2.828125 L 12.9375 -0.765625 C 12.289062 -0.398438 11.546875 -0.117188 10.703125 0.078125 C 9.867188 0.285156 9.03125 0.390625 8.1875 0.390625 C 6.269531 0.390625 4.898438 -0.03125 4.078125 -0.875 C 3.265625 -1.71875 2.859375 -3.039062 2.859375 -4.84375 L 2.859375 -16.78125 L 0.140625 -17.359375 L 0.5 -19.5 L 2.859375 -19.5 L 4.171875 -24.765625 L 8.0625 -24.40625 L 8.0625 -19.5 Z M 12.5625 -19.5 "/></g></g></g><g clip-path="url(#ec539d899f)"><path fill="#000000" d="M 266.648438 204.9375 C 264.113281 203.355469 261.246094 201.566406 255.765625 201.566406 C 250.28125 201.566406 247.414062 203.355469 244.878906 204.9375 C 242.441406 206.457031 240.335938 207.769531 235.875 207.769531 C 231.410156 207.769531 229.304688 206.457031 226.867188 204.9375 C 224.335938 203.355469 221.464844 201.566406 215.984375 201.566406 C 210.503906 201.566406 207.636719 203.355469 205.101562 204.9375 C 202.664062 206.457031 200.5625 207.769531 196.097656 207.769531 C 191.632812 207.769531 189.527344 206.457031 187.09375 204.9375 C 184.558594 203.355469 181.6875 201.566406 176.207031 201.566406 C 170.730469 201.566406 167.859375 203.355469 165.324219 204.9375 C 162.890625 206.457031 160.785156 207.769531 156.320312 207.769531 C 151.859375 207.769531 149.753906 206.457031 147.316406 204.9375 C 144.785156 203.355469 141.914062 201.566406 136.433594 201.566406 C 130.953125 201.566406 128.082031 203.355469 125.550781 204.9375 C 123.113281 206.457031 121.007812 207.769531 116.546875 207.769531 C 112.082031 207.769531 109.976562 206.457031 107.539062 204.9375 C 105.46875 203.644531 103.171875 202.210938 99.40625 201.734375 L 99.40625 205.308594 C 102.109375 205.730469 103.789062 206.777344 105.660156 207.945312 C 108.195312 209.523438 111.066406 211.316406 116.546875 211.316406 C 122.027344 211.316406 124.894531 209.523438 127.429688 207.945312 C 129.863281 206.425781 131.96875 205.109375 136.433594 205.109375 C 140.898438 205.109375 143 206.425781 145.4375 207.945312 C 147.972656 209.523438 150.839844 211.316406 156.320312 211.316406 C 161.800781 211.316406 164.671875 209.523438 167.203125 207.945312 C 169.640625 206.425781 171.746094 205.109375 176.207031 205.109375 C 180.671875 205.109375 182.777344 206.425781 185.214844 207.945312 C 187.746094 209.523438 190.617188 211.316406 196.097656 211.316406 C 201.578125 211.316406 204.449219 209.523438 206.980469 207.945312 C 209.417969 206.425781 211.519531 205.109375 215.984375 205.109375 C 220.449219 205.109375 222.554688 206.425781 224.992188 207.945312 C 227.523438 209.523438 230.394531 211.316406 235.875 211.316406 C 241.355469 211.316406 244.226562 209.523438 246.757812 207.945312 C 249.195312 206.425781 251.300781 205.109375 255.765625 205.109375 C 260.226562 205.109375 262.332031 206.425781 264.769531 207.945312 C 267.304688 209.523438 270.175781 211.316406 275.65625 211.316406 L 275.65625 207.769531 C 271.191406 207.769531 269.085938 206.457031 266.648438 204.9375 " fill-opacity="1" fill-rule="nonzero"/></g><g clip-path="url(#b2b1deddfd)"><path fill="#000000" d="M 97.109375 183.175781 L 142.621094 140.761719 L 149.128906 147.285156 L 160.832031 135.53125 L 166.851562 139.601562 L 181.628906 117.253906 L 219.34375 147.285156 L 241.441406 147.285156 L 277.859375 179.46875 L 240.582031 152.933594 L 237.320312 156.203125 L 237.320312 151.625 L 218.902344 152.5 L 182.507812 125.09375 L 171.234375 142.914062 L 183.589844 155.332031 L 161.257812 142.054688 L 134.179688 169.261719 L 146.09375 151.203125 L 142.246094 147.335938 Z M 97.109375 183.175781 " fill-opacity="1" fill-rule="nonzero"/></g><g clip-path="url(#fc0563dc48)"><path fill="#000000" d="M 268.472656 190.398438 C 265.886719 188.816406 262.957031 187.027344 257.363281 187.027344 C 251.769531 187.027344 248.839844 188.816406 246.253906 190.398438 C 243.765625 191.917969 241.617188 193.230469 237.0625 193.230469 C 232.503906 193.230469 230.355469 191.917969 227.871094 190.398438 C 225.285156 188.816406 222.355469 187.027344 216.761719 187.027344 C 211.167969 187.027344 208.238281 188.816406 205.652344 190.398438 C 203.167969 191.917969 201.019531 193.230469 196.460938 193.230469 C 191.90625 193.230469 189.757812 191.917969 187.269531 190.398438 C 184.6875 188.816406 181.757812 187.027344 176.164062 187.027344 C 170.570312 187.027344 167.640625 188.816406 165.054688 190.398438 C 162.566406 191.917969 160.421875 193.230469 155.863281 193.230469 C 151.308594 193.230469 149.160156 191.917969 146.671875 190.398438 C 144.085938 188.816406 141.15625 187.027344 135.5625 187.027344 C 129.96875 187.027344 127.039062 188.816406 124.457031 190.398438 C 121.96875 191.917969 119.820312 193.230469 115.265625 193.230469 C 110.707031 193.230469 108.5625 191.917969 106.074219 190.398438 C 103.960938 189.105469 101.613281 187.675781 97.773438 187.195312 L 97.773438 190.773438 C 100.53125 191.195312 102.246094 192.238281 104.15625 193.40625 C 106.742188 194.984375 109.671875 196.777344 115.265625 196.777344 C 120.859375 196.777344 123.789062 194.984375 126.375 193.40625 C 128.859375 191.886719 131.007812 190.574219 135.5625 190.574219 C 140.121094 190.574219 142.269531 191.886719 144.753906 193.40625 C 147.339844 194.984375 150.269531 196.777344 155.863281 196.777344 C 161.457031 196.777344 164.386719 194.984375 166.972656 193.40625 C 169.457031 191.886719 171.605469 190.574219 176.164062 190.574219 C 180.71875 190.574219 182.867188 191.886719 185.355469 193.40625 C 187.9375 194.984375 190.867188 196.777344 196.460938 196.777344 C 202.054688 196.777344 204.984375 194.984375 207.570312 193.40625 C 210.058594 191.886719 212.207031 190.574219 216.761719 190.574219 C 221.316406 190.574219 223.464844 191.886719 225.953125 193.40625 C 228.539062 194.984375 231.46875 196.777344 237.0625 196.777344 C 242.65625 196.777344 245.585938 194.984375 248.171875 193.40625 C 250.65625 191.886719 252.804688 190.574219 257.363281 190.574219 C 261.917969 190.574219 264.066406 191.886719 266.554688 193.40625 C 269.140625 194.984375 272.070312 196.777344 277.664062 196.777344 L 277.664062 193.230469 C 273.109375 193.230469 270.960938 191.917969 268.472656 190.398438 " fill-opacity="1" fill-rule="nonzero"/></g></svg>