<svg xmlns="http://www.w3.org/2000/svg" xmlns:xlink="http://www.w3.org/1999/xlink" width="500" zoomAndPan="magnify" viewBox="0 0 375 374.999991" height="500" preserveAspectRatio="xMidYMid meet" version="1.0"><defs><g/><clipPath id="8fbe4dd605"><path d="M 44.996094 44.996094 L 329.996094 44.996094 L 329.996094 329.996094 L 44.996094 329.996094 Z M 44.996094 44.996094 " clip-rule="nonzero"/></clipPath><clipPath id="27c7037dee"><path d="M 54 187.5 L 321 187.5 L 321 202.5 L 54 202.5 Z M 54 187.5 " clip-rule="nonzero"/></clipPath><clipPath id="d32320a07f"><path d="M 54 201.933594 L 321 201.933594 L 321 216.933594 L 54 216.933594 Z M 54 201.933594 " clip-rule="nonzero"/></clipPath><clipPath id="337cb408dc"><path d="M 51.078125 74.648438 L 330.078125 74.648438 L 330.078125 175.898438 L 51.078125 175.898438 Z M 51.078125 74.648438 " clip-rule="nonzero"/></clipPath></defs><rect x="-37.5" width="450" fill="#ffffff" y="-37.499999" height="449.999989" fill-opacity="1"/><rect x="-37.5" width="450" fill="#545454" y="-37.499999" height="449.999989" fill-opacity="1"/><g clip-path="url(#8fbe4dd605)"><path fill="#ffffff" d="M 187.496094 329.996094 C 108.769531 329.996094 44.996094 265.785156 44.996094 187.496094 C 44.996094 109.210938 108.769531 44.996094 187.496094 44.996094 C 266.222656 44.996094 329.996094 108.769531 329.996094 187.496094 C 329.996094 266.222656 265.785156 329.996094 187.496094 329.996094 Z M 187.496094 53.792969 C 113.609375 53.792969 53.792969 113.609375 53.792969 187.496094 C 53.792969 261.386719 113.609375 321.199219 187.496094 321.199219 C 261.386719 321.199219 321.199219 261.386719 321.199219 187.496094 C 321.199219 113.609375 260.945312 53.792969 187.496094 53.792969 Z M 187.496094 53.792969 " fill-opacity="1" fill-rule="nonzero"/></g><g fill="#ffffff" fill-opacity="1"><g transform="translate(76.049357, 262.143544)"><g><path d="M 15.5625 -17.484375 C 18.8125 -15.722656 21.054688 -14.160156 22.296875 -12.796875 C 23.546875 -11.429688 24.171875 -9.675781 24.171875 -7.53125 C 24.171875 -4.945312 23.09375 -2.945312 20.9375 -1.53125 C 18.789062 -0.125 15.757812 0.578125 11.84375 0.578125 C 9.96875 0.578125 8.191406 0.40625 6.515625 0.0625 C 4.835938 -0.28125 3.40625 -0.722656 2.21875 -1.265625 L 1.953125 -8.109375 L 6.390625 -8.640625 L 7.953125 -3.65625 C 8.546875 -3.476562 9.191406 -3.34375 9.890625 -3.25 C 10.597656 -3.15625 11.3125 -3.109375 12.03125 -3.109375 C 12.84375 -3.109375 13.609375 -3.15625 14.328125 -3.25 C 15.046875 -3.34375 15.71875 -3.476562 16.34375 -3.65625 C 16.414062 -3.9375 16.460938 -4.253906 16.484375 -4.609375 C 16.515625 -4.972656 16.53125 -5.320312 16.53125 -5.65625 C 16.53125 -6.800781 16.09375 -7.796875 15.21875 -8.640625 C 14.351562 -9.484375 12.585938 -10.65625 9.921875 -12.15625 C 6.898438 -13.8125 4.78125 -15.273438 3.5625 -16.546875 C 2.34375 -17.816406 1.734375 -19.476562 1.734375 -21.53125 C 1.734375 -23.882812 2.773438 -25.738281 4.859375 -27.09375 C 6.941406 -28.457031 9.929688 -29.140625 13.828125 -29.140625 C 15.210938 -29.140625 16.695312 -28.988281 18.28125 -28.6875 C 19.875 -28.394531 21.414062 -27.953125 22.90625 -27.359375 L 23.140625 -20.484375 L 18.6875 -19.953125 L 17.09375 -25.0625 C 16.53125 -25.207031 15.941406 -25.304688 15.328125 -25.359375 C 14.722656 -25.421875 14.160156 -25.453125 13.640625 -25.453125 C 12.972656 -25.453125 12.273438 -25.40625 11.546875 -25.3125 C 10.816406 -25.21875 10.171875 -25.082031 9.609375 -24.90625 C 9.523438 -24.625 9.460938 -24.316406 9.421875 -23.984375 C 9.390625 -23.648438 9.375 -23.316406 9.375 -22.984375 C 9.375 -22.160156 9.75 -21.394531 10.5 -20.6875 C 11.257812 -19.988281 12.945312 -18.921875 15.5625 -17.484375 Z M 15.5625 -17.484375 "/></g></g></g><g fill="#ffffff" fill-opacity="1"><g transform="translate(101.367516, 262.143544)"><g><path d="M 11.609375 -9.828125 C 11.609375 -7.503906 11.941406 -5.800781 12.609375 -4.71875 C 13.273438 -3.644531 14.335938 -3.109375 15.796875 -3.109375 C 16.742188 -3.109375 17.753906 -3.457031 18.828125 -4.15625 C 19.910156 -4.863281 20.945312 -5.820312 21.9375 -7.03125 L 21.9375 -24.5625 L 17.375 -25.453125 L 17.90625 -28.5625 L 29.5625 -29.140625 L 29.5625 -4 L 33.328125 -3.109375 L 32.8125 0 L 23.984375 0.578125 L 22.453125 -3.578125 C 21.109375 -2.191406 19.640625 -1.148438 18.046875 -0.453125 C 16.460938 0.234375 14.753906 0.578125 12.921875 0.578125 C 9.941406 0.578125 7.703125 -0.253906 6.203125 -1.921875 C 4.710938 -3.585938 3.96875 -6.054688 3.96875 -9.328125 L 3.96875 -24.5625 L 0.203125 -25.453125 L 0.734375 -28.5625 L 11.609375 -29.140625 Z M 11.609375 -9.828125 "/></g></g></g><g fill="#ffffff" fill-opacity="1"><g transform="translate(136.002337, 262.143544)"><g><path d="M 5.5625 -24.5625 L 1.796875 -25.453125 L 2.3125 -28.5625 L 11.140625 -29.140625 L 12.671875 -24.984375 C 13.441406 -26.421875 14.382812 -27.472656 15.5 -28.140625 C 16.625 -28.804688 17.9375 -29.140625 19.4375 -29.140625 C 20.132812 -29.140625 20.867188 -29.039062 21.640625 -28.84375 C 22.410156 -28.65625 23.125 -28.390625 23.78125 -28.046875 L 23.109375 -20.0625 L 18.0625 -20.0625 L 17.34375 -25.03125 C 17.226562 -25.070312 17.109375 -25.097656 16.984375 -25.109375 C 16.859375 -25.128906 16.742188 -25.140625 16.640625 -25.140625 C 16.109375 -25.140625 15.539062 -24.816406 14.9375 -24.171875 C 14.332031 -23.535156 13.75 -22.65625 13.1875 -21.53125 L 13.1875 -4 L 17.828125 -3.109375 L 17.296875 0 L 2.3125 0 L 1.796875 -3.109375 L 5.5625 -4 Z M 5.5625 -24.5625 "/></g></g></g><g fill="#ffffff" fill-opacity="1"><g transform="translate(160.18882, 262.143544)"><g><path d="M 23.375 -16.375 C 23.375 -19.425781 22.992188 -21.703125 22.234375 -23.203125 C 21.484375 -24.703125 20.234375 -25.453125 18.484375 -25.453125 C 17.535156 -25.453125 16.507812 -25.085938 15.40625 -24.359375 C 14.300781 -23.640625 13.265625 -22.695312 12.296875 -21.53125 L 12.296875 -3.8125 C 13.148438 -3.582031 14 -3.40625 14.84375 -3.28125 C 15.6875 -3.164062 16.441406 -3.109375 17.109375 -3.109375 C 18.054688 -3.109375 18.976562 -3.203125 19.875 -3.390625 C 20.769531 -3.585938 21.523438 -3.84375 22.140625 -4.15625 C 22.421875 -5.101562 22.695312 -6.4375 22.96875 -8.15625 C 23.238281 -9.882812 23.375 -11.582031 23.375 -13.25 Z M 4.65625 -24.5625 L 0.890625 -25.453125 L 1.421875 -28.5625 L 10.234375 -29.140625 L 11.765625 -24.984375 C 13.085938 -26.367188 14.523438 -27.40625 16.078125 -28.09375 C 17.628906 -28.789062 19.238281 -29.140625 20.90625 -29.140625 C 24.269531 -29.140625 26.796875 -28.148438 28.484375 -26.171875 C 30.171875 -24.203125 31.015625 -21.234375 31.015625 -17.265625 L 31.015625 -14.796875 C 31.015625 -10.078125 29.796875 -6.332031 27.359375 -3.5625 C 24.929688 -0.800781 21.601562 0.578125 17.375 0.578125 C 16.476562 0.578125 15.613281 0.515625 14.78125 0.390625 C 13.945312 0.265625 13.117188 0.109375 12.296875 -0.078125 L 12.296875 7.421875 L 16.0625 8.3125 L 15.53125 11.453125 L 1.421875 11.453125 L 0.890625 8.3125 L 4.65625 7.421875 Z M 4.65625 -24.5625 "/></g></g></g><g fill="#ffffff" fill-opacity="1"><g transform="translate(192.928726, 262.143544)"><g><path d="M 14.90625 0.578125 C 10.675781 0.578125 7.40625 -0.4375 5.09375 -2.46875 C 2.78125 -4.507812 1.625 -7.363281 1.625 -11.03125 L 1.625 -13.484375 C 1.625 -18.378906 2.894531 -22.210938 5.4375 -24.984375 C 7.988281 -27.753906 11.375 -29.140625 15.59375 -29.140625 C 19.769531 -29.140625 23.054688 -28.128906 25.453125 -26.109375 C 27.859375 -24.097656 29.0625 -21.148438 29.0625 -17.265625 L 29.0625 -14.796875 C 29.0625 -10.109375 27.804688 -6.375 25.296875 -3.59375 C 22.785156 -0.8125 19.320312 0.578125 14.90625 0.578125 Z M 21.4375 -16.375 C 21.4375 -19.320312 20.820312 -21.570312 19.59375 -23.125 C 18.375 -24.675781 16.828125 -25.453125 14.953125 -25.453125 C 14.109375 -25.453125 13.304688 -25.351562 12.546875 -25.15625 C 11.796875 -24.96875 11.140625 -24.71875 10.578125 -24.40625 C 10.179688 -23.175781 9.863281 -21.742188 9.625 -20.109375 C 9.382812 -18.484375 9.265625 -16.800781 9.265625 -15.0625 L 9.265625 -11.921875 C 9.265625 -9.117188 9.882812 -6.945312 11.125 -5.40625 C 12.375 -3.875 13.90625 -3.109375 15.71875 -3.109375 C 16.59375 -3.109375 17.410156 -3.203125 18.171875 -3.390625 C 18.941406 -3.585938 19.585938 -3.84375 20.109375 -4.15625 C 20.492188 -5.15625 20.8125 -6.445312 21.0625 -8.03125 C 21.3125 -9.625 21.4375 -11.363281 21.4375 -13.25 Z M 21.4375 -16.375 "/></g></g></g><g fill="#ffffff" fill-opacity="1"><g transform="translate(223.668445, 262.143544)"><g><path d="M 13.1875 -4 L 16.953125 -3.109375 L 16.421875 0 L 2.3125 0 L 1.796875 -3.109375 L 5.5625 -4 L 5.5625 -24.5625 L 1.796875 -25.453125 L 2.3125 -28.5625 L 13.1875 -29.140625 Z M 4.890625 -36.734375 C 4.890625 -37.972656 5.21875 -39.0625 5.875 -40 C 6.539062 -40.945312 7.3125 -41.421875 8.1875 -41.421875 C 9.46875 -41.421875 10.5625 -41.09375 11.46875 -40.4375 C 12.382812 -39.789062 12.84375 -39.003906 12.84375 -38.078125 C 12.84375 -36.828125 12.507812 -35.738281 11.84375 -34.8125 C 11.175781 -33.894531 10.414062 -33.4375 9.5625 -33.4375 C 8.289062 -33.4375 7.191406 -33.757812 6.265625 -34.40625 C 5.347656 -35.0625 4.890625 -35.835938 4.890625 -36.734375 Z M 4.890625 -36.734375 "/></g></g></g><g fill="#ffffff" fill-opacity="1"><g transform="translate(241.985949, 262.143544)"><g><path d="M 1.796875 -3.109375 L 5.5625 -4 L 5.5625 -24.5625 L 1.796875 -25.453125 L 2.3125 -28.5625 L 11.140625 -29.140625 L 12.671875 -24.984375 C 14.316406 -26.515625 15.925781 -27.585938 17.5 -28.203125 C 19.082031 -28.828125 20.753906 -29.140625 22.515625 -29.140625 C 25.492188 -29.140625 27.765625 -28.375 29.328125 -26.84375 C 30.890625 -25.320312 31.671875 -23.097656 31.671875 -20.171875 L 31.671875 -4 L 35.4375 -3.109375 L 34.90625 0 L 20.796875 0 L 20.265625 -3.109375 L 24.03125 -4 L 24.03125 -19.765625 C 24.03125 -21.785156 23.707031 -23.238281 23.0625 -24.125 C 22.425781 -25.007812 21.453125 -25.453125 20.140625 -25.453125 C 19.210938 -25.453125 18.144531 -25.128906 16.9375 -24.484375 C 15.738281 -23.835938 14.488281 -22.851562 13.1875 -21.53125 L 13.1875 -4 L 16.953125 -3.109375 L 16.421875 0 L 2.3125 0 Z M 1.796875 -3.109375 "/></g></g></g><g fill="#ffffff" fill-opacity="1"><g transform="translate(278.620957, 262.143544)"><g><path d="M 18.40625 -28.5625 L 18.9375 -25.4375 L 11.828125 -24.59375 L 11.828125 -7.6875 C 11.828125 -6.226562 12.054688 -5.097656 12.515625 -4.296875 C 12.984375 -3.503906 13.898438 -3.109375 15.265625 -3.109375 C 15.773438 -3.109375 16.363281 -3.207031 17.03125 -3.40625 C 17.695312 -3.613281 18.335938 -3.859375 18.953125 -4.140625 L 18.953125 -1.125 C 18.003906 -0.582031 16.914062 -0.164062 15.6875 0.125 C 14.457031 0.425781 13.226562 0.578125 12 0.578125 C 9.195312 0.578125 7.191406 -0.0390625 5.984375 -1.28125 C 4.785156 -2.519531 4.1875 -4.460938 4.1875 -7.109375 L 4.1875 -24.59375 L 0.203125 -25.4375 L 0.734375 -28.5625 L 4.1875 -28.5625 L 6.109375 -36.28125 L 11.828125 -35.75 L 11.828125 -28.5625 Z M 18.40625 -28.5625 "/></g></g></g><g clip-path="url(#27c7037dee)"><path fill="#ffffff" d="M 306.71875 192.691406 C 302.898438 190.257812 298.570312 187.503906 290.3125 187.503906 C 282.050781 187.503906 277.722656 190.257812 273.902344 192.691406 C 270.230469 195.03125 267.058594 197.050781 260.328125 197.050781 C 253.597656 197.050781 250.425781 195.03125 246.753906 192.691406 C 242.9375 190.257812 238.609375 187.503906 230.347656 187.503906 C 222.089844 187.503906 217.761719 190.257812 213.945312 192.691406 C 210.273438 195.03125 207.101562 197.050781 200.371094 197.050781 C 193.640625 197.050781 190.46875 195.03125 186.796875 192.691406 C 182.980469 190.257812 178.652344 187.503906 170.390625 187.503906 C 162.132812 187.503906 157.804688 190.257812 153.988281 192.691406 C 150.3125 195.03125 147.140625 197.050781 140.414062 197.050781 C 133.683594 197.050781 130.511719 195.03125 126.839844 192.691406 C 123.023438 190.257812 118.695312 187.503906 110.433594 187.503906 C 102.171875 187.503906 97.847656 190.257812 94.03125 192.691406 C 90.355469 195.03125 87.183594 197.050781 80.457031 197.050781 C 73.726562 197.050781 70.554688 195.03125 66.882812 192.691406 C 63.761719 190.703125 60.296875 188.5 54.625 187.761719 L 54.625 193.265625 C 58.695312 193.914062 61.226562 195.519531 64.050781 197.316406 C 67.867188 199.75 72.195312 202.503906 80.457031 202.503906 C 88.71875 202.503906 93.042969 199.75 96.859375 197.316406 C 100.535156 194.980469 103.707031 192.957031 110.433594 192.957031 C 117.164062 192.957031 120.335938 194.980469 124.007812 197.316406 C 127.828125 199.75 132.152344 202.503906 140.414062 202.503906 C 148.675781 202.503906 153 199.75 156.816406 197.316406 C 160.492188 194.980469 163.664062 192.957031 170.390625 192.957031 C 177.121094 192.957031 180.292969 194.980469 183.964844 197.316406 C 187.78125 199.75 192.109375 202.503906 200.371094 202.503906 C 208.632812 202.503906 212.957031 199.75 216.773438 197.316406 C 220.449219 194.980469 223.621094 192.957031 230.347656 192.957031 C 237.078125 192.957031 240.25 194.980469 243.925781 197.316406 C 247.742188 199.75 252.066406 202.503906 260.328125 202.503906 C 268.589844 202.503906 272.917969 199.75 276.734375 197.316406 C 280.410156 194.980469 283.582031 192.957031 290.3125 192.957031 C 297.039062 192.957031 300.214844 194.980469 303.886719 197.316406 C 307.707031 199.75 312.03125 202.503906 320.292969 202.503906 L 320.292969 197.050781 C 313.566406 197.050781 310.390625 195.03125 306.71875 192.691406 " fill-opacity="1" fill-rule="nonzero"/></g><g clip-path="url(#d32320a07f)"><path fill="#ffffff" d="M 306.71875 207.121094 C 302.898438 204.691406 298.570312 201.9375 290.3125 201.9375 C 282.050781 201.9375 277.722656 204.691406 273.902344 207.121094 C 270.230469 209.460938 267.058594 211.480469 260.328125 211.480469 C 253.597656 211.480469 250.425781 209.460938 246.753906 207.121094 C 242.9375 204.691406 238.609375 201.9375 230.347656 201.9375 C 222.089844 201.9375 217.761719 204.691406 213.945312 207.121094 C 210.273438 209.460938 207.101562 211.480469 200.371094 211.480469 C 193.640625 211.480469 190.46875 209.460938 186.796875 207.121094 C 182.980469 204.691406 178.652344 201.9375 170.390625 201.9375 C 162.132812 201.9375 157.804688 204.691406 153.988281 207.121094 C 150.3125 209.460938 147.140625 211.480469 140.414062 211.480469 C 133.683594 211.480469 130.511719 209.460938 126.839844 207.121094 C 123.023438 204.691406 118.695312 201.9375 110.433594 201.9375 C 102.171875 201.9375 97.847656 204.691406 94.03125 207.121094 C 90.355469 209.460938 87.183594 211.480469 80.457031 211.480469 C 73.726562 211.480469 70.554688 209.460938 66.882812 207.121094 C 63.761719 205.136719 60.296875 202.933594 54.625 202.195312 L 54.625 207.699219 C 58.695312 208.347656 61.226562 209.953125 64.050781 211.75 C 67.867188 214.179688 72.195312 216.9375 80.457031 216.9375 C 88.71875 216.9375 93.042969 214.179688 96.859375 211.75 C 100.535156 209.410156 103.707031 207.390625 110.433594 207.390625 C 117.164062 207.390625 120.335938 209.410156 124.007812 211.75 C 127.828125 214.179688 132.152344 216.9375 140.414062 216.9375 C 148.675781 216.9375 153 214.179688 156.816406 211.75 C 160.492188 209.410156 163.664062 207.390625 170.390625 207.390625 C 177.121094 207.390625 180.292969 209.410156 183.964844 211.75 C 187.78125 214.179688 192.109375 216.9375 200.371094 216.9375 C 208.632812 216.9375 212.957031 214.179688 216.773438 211.75 C 220.449219 209.410156 223.621094 207.390625 230.347656 207.390625 C 237.078125 207.390625 240.25 209.410156 243.925781 211.75 C 247.742188 214.179688 252.066406 216.9375 260.328125 216.9375 C 268.589844 216.9375 272.917969 214.179688 276.734375 211.75 C 280.410156 209.410156 283.582031 207.390625 290.3125 207.390625 C 297.039062 207.390625 300.214844 209.410156 303.886719 211.75 C 307.707031 214.179688 312.03125 216.9375 320.292969 216.9375 L 320.292969 211.480469 C 313.566406 211.480469 310.390625 209.460938 306.71875 207.121094 " fill-opacity="1" fill-rule="nonzero"/></g><g clip-path="url(#337cb408dc)"><path fill="#ffffff" d="M 51.078125 175.824219 L 121.328125 110.757812 L 131.371094 120.757812 L 149.4375 102.730469 L 158.730469 108.976562 L 181.539062 74.691406 L 239.753906 120.761719 L 273.863281 120.761719 L 330.078125 170.136719 L 272.539062 129.425781 L 267.5 134.445312 L 267.5 127.417969 L 239.078125 128.757812 L 182.894531 86.71875 L 165.496094 114.058594 L 184.566406 133.105469 L 150.097656 112.734375 L 108.300781 154.472656 L 126.691406 126.769531 L 120.753906 120.839844 Z M 51.078125 175.824219 " fill-opacity="1" fill-rule="nonzero"/></g></svg>