<svg xmlns="http://www.w3.org/2000/svg" xmlns:xlink="http://www.w3.org/1999/xlink" width="500" zoomAndPan="magnify" viewBox="0 0 375 374.999991" height="500" preserveAspectRatio="xMidYMid meet" version="1.0"><defs><g/><clipPath id="cca30b0053"><path d="M 93.078125 97.578125 L 282.078125 97.578125 L 282.078125 286.578125 L 93.078125 286.578125 Z M 93.078125 97.578125 " clip-rule="nonzero"/></clipPath><clipPath id="f531c4ea8d"><path d="M 99 201.5625 L 276 201.5625 L 276 211.3125 L 99 211.3125 Z M 99 201.5625 " clip-rule="nonzero"/></clipPath><clipPath id="7d36fa07e1"><path d="M 99 192 L 276 192 L 276 201.75 L 99 201.75 Z M 99 192 " clip-rule="nonzero"/></clipPath><clipPath id="af6b5e6189"><path d="M 97.109375 117.226562 L 277.859375 117.226562 L 277.859375 183.226562 L 97.109375 183.226562 Z M 97.109375 117.226562 " clip-rule="nonzero"/></clipPath></defs><rect x="-37.5" width="450" fill="#ffffff" y="-37.499999" height="449.999989" fill-opacity="1"/><rect x="-37.5" width="450" fill="#ffffff" y="-37.499999" height="449.999989" fill-opacity="1"/><rect x="-37.5" width="450" fill="#ffffff" y="-37.499999" height="449.999989" fill-opacity="1"/><g clip-path="url(#cca30b0053)"><path fill="#000000" d="M 187.578125 286.578125 C 135.371094 286.578125 93.078125 243.996094 93.078125 192.078125 C 93.078125 140.164062 135.371094 97.578125 187.578125 97.578125 C 239.789062 97.578125 282.078125 139.871094 282.078125 192.078125 C 282.078125 244.289062 239.496094 286.578125 187.578125 286.578125 Z M 187.578125 103.414062 C 138.578125 103.414062 98.914062 143.078125 98.914062 192.078125 C 98.914062 241.078125 138.578125 280.746094 187.578125 280.746094 C 236.578125 280.746094 276.246094 241.078125 276.246094 192.078125 C 276.246094 143.078125 236.289062 103.414062 187.578125 103.414062 Z M 187.578125 103.414062 " fill-opacity="1" fill-rule="nonzero"/></g><g clip-path="url(#f531c4ea8d)"><path fill="#000000" d="M 266.648438 204.9375 C 264.113281 203.355469 261.246094 201.566406 255.765625 201.566406 C 250.28125 201.566406 247.414062 203.355469 244.878906 204.9375 C 242.441406 206.457031 240.335938 207.769531 235.875 207.769531 C 231.410156 207.769531 229.304688 206.457031 226.867188 204.9375 C 224.335938 203.355469 221.464844 201.566406 215.984375 201.566406 C 210.503906 201.566406 207.636719 203.355469 205.101562 204.9375 C 202.664062 206.457031 200.5625 207.769531 196.097656 207.769531 C 191.632812 207.769531 189.527344 206.457031 187.09375 204.9375 C 184.558594 203.355469 181.6875 201.566406 176.207031 201.566406 C 170.730469 201.566406 167.859375 203.355469 165.324219 204.9375 C 162.890625 206.457031 160.785156 207.769531 156.320312 207.769531 C 151.859375 207.769531 149.753906 206.457031 147.316406 204.9375 C 144.785156 203.355469 141.914062 201.566406 136.433594 201.566406 C 130.953125 201.566406 128.082031 203.355469 125.550781 204.9375 C 123.113281 206.457031 121.007812 207.769531 116.546875 207.769531 C 112.082031 207.769531 109.976562 206.457031 107.539062 204.9375 C 105.46875 203.644531 103.171875 202.210938 99.40625 201.734375 L 99.40625 205.308594 C 102.109375 205.730469 103.789062 206.777344 105.660156 207.945312 C 108.195312 209.523438 111.066406 211.316406 116.546875 211.316406 C 122.027344 211.316406 124.894531 209.523438 127.429688 207.945312 C 129.863281 206.425781 131.96875 205.109375 136.433594 205.109375 C 140.898438 205.109375 143 206.425781 145.4375 207.945312 C 147.972656 209.523438 150.839844 211.316406 156.320312 211.316406 C 161.800781 211.316406 164.671875 209.523438 167.203125 207.945312 C 169.640625 206.425781 171.746094 205.109375 176.207031 205.109375 C 180.671875 205.109375 182.777344 206.425781 185.214844 207.945312 C 187.746094 209.523438 190.617188 211.316406 196.097656 211.316406 C 201.578125 211.316406 204.449219 209.523438 206.980469 207.945312 C 209.417969 206.425781 211.519531 205.109375 215.984375 205.109375 C 220.449219 205.109375 222.554688 206.425781 224.992188 207.945312 C 227.523438 209.523438 230.394531 211.316406 235.875 211.316406 C 241.355469 211.316406 244.226562 209.523438 246.757812 207.945312 C 249.195312 206.425781 251.300781 205.109375 255.765625 205.109375 C 260.226562 205.109375 262.332031 206.425781 264.769531 207.945312 C 267.304688 209.523438 270.175781 211.316406 275.65625 211.316406 L 275.65625 207.769531 C 271.191406 207.769531 269.085938 206.457031 266.648438 204.9375 " fill-opacity="1" fill-rule="nonzero"/></g><g clip-path="url(#7d36fa07e1)"><path fill="#000000" d="M 266.648438 195.375 C 264.113281 193.792969 261.246094 192.003906 255.765625 192.003906 C 250.28125 192.003906 247.414062 193.792969 244.878906 195.375 C 242.441406 196.894531 240.335938 198.207031 235.875 198.207031 C 231.410156 198.207031 229.304688 196.894531 226.867188 195.375 C 224.335938 193.792969 221.464844 192.003906 215.984375 192.003906 C 210.503906 192.003906 207.636719 193.792969 205.101562 195.375 C 202.664062 196.894531 200.5625 198.207031 196.097656 198.207031 C 191.632812 198.207031 189.527344 196.894531 187.09375 195.375 C 184.558594 193.792969 181.6875 192.003906 176.207031 192.003906 C 170.730469 192.003906 167.859375 193.792969 165.324219 195.375 C 162.890625 196.894531 160.785156 198.207031 156.320312 198.207031 C 151.859375 198.207031 149.753906 196.894531 147.316406 195.375 C 144.785156 193.792969 141.914062 192.003906 136.433594 192.003906 C 130.953125 192.003906 128.082031 193.792969 125.550781 195.375 C 123.113281 196.894531 121.007812 198.207031 116.546875 198.207031 C 112.082031 198.207031 109.976562 196.894531 107.539062 195.375 C 105.46875 194.082031 103.171875 192.648438 99.40625 192.171875 L 99.40625 195.746094 C 102.109375 196.167969 103.789062 197.214844 105.660156 198.382812 C 108.195312 199.960938 111.066406 201.753906 116.546875 201.753906 C 122.027344 201.753906 124.894531 199.960938 127.429688 198.382812 C 129.863281 196.863281 131.96875 195.546875 136.433594 195.546875 C 140.898438 195.546875 143 196.863281 145.4375 198.382812 C 147.972656 199.960938 150.839844 201.753906 156.320312 201.753906 C 161.800781 201.753906 164.671875 199.960938 167.203125 198.382812 C 169.640625 196.863281 171.746094 195.546875 176.207031 195.546875 C 180.671875 195.546875 182.777344 196.863281 185.214844 198.382812 C 187.746094 199.960938 190.617188 201.753906 196.097656 201.753906 C 201.578125 201.753906 204.449219 199.960938 206.980469 198.382812 C 209.417969 196.863281 211.519531 195.546875 215.984375 195.546875 C 220.449219 195.546875 222.554688 196.863281 224.992188 198.382812 C 227.523438 199.960938 230.394531 201.753906 235.875 201.753906 C 241.355469 201.753906 244.226562 199.960938 246.757812 198.382812 C 249.195312 196.863281 251.300781 195.546875 255.765625 195.546875 C 260.226562 195.546875 262.332031 196.863281 264.769531 198.382812 C 267.304688 199.960938 270.175781 201.753906 275.65625 201.753906 L 275.65625 198.207031 C 271.191406 198.207031 269.085938 196.894531 266.648438 195.375 " fill-opacity="1" fill-rule="nonzero"/></g><g fill="#000000" fill-opacity="1"><g transform="translate(131.907975, 241.452656)"><g><path d="M 10.878906 -24.253906 L 7.902344 -18.078125 L 4.894531 -24.253906 L 0 -24.253906 L 0 -0.03125 L 4.640625 -0.03125 L 4.640625 -14.238281 L 7.933594 -7.488281 L 11.132812 -14.109375 L 11.132812 -0.03125 L 15.773438 -0.03125 L 15.773438 -24.253906 Z M 10.878906 -24.253906 "/></g></g></g><g fill="#000000" fill-opacity="1"><g transform="translate(149.279705, 241.452656)"><g><path d="M 4.640625 -24.253906 L 0 -24.253906 L 0 -0.03125 L 4.640625 -0.03125 Z M 4.640625 -24.253906 "/></g></g></g><g fill="#000000" fill-opacity="1"><g transform="translate(155.518176, 241.452656)"><g><path d="M 8.734375 -24.21875 L 0 -24.21875 L 0 -0.03125 L 8.734375 -0.03125 C 11.710938 -0.03125 14.109375 -2.464844 14.109375 -5.40625 L 14.109375 -18.84375 C 14.109375 -21.820312 11.710938 -24.21875 8.734375 -24.21875 Z M 9.503906 -5.40625 C 9.503906 -4.992188 9.152344 -4.671875 8.734375 -4.671875 L 4.640625 -4.671875 L 4.640625 -19.613281 L 8.734375 -19.613281 C 9.152344 -19.613281 9.503906 -19.261719 9.503906 -18.84375 Z M 9.503906 -5.40625 "/></g></g></g><g fill="#000000" fill-opacity="1"><g transform="translate(171.226313, 241.452656)"><g><path d="M 20.667969 -24.1875 L 16.703125 -7.964844 L 14.046875 -21.851562 L 9.34375 -21.851562 L 10.140625 -17.628906 L 7.773438 -7.964844 L 4.703125 -24.1875 L 0 -24.1875 L 4.574219 0.03125 L 10.558594 0.03125 L 12.222656 -6.6875 L 13.5 0.03125 L 19.484375 0.03125 L 25.4375 -24.1875 Z M 20.667969 -24.1875 "/></g></g></g><g fill="#000000" fill-opacity="1"><g transform="translate(198.25967, 241.452656)"><g><path d="M 12.828125 -24.21875 L 0 -24.253906 L 0 -0.03125 L 12.828125 -0.03125 L 12.828125 -4.671875 L 4.640625 -4.671875 L 4.640625 -10.460938 L 9.917969 -10.460938 L 9.917969 -15.101562 L 4.640625 -15.101562 L 4.640625 -19.613281 L 12.828125 -19.613281 Z M 12.828125 -24.21875 "/></g></g></g><g fill="#000000" fill-opacity="1"><g transform="translate(212.688129, 241.452656)"><g><path d="M 0 -17.628906 C 0 -13.148438 2.625 -10.527344 7.230469 -10.398438 L 7.964844 -10.398438 C 8.511719 -10.398438 9.597656 -10.398438 9.597656 -8.765625 L 9.597656 -6.464844 C 9.597656 -5.597656 8.382812 -4.605469 6.65625 -4.605469 L 0.574219 -4.605469 L 0.574219 0.03125 L 6.65625 0.03125 C 10.8125 0.03125 14.207031 -2.878906 14.207031 -6.464844 L 14.207031 -8.765625 C 14.207031 -11.773438 12.253906 -15.039062 7.964844 -15.039062 L 7.550781 -15.039062 C 5.4375 -15.039062 4.640625 -15.515625 4.640625 -17.628906 C 4.640625 -18.363281 5.566406 -19.582031 6.269531 -19.582031 L 8.832031 -19.582031 L 13.46875 -19.550781 L 13.46875 -24.1875 L 5.695312 -24.1875 C 2.464844 -23.835938 0 -20.507812 0 -17.628906 Z M 0 -17.628906 "/></g></g></g><g fill="#000000" fill-opacity="1"><g transform="translate(228.492247, 241.452656)"><g><path d="M 0 -24.15625 L 0 -19.550781 L 6.207031 -19.550781 L 6.207031 0.03125 L 10.8125 0.03125 L 10.8125 -19.550781 L 17.019531 -19.550781 L 17.019531 -24.15625 L 10.8125 -24.15625 L 10.8125 -24.1875 L 6.207031 -24.1875 L 6.207031 -24.15625 Z M 0 -24.15625 "/></g></g></g><g fill="#000000" fill-opacity="1"><g transform="translate(148.150161, 269.952654)"><g><path d="M 12.863281 -24.21875 L 5.375 -24.21875 C 2.398438 -24.21875 0 -21.820312 0 -18.878906 L 0 -5.40625 C 0 -2.429688 2.398438 -0.03125 5.375 -0.03125 L 12.863281 -0.03125 L 12.863281 -4.671875 L 5.375 -4.671875 C 4.960938 -4.671875 4.640625 -4.992188 4.640625 -5.40625 L 4.640625 -18.878906 C 4.640625 -19.261719 4.960938 -19.613281 5.375 -19.613281 L 12.863281 -19.613281 Z M 12.863281 -24.21875 "/></g></g></g><g fill="#000000" fill-opacity="1"><g transform="translate(162.610606, 269.952654)"><g><path d="M 8.734375 -24.15625 L 5.375 -24.15625 C 2.429688 -24.15625 0 -21.757812 0 -18.78125 L 0 -5.34375 C 0 -2.367188 2.429688 0.03125 5.375 0.03125 L 8.734375 0.03125 C 11.710938 0.03125 14.109375 -2.367188 14.109375 -5.34375 L 14.109375 -18.78125 C 14.109375 -21.757812 11.710938 -24.15625 8.734375 -24.15625 Z M 9.503906 -5.34375 C 9.503906 -4.925781 9.152344 -4.605469 8.734375 -4.605469 L 5.375 -4.605469 C 4.960938 -4.605469 4.640625 -4.925781 4.640625 -5.34375 L 4.640625 -18.78125 C 4.640625 -19.195312 4.960938 -19.550781 5.375 -19.550781 L 8.734375 -19.550781 C 9.152344 -19.550781 9.503906 -19.195312 9.503906 -18.78125 Z M 9.503906 -5.34375 "/></g></g></g><g fill="#000000" fill-opacity="1"><g transform="translate(178.318742, 269.952654)"><g><path d="M 5.984375 -4.832031 L 10.910156 -4.832031 L 11.839844 -0.03125 L 16.542969 -0.03125 L 11.902344 -24.253906 L 9.535156 -24.253906 L 9.46875 -24.21875 L 8.445312 -24.21875 L 8.414062 -24.253906 L 6.046875 -24.253906 L 6.046875 -24.21875 L 0 -0.03125 L 4.800781 -0.03125 Z M 8.765625 -16.03125 L 10.015625 -9.46875 L 7.136719 -9.46875 Z M 8.765625 -16.03125 "/></g></g></g><g fill="#000000" fill-opacity="1"><g transform="translate(196.458279, 269.952654)"><g><path d="M 0 -17.628906 C 0 -13.148438 2.625 -10.527344 7.230469 -10.398438 L 7.964844 -10.398438 C 8.511719 -10.398438 9.597656 -10.398438 9.597656 -8.765625 L 9.597656 -6.464844 C 9.597656 -5.597656 8.382812 -4.605469 6.65625 -4.605469 L 0.574219 -4.605469 L 0.574219 0.03125 L 6.65625 0.03125 C 10.8125 0.03125 14.207031 -2.878906 14.207031 -6.464844 L 14.207031 -8.765625 C 14.207031 -11.773438 12.253906 -15.039062 7.964844 -15.039062 L 7.550781 -15.039062 C 5.4375 -15.039062 4.640625 -15.515625 4.640625 -17.628906 C 4.640625 -18.363281 5.566406 -19.582031 6.269531 -19.582031 L 8.832031 -19.582031 L 13.46875 -19.550781 L 13.46875 -24.1875 L 5.695312 -24.1875 C 2.464844 -23.835938 0 -20.507812 0 -17.628906 Z M 0 -17.628906 "/></g></g></g><g fill="#000000" fill-opacity="1"><g transform="translate(212.262397, 269.952654)"><g><path d="M 0 -24.15625 L 0 -19.550781 L 6.207031 -19.550781 L 6.207031 0.03125 L 10.8125 0.03125 L 10.8125 -19.550781 L 17.019531 -19.550781 L 17.019531 -24.15625 L 10.8125 -24.15625 L 10.8125 -24.1875 L 6.207031 -24.1875 L 6.207031 -24.15625 Z M 0 -24.15625 "/></g></g></g><g clip-path="url(#af6b5e6189)"><path fill="#000000" d="M 97.109375 183.175781 L 142.621094 140.761719 L 149.128906 147.285156 L 160.832031 135.53125 L 166.851562 139.601562 L 181.628906 117.253906 L 219.34375 147.285156 L 241.441406 147.285156 L 277.859375 179.46875 L 240.582031 152.933594 L 237.320312 156.203125 L 237.320312 151.625 L 218.902344 152.5 L 182.507812 125.09375 L 171.234375 142.914062 L 183.589844 155.332031 L 161.257812 142.054688 L 134.179688 169.261719 L 146.09375 151.203125 L 142.246094 147.335938 Z M 97.109375 183.175781 " fill-opacity="1" fill-rule="nonzero"/></g></svg>