<svg xmlns="http://www.w3.org/2000/svg" xmlns:xlink="http://www.w3.org/1999/xlink" width="500" zoomAndPan="magnify" viewBox="0 0 375 374.999991" height="500" preserveAspectRatio="xMidYMid meet" version="1.0"><defs><g/><clipPath id="02df9e1b65"><path d="M 90 139 L 263.964844 139 L 263.964844 245.953125 L 90 245.953125 Z M 90 139 " clip-rule="nonzero"/></clipPath></defs><rect x="-37.5" width="450" fill="#ffffff" y="-37.499999" height="449.999989" fill-opacity="1"/><rect x="-37.5" width="450" fill="#ffffff" y="-37.499999" height="449.999989" fill-opacity="1"/><g fill="#000000" fill-opacity="1"><g transform="translate(69.485874, 243.198968)"><g><path d="M 39.578125 -62.6875 C 42.578125 -62.6875 45.738281 -62.765625 49.0625 -62.921875 L 59.609375 -16.46875 L 69.328125 -88.875 L 76.4375 -88.875 L 63.28125 0 L 56.875 0 L 45.140625 -59.015625 L 28.671875 0 L 22.28125 0 L 7.234375 -88.875 L 14.34375 -88.875 L 26.421875 -13.75 Z M 39.578125 -62.6875 "/></g></g></g><g fill="#000000" fill-opacity="1"><g transform="translate(147.087432, 243.198968)"><g/></g></g><g fill="#000000" fill-opacity="1"><g transform="translate(174.340619, 243.198968)"><g/></g></g><g fill="#000000" fill-opacity="1"><g transform="translate(201.591338, 243.198968)"><g><path d="M 10.1875 0 L 10.1875 -88.875 L 16.828125 -88.875 L 16.828125 -5.328125 L 41.125 -5.328125 L 41.125 0 Z M 10.1875 0 "/></g></g></g><g fill="#000000" fill-opacity="1"><g transform="translate(246.262867, 243.198968)"><g><path d="M 12.4375 0 L 12.4375 -88.875 L 30.6875 -88.875 C 43.644531 -88.875 53.398438 -85.140625 59.953125 -77.671875 C 66.515625 -70.210938 69.796875 -59.132812 69.796875 -44.4375 C 69.796875 -29.425781 66.875 -18.265625 61.03125 -10.953125 C 55.1875 -3.648438 46.257812 0 34.25 0 Z M 19.078125 -5.09375 L 33.765625 -5.09375 C 43.566406 -5.09375 50.835938 -8.3125 55.578125 -14.75 C 60.316406 -21.1875 62.6875 -31.082031 62.6875 -44.4375 C 62.6875 -57.394531 60.019531 -67.191406 54.6875 -73.828125 C 49.351562 -80.460938 41.429688 -83.78125 30.921875 -83.78125 L 19.078125 -83.78125 Z M 19.078125 -5.09375 "/></g></g></g><g clip-path="url(#02df9e1b65)"><path fill="#000000" d="M 129.03125 212.855469 C 129.066406 212.730469 129.101562 212.625 129.132812 212.578125 C 129.160156 212.566406 129.167969 212.523438 129.191406 212.5 C 129.132812 212.625 129.085938 212.746094 129.03125 212.855469 M 255.121094 206.890625 C 255.332031 206.917969 255.539062 206.945312 255.738281 206.953125 C 255.460938 206.839844 255.179688 206.726562 254.871094 206.609375 C 254.046875 205.6875 253.203125 204.757812 252.328125 203.816406 C 246.890625 197.933594 243.660156 194.957031 242.730469 194.957031 C 241.257812 194.957031 235.066406 201.714844 231.167969 206.15625 C 230.410156 205.050781 229.667969 203.960938 228.980469 202.957031 C 227.113281 200.183594 225.628906 198 224.890625 197.164062 C 222.78125 194.753906 216.484375 185.144531 214.820312 179.640625 C 213.089844 173.9375 205.722656 166.660156 205.40625 166.355469 C 205.320312 166.277344 205.230469 166.210938 205.117188 166.1875 C 203.164062 165.742188 202.417969 167.382812 201.699219 168.964844 C 201.382812 169.660156 201.03125 170.433594 200.546875 171.167969 C 199.671875 172.519531 192.117188 179.582031 187.476562 183.835938 C 186.28125 182.351562 184.78125 180.769531 184.582031 180.140625 C 184.304688 179.289062 185.160156 179.378906 185.984375 179.492188 C 186.804688 179.582031 187.460938 179.6875 187.460938 179.066406 C 187.460938 178.433594 187.351562 178.011719 187.351562 178.011719 C 187.351562 178.011719 186.554688 178.160156 185.878906 177.664062 C 185.210938 177.15625 185.058594 176.535156 184.332031 176.535156 C 183.609375 176.535156 183.359375 176.359375 183.433594 175.609375 C 183.511719 174.847656 183.261719 173.417969 184.710938 174.25 C 186.15625 175.074219 187.351562 175.023438 187.433594 174.371094 C 187.503906 173.726562 187.878906 172.5 186.855469 171.726562 C 185.835938 170.949219 183.863281 167.6875 184.25 166.429688 C 184.652344 165.179688 185.609375 164.660156 186.324219 165.28125 C 187.058594 165.898438 189.433594 167.011719 189.226562 165.574219 C 189.027344 164.148438 185.035156 159.761719 183.957031 158.980469 C 182.890625 158.207031 182.359375 156.957031 182.382812 155.753906 C 182.402344 154.539062 181.964844 153.398438 182.503906 153.554688 C 183.058594 153.699219 184.453125 155.371094 184.757812 154.597656 C 184.757812 154.597656 185.035156 153.25 184.503906 152.847656 C 183.980469 152.4375 183.101562 152.164062 183.101562 151.285156 C 183.101562 150.410156 182.753906 148.011719 182.441406 147.027344 C 182.113281 146.054688 183.628906 137.953125 181.160156 139.511719 C 181.160156 139.511719 179.808594 140.261719 180.019531 141.511719 C 180.210938 142.773438 180.421875 142.867188 179.980469 144.570312 C 179.5625 146.285156 180.210938 148.285156 179.609375 149.886719 C 179.007812 151.484375 177.703125 154.394531 175.554688 155.753906 C 173.414062 157.101562 172.359375 157.453125 172.808594 158.15625 C 173.261719 158.859375 173.964844 159.210938 175.253906 158.15625 C 176.558594 157.101562 178.707031 154.742188 179.5625 155.007812 C 180.402344 155.25 179.101562 157.804688 178.609375 158.261719 C 178.117188 158.707031 175.0625 162.667969 174.007812 162.667969 C 172.96875 162.667969 173.511719 163.773438 173.414062 164.070312 C 173.304688 164.371094 172.613281 165.113281 173.117188 165.179688 C 173.613281 165.222656 177.761719 164.628906 178.308594 164.316406 C 178.859375 164.035156 178.761719 165.222656 178.210938 165.527344 C 177.660156 165.828125 176.359375 167.640625 175.207031 168.1875 C 174.066406 168.742188 172.207031 169.644531 171.621094 170.496094 C 171.011719 171.335938 170.410156 172.5 171.261719 172.550781 C 172.109375 172.59375 173.714844 170.847656 173.914062 171.335938 C 174.101562 171.839844 173.160156 173.191406 173.613281 173.855469 C 174.066406 174.511719 175.109375 174.007812 175.460938 174.847656 C 175.808594 175.699219 175.460938 175.355469 174.960938 176.359375 C 174.472656 177.335938 171.292969 179.859375 169.070312 180.992188 C 168.351562 179.925781 166.675781 177.539062 165.378906 176.292969 C 163.835938 174.8125 163.328125 173.296875 162.679688 170.242188 C 161.976562 166.828125 158.511719 164.75 158.378906 164.660156 C 158.234375 164.570312 158.066406 164.554688 157.910156 164.597656 C 157.757812 164.632812 157.625 164.730469 157.539062 164.875 C 157.472656 164.992188 150.929688 176.699219 149.792969 178.175781 C 149.394531 178.707031 148.886719 179.078125 148.335938 179.484375 C 147.382812 180.199219 146.292969 180.992188 145.484375 182.75 C 144.054688 185.855469 139.359375 195.382812 136.648438 198.347656 C 136.15625 198.886719 135.542969 199.851562 134.824219 201.074219 C 134.492188 200.496094 133.96875 199.652344 133.335938 198.972656 C 133.007812 198.613281 132.589844 198.207031 132.160156 197.804688 C 131.222656 196.917969 130.066406 195.8125 129.027344 194.375 C 128.023438 192.984375 127.152344 191.488281 126.3125 190.035156 C 125.855469 189.246094 125.417969 188.496094 124.988281 187.800781 C 123.6875 185.730469 116.394531 179.582031 115.207031 178.847656 C 114.882812 178.648438 114.476562 178.621094 114.082031 178.785156 C 112.59375 179.417969 110.980469 182.90625 110.617188 184.523438 C 110.316406 185.882812 108.476562 188.636719 106.519531 191.570312 C 105.867188 192.558594 105.171875 193.578125 104.511719 194.613281 C 101.796875 198.8125 90.035156 217.039062 90.035156 217.039062 L 91.050781 217.691406 C 91.050781 217.691406 102.800781 199.46875 105.519531 195.265625 C 106.175781 194.25 106.859375 193.222656 107.523438 192.238281 C 109.628906 189.085938 111.445312 186.355469 111.792969 184.785156 C 112.226562 182.777344 113.988281 179.894531 114.585938 179.875 C 115.695312 180.566406 122.769531 186.542969 123.960938 188.4375 C 124.398438 189.128906 124.828125 189.859375 125.269531 190.640625 C 126.125 192.121094 127.011719 193.636719 128.058594 195.078125 C 129.167969 196.605469 130.367188 197.753906 131.320312 198.671875 C 131.769531 199.085938 132.148438 199.453125 132.457031 199.792969 C 133.351562 200.761719 134.046875 202.125 134.140625 202.332031 C 134 202.582031 133.859375 202.855469 133.722656 203.109375 C 133.265625 203.234375 126.972656 204.832031 124.402344 202.976562 C 122.347656 201.746094 120.101562 203.039062 118.9375 204.054688 C 121.246094 203.171875 123.804688 203.460938 123.589844 204.667969 C 123.363281 205.878906 123.957031 206.855469 124.992188 206.59375 C 126.042969 206.355469 127.597656 207.371094 127.34375 208.085938 C 127.082031 208.820312 127.355469 209.488281 127.644531 209.867188 C 127.941406 210.265625 128.667969 210.832031 128.0625 211.523438 C 127.457031 212.195312 126.855469 211.613281 126.890625 213.554688 C 126.910156 215.496094 126.972656 215.90625 126.757812 216.285156 C 126.625 216.523438 126.410156 218 126.261719 219.085938 C 125.847656 220.054688 125.582031 220.683594 125.523438 220.8125 C 125.402344 221.113281 125.53125 221.464844 125.847656 221.613281 C 125.921875 221.636719 125.996094 221.65625 126.066406 221.65625 C 126.3125 221.65625 126.535156 221.519531 126.640625 221.285156 C 126.707031 221.101562 134.757812 202.191406 137.527344 199.175781 C 140.875 195.507812 146.519531 183.371094 146.574219 183.253906 C 147.253906 181.769531 148.171875 181.105469 149.042969 180.457031 C 149.636719 180.03125 150.253906 179.566406 150.746094 178.914062 C 151.792969 177.535156 156.914062 168.449219 158.277344 166.03125 C 159.1875 166.703125 161.058594 168.3125 161.515625 170.5 C 162.195312 173.746094 162.792969 175.46875 164.542969 177.160156 C 165.710938 178.28125 167.253906 180.464844 168 181.546875 C 166.402344 182.410156 165.492188 183.007812 164.363281 183.007812 C 163.035156 183.007812 162.734375 183.511719 162.734375 184.183594 C 162.734375 184.875 163.394531 184.8125 164.476562 184.8125 C 165.5625 184.8125 168.695312 183.59375 168.695312 185.460938 C 168.695312 187.335938 169.578125 188.3125 169.796875 188.019531 C 170.015625 187.722656 169.898438 187.226562 170.523438 187.226562 C 171.167969 187.226562 172.121094 187.988281 171.796875 188.3125 C 171.46875 188.652344 170.804688 189.703125 171.226562 190.132812 C 171.660156 190.582031 172.65625 190.769531 173.390625 190.769531 C 174.121094 190.769531 174.359375 189.601562 175.109375 189.601562 C 175.863281 189.601562 176.277344 190.191406 175.339844 191.136719 C 174.417969 192.0625 171.515625 193.113281 169.640625 193.527344 C 167.765625 193.933594 164.863281 194.253906 163.972656 195.773438 C 163.972656 195.773438 163.886719 196.785156 164.351562 196.707031 C 164.8125 196.625 165.457031 195.4375 168.015625 195.226562 C 170.5625 195.003906 171.820312 194.253906 172.011719 194.285156 C 172.207031 194.308594 171.761719 195.597656 170.632812 195.960938 C 169.492188 196.324219 168.015625 197.546875 167.046875 198.367188 C 166.078125 199.179688 165.246094 200.09375 165.246094 200.386719 C 165.246094 200.667969 165.640625 201.472656 166.191406 201.039062 C 166.753906 200.601562 166.894531 199.851562 168.320312 199.453125 C 169.730469 199.054688 169.59375 199.414062 170.597656 198.847656 C 171.585938 198.273438 172.433594 198.402344 172.359375 199.230469 C 172.292969 200.066406 171.769531 199.980469 170.945312 201.023438 C 170.109375 202.066406 169.796875 204.132812 169.03125 204.527344 C 168.265625 204.929688 163.148438 207.785156 163.097656 207.96875 C 163.054688 208.15625 163.800781 209.363281 165.632812 208.871094 C 167.464844 208.390625 169.105469 208.054688 170.269531 207.132812 C 171.429688 206.214844 172.894531 205.316406 172.894531 205.316406 C 172.894531 205.316406 172.527344 206.625 171.585938 207.761719 C 170.664062 208.894531 169.796875 209.289062 168.496094 209.53125 C 167.203125 209.765625 164.734375 211.535156 164.734375 211.628906 C 164.734375 211.734375 166.789062 211.90625 167.527344 212.671875 C 168.265625 213.433594 165.992188 213.867188 164.667969 213.714844 C 163.339844 213.542969 163.441406 213.664062 163.535156 214.4375 C 163.628906 215.210938 164.363281 215.210938 164.835938 216.042969 C 165.292969 216.875 164.332031 216.972656 164.667969 217.875 C 164.992188 218.773438 164.753906 220.457031 162.703125 220.296875 C 160.636719 220.125 159.640625 221.523438 159.472656 222.132812 C 159.296875 222.722656 161.464844 222.46875 162.828125 221.886719 C 164.191406 221.320312 165.5625 221.886719 165.5625 221.886719 C 164.097656 224.066406 160.601562 224.5 160.269531 224.527344 C 159.9375 224.5625 158.914062 224.8125 158.804688 225.007812 C 158.703125 225.199219 158.863281 227.914062 159.164062 228 C 159.472656 228.113281 160.960938 227.738281 165.726562 225.667969 C 170.496094 223.597656 170.632812 222.390625 171.058594 222.289062 C 171.492188 222.175781 171.261719 222.835938 170.996094 223.632812 C 170.726562 224.429688 169.636719 224.867188 170.433594 225.199219 C 171.226562 225.539062 172.65625 222.75 172.996094 222.660156 C 173.328125 222.558594 173.632812 223.429688 173.382812 224.664062 C 173.144531 225.902344 170.433594 228.046875 168.945312 229.042969 C 167.449219 230.046875 168.265625 230.421875 169.152344 230.308594 C 170.0625 230.21875 174.457031 226 174.894531 224.867188 C 175.335938 223.734375 175.996094 222.1875 176.402344 222.296875 C 176.808594 222.390625 176.398438 224.304688 175.957031 226.609375 C 175.523438 228.910156 175.1875 237.527344 175.1875 239.234375 C 175.1875 240.9375 175.460938 245.957031 175.460938 245.957031 L 176.523438 245.957031 C 176.523438 245.957031 176.789062 242.839844 177.1875 241.785156 C 177.59375 240.714844 177.660156 239.730469 177.46875 239.234375 C 177.253906 238.742188 177.15625 237.636719 177.46875 237.066406 C 177.761719 236.488281 177.503906 226.441406 177.503906 226.441406 C 177.503906 226.441406 178.65625 226.632812 179.5625 226.058594 C 180.464844 225.480469 181.179688 225.183594 181.710938 225.6875 C 182.238281 226.183594 183.375 227.160156 184.035156 226.789062 C 184.683594 226.417969 185.078125 225.984375 184.207031 225.238281 C 183.335938 224.488281 183.058594 224.640625 182.925781 223.632812 C 182.800781 222.628906 183.101562 222.777344 182.285156 222.148438 C 181.460938 221.523438 181.433594 221.226562 181.433594 221.226562 C 181.433594 221.226562 183.183594 220.246094 184.546875 221.445312 C 185.9375 222.648438 186.933594 224.71875 189.550781 225.828125 C 192.171875 226.960938 193.878906 227.859375 194.722656 228.320312 C 195.574219 228.769531 196.148438 228.671875 196.699219 228.886719 C 197.242188 229.117188 198.121094 229.839844 198.5 229.945312 C 198.867188 230.046875 199.359375 229.59375 199.25 229.367188 C 199.148438 229.152344 199.046875 229.042969 197.179688 227.160156 C 195.308594 225.277344 194.648438 224.609375 194 224.175781 C 193.351562 223.746094 190.257812 221.703125 189.550781 221.101562 C 188.855469 220.484375 188.875 219.394531 189.394531 219.503906 C 189.925781 219.59375 191.351562 220.523438 191.632812 220.484375 C 191.90625 220.476562 192.027344 219.714844 191.726562 219.34375 C 191.433594 218.96875 190.605469 219.03125 189.707031 217.222656 C 188.8125 215.410156 188.386719 214.882812 189.359375 214.679688 C 190.335938 214.480469 191.925781 215.253906 191.925781 215.253906 C 191.925781 215.253906 192.796875 214.285156 192.207031 213.851562 C 191.609375 213.433594 189.550781 212.097656 189.25 211.222656 C 188.949219 210.34375 189.359375 209.472656 189.910156 209.867188 C 190.460938 210.265625 192.105469 211.28125 192.253906 211.28125 C 192.40625 211.28125 193.277344 210.246094 192.253906 209.597656 C 191.234375 208.9375 190.40625 208.023438 189.726562 207.519531 C 189.300781 207.191406 189.433594 206.375 189.414062 205.382812 C 190.777344 204.074219 192.328125 202.300781 193.957031 200.445312 C 196.457031 197.601562 199.894531 193.71875 201.054688 193.71875 C 202.503906 193.730469 209.933594 202.492188 216.265625 210.957031 C 216.378906 211.113281 216.5625 211.199219 216.742188 211.199219 C 216.867188 211.199219 216.996094 211.148438 217.101562 211.085938 C 217.375 210.882812 217.421875 210.496094 217.226562 210.238281 C 214.105469 206.074219 203.738281 192.503906 201.054688 192.503906 C 199.460938 192.503906 196.964844 195.207031 193.050781 199.652344 C 191.734375 201.15625 190.394531 202.683594 189.191406 203.902344 C 189.167969 203.796875 189.128906 203.691406 189.085938 203.582031 C 188.386719 201.902344 187.058594 201.023438 187.28125 200.019531 C 187.492188 199.105469 188.261719 199.027344 188.238281 198.390625 C 189.042969 197.960938 189.746094 197.601562 190.128906 197.492188 C 191.25 197.1875 191.320312 197.070312 191.578125 196.625 C 191.855469 196.195312 192.464844 195.859375 193.261719 195.699219 C 194.054688 195.539062 194.085938 195.339844 194.382812 194.902344 C 194.6875 194.457031 195.4375 193.25 196.179688 193.015625 C 196.9375 192.765625 197.113281 192.503906 197.148438 192.050781 C 197.183594 191.589844 197.910156 190.074219 198.832031 189.675781 C 199.734375 189.265625 200.574219 190.125 201.230469 190.703125 C 201.890625 191.285156 202.621094 191.648438 203.203125 191.984375 C 203.78125 192.324219 205.609375 193.527344 205.609375 193.527344 C 204.160156 191.511719 202.878906 189.351562 202.785156 188.515625 C 202.683594 187.667969 202.289062 184.929688 200.148438 183.515625 C 199.015625 182.613281 199.097656 182.378906 199.015625 181.914062 C 198.921875 181.449219 198.148438 179.96875 197.660156 179.777344 C 197.660156 179.777344 199.167969 180.796875 197.28125 183.371094 C 197.757812 183.984375 198.621094 185.027344 197.53125 185.667969 C 196.441406 186.292969 196.761719 187.609375 196.621094 188.210938 C 196.496094 188.816406 196.09375 190.601562 194.164062 192.277344 C 192.226562 193.980469 191.867188 194.148438 191.242188 194.363281 C 190.613281 194.582031 190.484375 195.070312 190.339844 195.335938 C 190.261719 195.472656 189.449219 196.5 187.996094 197.710938 C 187.53125 196.832031 186.445312 195.507812 185.898438 194.78125 C 185.257812 193.894531 184.78125 193.113281 185.183594 192.949219 C 185.578125 192.765625 186.675781 192.949219 187.460938 194.011719 C 188.230469 195.058594 189.027344 195.882812 189.550781 195.703125 C 190.078125 195.53125 189.453125 193.421875 187.90625 192.402344 C 186.351562 191.367188 185.351562 190.890625 185.511719 190.121094 C 185.667969 189.347656 186.203125 189.4375 186.625 189.363281 C 187.058594 189.292969 187.078125 188.285156 187.460938 188.234375 C 187.828125 188.191406 188.753906 189.507812 189.683594 188.757812 C 190.605469 188.011719 189.652344 187.007812 188.5625 185.273438 C 188.460938 185.117188 188.347656 184.953125 188.214844 184.792969 C 192.179688 181.136719 200.519531 173.398438 201.550781 171.828125 C 202.085938 171.039062 202.460938 170.1875 202.789062 169.464844 C 203.523438 167.835938 203.898438 167.222656 204.691406 167.339844 C 205.683594 168.332031 212.148438 174.988281 213.679688 179.988281 C 215.378906 185.644531 221.824219 195.488281 223.988281 197.960938 C 224.671875 198.746094 226.214844 201.011719 228 203.636719 C 228.597656 204.519531 229.21875 205.4375 229.851562 206.359375 C 228.183594 205.367188 221.773438 201.523438 218.234375 198.8125 C 214.136719 195.648438 213.75 194.433594 213.035156 191.09375 C 212.328125 187.78125 211.050781 186.257812 209.894531 185.652344 C 208.746094 185.054688 209.226562 184.785156 209.15625 184.09375 C 209.070312 183.414062 208.15625 182.363281 208.15625 182.363281 C 208.15625 182.363281 209.265625 183.0625 209.867188 183.480469 C 210.46875 183.902344 211.085938 184.679688 212.191406 185.027344 C 213.277344 185.378906 214.398438 186.332031 215.625 187.695312 C 215.4375 186.835938 214.199219 185.054688 213.640625 184.53125 C 213.078125 184.007812 213.171875 183.84375 211.757812 181.449219 C 210.34375 179.03125 205.042969 174.988281 204.277344 174.324219 C 203.511719 173.660156 203.027344 173.726562 203.214844 174.75 C 204.609375 177.855469 202.710938 181.179688 202.710938 181.179688 C 206.734375 181.382812 206.882812 183.835938 206.90625 184.523438 C 206.933594 185.214844 206.8125 186.003906 208.796875 187.953125 C 210.785156 189.910156 210.617188 193.367188 210.601562 194.351562 C 210.589844 195.339844 211.136719 196.703125 211.601562 197.460938 C 212.066406 198.246094 215.589844 206.097656 217.921875 206.699219 C 217.414062 205.941406 214.601562 200.320312 214.839844 198.679688 C 219.285156 202.265625 226.203125 205.820312 229.984375 206.542969 C 233.210938 211.269531 236.671875 216.109375 238.5 217.3125 C 238.601562 217.386719 238.71875 217.421875 238.832031 217.421875 C 239.039062 217.421875 239.222656 217.320312 239.335938 217.140625 C 239.519531 216.863281 239.441406 216.492188 239.164062 216.304688 C 237.683594 215.324219 234.710938 211.28125 231.871094 207.171875 C 236.445312 201.976562 241.609375 196.585938 242.722656 196.171875 C 243.722656 196.59375 247.996094 200.875 252.453125 205.746094 C 250.628906 205.085938 248.695312 204.246094 247.070312 202.792969 C 246.152344 201.503906 244.664062 200.417969 244.324219 199.960938 C 243.976562 199.5 242.703125 199.0625 242.703125 199.0625 C 242.703125 199.0625 243.4375 199.792969 243.238281 201.191406 C 244.066406 202.105469 244.78125 202.335938 245.296875 203.25 C 245.808594 204.171875 246.324219 204.738281 246.324219 204.738281 C 246.265625 203.921875 246.324219 203.691406 246.324219 203.691406 C 246.324219 203.691406 247.761719 203.859375 248.4375 204.433594 C 248.914062 204.820312 250.992188 205.78125 253.0625 206.414062 C 256.917969 210.660156 260.792969 215.234375 262.734375 218.050781 C 262.839844 218.226562 263.035156 218.316406 263.21875 218.316406 C 263.347656 218.316406 263.464844 218.285156 263.566406 218.207031 C 263.832031 218.023438 263.902344 217.644531 263.722656 217.378906 C 262.097656 215.007812 258.878906 211.089844 255.121094 206.890625 " fill-opacity="1" fill-rule="nonzero"/></g><path fill="#000000" d="M 152.683594 195.234375 C 151.179688 196.101562 151.621094 197.925781 151.4375 198.765625 C 151.242188 199.59375 150.703125 202.050781 148.027344 204.390625 C 145.339844 206.746094 144.863281 206.964844 143.984375 207.269531 C 143.117188 207.578125 142.945312 208.25 142.742188 208.613281 C 142.546875 208.960938 139.015625 213.304688 133 216.03125 C 135.703125 215.371094 140.894531 212.042969 142.441406 211.613281 C 143.988281 211.175781 144.097656 211.019531 144.460938 210.417969 C 144.832031 209.804688 145.671875 209.332031 146.773438 209.121094 C 147.878906 208.914062 147.921875 208.636719 148.335938 208.023438 C 148.742188 207.410156 149.785156 205.742188 150.824219 205.40625 C 151.871094 205.066406 152.109375 204.703125 152.152344 204.074219 C 152.210938 203.441406 153.21875 201.335938 154.484375 200.785156 C 155.746094 200.222656 156.90625 201.414062 157.808594 202.203125 C 158.71875 203.011719 159.742188 203.519531 160.550781 203.984375 C 161.339844 204.453125 163.882812 206.128906 163.882812 206.128906 C 161.875 203.328125 160.101562 200.34375 159.957031 199.179688 C 159.816406 198 159.277344 194.222656 156.3125 192.261719 C 154.746094 191.015625 154.855469 190.691406 154.742188 190.046875 C 154.601562 189.40625 153.542969 187.347656 152.882812 187.074219 C 152.882812 187.074219 154.964844 188.484375 152.347656 192.0625 C 152.996094 192.90625 154.207031 194.363281 152.683594 195.234375 " fill-opacity="1" fill-rule="nonzero"/><path fill="#000000" d="M 207.714844 205.109375 C 207.316406 203.960938 207.121094 203.816406 206.398438 203.1875 C 205.683594 202.5625 203.398438 200.183594 202.539062 198.65625 C 201.679688 197.144531 200.628906 196.246094 199.539062 196.101562 C 200.972656 198.023438 201.769531 200.03125 201.847656 201.15625 C 202.390625 201.984375 202.539062 203.34375 202.539062 203.34375 C 202.539062 203.34375 202.855469 202.757812 202.59375 201.15625 C 202.824219 201.960938 205.144531 203.960938 205.609375 204.105469 C 206.085938 204.257812 206.144531 204.539062 206.625 204.996094 C 207.832031 207.433594 210.574219 210.128906 211.691406 209.894531 C 211.0625 209.378906 208.117188 206.265625 207.714844 205.109375 " fill-opacity="1" fill-rule="nonzero"/></svg>