<?xml version="1.0" encoding="UTF-8" standalone="no"?>
<svg
   width="664"
   zoomAndPan="magnify"
   viewBox="0 0 498 436.499987"
   height="582"
   preserveAspectRatio="xMidYMid meet"
   version="1.0"
   id="svg98"
   sodipodi:docname="Surpoint (4).svg"
   inkscape:version="1.2.1 (9c6d41e4, 2022-07-14)"
   xmlns:inkscape="http://www.inkscape.org/namespaces/inkscape"
   xmlns:sodipodi="http://sodipodi.sourceforge.net/DTD/sodipodi-0.dtd"
   xmlns="http://www.w3.org/2000/svg"
   xmlns:svg="http://www.w3.org/2000/svg">
  <sodipodi:namedview
     id="namedview100"
     pagecolor="#505050"
     bordercolor="#eeeeee"
     borderopacity="1"
     inkscape:showpageshadow="0"
     inkscape:pageopacity="0"
     inkscape:pagecheckerboard="0"
     inkscape:deskcolor="#505050"
     showgrid="false"
     inkscape:zoom="0.40549828"
     inkscape:cx="288.5339"
     inkscape:cy="278.66949"
     inkscape:window-width="1309"
     inkscape:window-height="456"
     inkscape:window-x="0"
     inkscape:window-y="25"
     inkscape:window-maximized="0"
     inkscape:current-layer="svg98" />
  <defs
     id="defs16">
    <g
       id="g2" />
    <clipPath
       id="f5b9cb9409">
      <path
         d="M 106.660156 75.660156 L 391.332031 75.660156 L 391.332031 360.335938 L 106.660156 360.335938 Z M 106.660156 75.660156 "
         clip-rule="nonzero"
         id="path4" />
    </clipPath>
    <clipPath
       id="0f9df529fe">
      <path
         d="M 116 218 L 382 218 L 382 232.984375 L 116 232.984375 Z M 116 218 "
         clip-rule="nonzero"
         id="path7" />
    </clipPath>
    <clipPath
       id="f5676d5d5b">
      <path
         d="M 116 232.414062 L 382 232.414062 L 382 247.398438 L 116 247.398438 Z M 116 232.414062 "
         clip-rule="nonzero"
         id="path10" />
    </clipPath>
    <clipPath
       id="c38ab13310">
      <path
         d="M 112.734375 105.277344 L 391.417969 105.277344 L 391.417969 206.410156 L 112.734375 206.410156 Z M 112.734375 105.277344 "
         clip-rule="nonzero"
         id="path13" />
    </clipPath>
  </defs>
  <g
     clip-path="url(#f5b9cb9409)"
     id="g20"
     transform="matrix(1.4806559,0,0,1.4806559,-117.85157,-102.93349)">
    <path
       fill="#ffffff"
       d="m 248.99609,360.33594 c -78.63672,0 -142.33593,-64.14063 -142.33593,-142.33985 0,-78.19531 63.69921,-142.335934 142.33593,-142.335934 78.63672,0 142.33594,63.699214 142.33594,142.335934 0,78.63672 -64.13672,142.33985 -142.33594,142.33985 z m 0,-275.890628 c -73.80468,0 -133.55078,59.746098 -133.55078,133.550778 0,73.80469 59.7461,133.55078 133.55078,133.55078 73.80469,0 133.55078,-59.74609 133.55078,-133.55078 0,-73.80468 -60.18359,-133.550778 -133.55078,-133.550778 z m 0,0"
       fill-opacity="1"
       fill-rule="nonzero"
       id="path18" />
  </g>
  <g
     fill="#ffffff"
     fill-opacity="1"
     id="g28"
     transform="matrix(1.4806559,0,0,1.4806559,-117.85157,-102.93349)">
    <g
       transform="translate(137.67688,292.55845)"
       id="g26">
      <g
         id="g24">
        <path
           d="m 15.546875,-17.46875 c 3.238281,1.761719 5.476563,3.324219 6.71875,4.6875 1.25,1.367188 1.875,3.121094 1.875,5.265625 0,2.574219 -1.074219,4.570313 -3.21875,5.984375 C 18.773438,-0.125 15.742188,0.578125 11.828125,0.578125 9.953125,0.578125 8.175781,0.40625 6.5,0.0625 4.832031,-0.28125 3.398438,-0.722656 2.203125,-1.265625 l -0.25,-6.828125 4.4375,-0.53125 1.546875,4.96875 c 0.601562,0.179688 1.253906,0.3125 1.953125,0.40625 0.695313,0.09375 1.40625,0.140625 2.125,0.140625 0.8125,0 1.578125,-0.046875 2.296875,-0.140625 0.71875,-0.09375 1.390625,-0.226562 2.015625,-0.40625 0.07031,-0.28125 0.117187,-0.597656 0.140625,-0.953125 0.03125,-0.363281 0.04687,-0.710937 0.04687,-1.046875 0,-1.132812 -0.4375,-2.125 -1.3125,-2.96875 -0.867187,-0.84375 -2.625,-2.019531 -5.28125,-3.53125 -3.023437,-1.644531 -5.140625,-3.101562 -6.359375,-4.375 -1.21875,-1.269531 -1.828125,-2.929688 -1.828125,-4.984375 0,-2.34375 1.035156,-4.191406 3.109375,-5.546875 2.082031,-1.363281 5.070312,-2.046875 8.96875,-2.046875 1.382812,0 2.867188,0.152344 4.453125,0.453125 1.582031,0.292969 3.117187,0.734375 4.609375,1.328125 l 0.234375,6.875 -4.4375,0.515625 -1.609375,-5.09375 c -0.5625,-0.144531 -1.148438,-0.25 -1.75,-0.3125 -0.605469,-0.0625 -1.167969,-0.09375 -1.6875,-0.09375 -0.667969,0 -1.367188,0.05469 -2.09375,0.15625 -0.730469,0.09375 -1.375,0.230469 -1.9375,0.40625 -0.085938,0.28125 -0.148438,0.589844 -0.1875,0.921875 -0.03125,0.335937 -0.046875,0.667969 -0.046875,1 0,0.824219 0.375,1.585937 1.125,2.28125 0.757813,0.699219 2.445313,1.765625 5.0625,3.203125 z m 0,0"
           id="path22" />
      </g>
    </g>
  </g>
  <g
     fill="#ffffff"
     fill-opacity="1"
     id="g36"
     transform="matrix(1.4806559,0,0,1.4806559,-117.85157,-102.93349)">
    <g
       transform="translate(162.96607,292.55845)"
       id="g34">
      <g
         id="g32">
        <path
           d="m 11.59375,-9.8125 c 0,2.3125 0.332031,4.011719 1,5.09375 0.664062,1.074219 1.726562,1.609375 3.1875,1.609375 0.945312,0 1.957031,-0.347656 3.03125,-1.046875 1.082031,-0.695312 2.113281,-1.648438 3.09375,-2.859375 V -24.53125 l -4.546875,-0.90625 0.53125,-3.09375 11.640625,-0.578125 V -4 L 33.296875,-3.109375 32.765625,0 23.953125,0.578125 22.4375,-3.578125 c -1.355469,1.386719 -2.828125,2.429687 -4.421875,3.125 -1.585937,0.6875 -3.289063,1.03125 -5.109375,1.03125 -2.980469,0 -5.214844,-0.832031 -6.703125,-2.5 C 4.710938,-3.585938 3.96875,-6.050781 3.96875,-9.3125 v -15.21875 l -3.765625,-0.90625 0.53125,-3.09375 10.859375,-0.578125 z m 0,0"
           id="path30" />
      </g>
    </g>
  </g>
  <g
     fill="#ffffff"
     fill-opacity="1"
     id="g44"
     transform="matrix(1.4806559,0,0,1.4806559,-117.85157,-102.93349)">
    <g
       transform="translate(197.56126,292.55845)"
       id="g42">
      <g
         id="g40">
        <path
           d="m 5.546875,-24.53125 -3.765625,-0.90625 0.53125,-3.09375 8.8125,-0.578125 1.53125,4.15625 c 0.769531,-1.4375 1.710938,-2.488281 2.828125,-3.15625 1.125,-0.664063 2.429687,-1 3.921875,-1 0.695312,0 1.429688,0.101563 2.203125,0.296875 0.78125,0.1875 1.492187,0.453125 2.140625,0.796875 l -0.65625,7.96875 h -5.046875 l -0.71875,-4.96875 c -0.125,-0.03125 -0.25,-0.05078 -0.375,-0.0625 -0.117187,-0.01953 -0.226563,-0.03125 -0.328125,-0.03125 -0.53125,0 -1.101562,0.324219 -1.703125,0.96875 -0.605469,0.636719 -1.1875,1.511719 -1.75,2.625 V -4 l 4.625,0.890625 L 17.28125,0 H 2.3125 L 1.78125,-3.109375 5.546875,-4 Z m 0,0"
           id="path38" />
      </g>
    </g>
  </g>
  <g
     fill="#ffffff"
     fill-opacity="1"
     id="g52"
     transform="matrix(1.4806559,0,0,1.4806559,-117.85157,-102.93349)">
    <g
       transform="translate(221.72007,292.55845)"
       id="g50">
      <g
         id="g48">
        <path
           d="m 23.359375,-16.359375 c 0,-3.050781 -0.382813,-5.328125 -1.140625,-6.828125 -0.75,-1.5 -2,-2.25 -3.75,-2.25 -0.949219,0 -1.976562,0.367188 -3.078125,1.09375 -1.105469,0.730469 -2.140625,1.671875 -3.109375,2.828125 V -3.8125 c 0.851562,0.230469 1.703125,0.40625 2.546875,0.53125 0.84375,0.117188 1.597656,0.171875 2.265625,0.171875 0.945312,0 1.867188,-0.09375 2.765625,-0.28125 0.894531,-0.195313 1.644531,-0.453125 2.25,-0.765625 0.28125,-0.945312 0.554687,-2.28125 0.828125,-4 0.28125,-1.71875 0.421875,-3.410156 0.421875,-5.078125 z M 4.65625,-24.53125 0.890625,-25.4375 l 0.53125,-3.09375 8.8125,-0.578125 1.515625,4.15625 c 1.320312,-1.382813 2.753906,-2.421875 4.296875,-3.109375 1.550781,-0.695312 3.160156,-1.046875 4.828125,-1.046875 3.375,0 5.898438,0.992187 7.578125,2.96875 1.6875,1.96875 2.53125,4.933594 2.53125,8.890625 v 2.46875 c 0,4.71875 -1.21875,8.460938 -3.65625,11.21875 -2.429687,2.761719 -5.75,4.140625 -9.96875,4.140625 -0.898437,0 -1.761719,-0.0625 -2.59375,-0.1875 -0.835937,-0.125 -1.664063,-0.28125 -2.484375,-0.46875 v 7.5 l 3.765625,0.890625 -0.53125,3.125 H 1.421875 L 0.890625,8.3125 4.65625,7.421875 Z m 0,0"
           id="path46" />
      </g>
    </g>
  </g>
  <g
     fill="#ffffff"
     fill-opacity="1"
     id="g60"
     transform="matrix(1.4806559,0,0,1.4806559,-117.85157,-102.93349)">
    <g
       transform="translate(254.42252,292.55845)"
       id="g58">
      <g
         id="g56">
        <path
           d="m 14.890625,0.578125 c -4.230469,0 -7.5,-1.015625 -9.8125,-3.046875 C 2.773438,-4.5 1.625,-7.347656 1.625,-11.015625 v -2.453125 c 0,-4.882812 1.269531,-8.710938 3.8125,-11.484375 2.539062,-2.769531 5.914062,-4.15625 10.125,-4.15625 4.175781,0 7.460938,1.011719 9.859375,3.03125 2.40625,2.011719 3.609375,4.953125 3.609375,8.828125 v 2.46875 c 0,4.679688 -1.257812,8.40625 -3.765625,11.1875 -2.5,2.78125 -5.960937,4.171875 -10.375,4.171875 z m 6.515625,-16.9375 c 0,-2.945313 -0.609375,-5.195313 -1.828125,-6.75 -1.21875,-1.550781 -2.765625,-2.328125 -4.640625,-2.328125 -0.84375,0 -1.648438,0.101562 -2.40625,0.296875 -0.75,0.1875 -1.402344,0.445313 -1.953125,0.765625 -0.40625,1.230469 -0.730469,2.664062 -0.96875,4.296875 -0.242187,1.625 -0.359375,3.304687 -0.359375,5.03125 v 3.140625 c 0,2.804688 0.617188,4.96875 1.859375,6.5 1.25,1.53125 2.78125,2.296875 4.59375,2.296875 0.875,0 1.691406,-0.09375 2.453125,-0.28125 0.757812,-0.195313 1.40625,-0.453125 1.9375,-0.765625 0.382812,-1 0.695312,-2.289062 0.9375,-3.875 0.25,-1.59375 0.375,-3.328125 0.375,-5.203125 z m 0,0"
           id="path54" />
      </g>
    </g>
  </g>
  <g
     fill="#ffffff"
     fill-opacity="1"
     id="g68"
     transform="matrix(1.4806559,0,0,1.4806559,-117.85157,-102.93349)">
    <g
       transform="translate(285.12707,292.55845)"
       id="g66">
      <g
         id="g64">
        <path
           d="M 13.171875,-4 16.9375,-3.109375 16.40625,0 H 2.3125 L 1.78125,-3.109375 5.546875,-4 V -24.53125 L 1.78125,-25.4375 2.3125,-28.53125 13.171875,-29.109375 Z m -8.28125,-32.6875 c 0,-1.238281 0.328125,-2.328125 0.984375,-3.265625 0.65625,-0.945313 1.421875,-1.421875 2.296875,-1.421875 1.28125,0 2.375,0.328125 3.28125,0.984375 0.914063,0.648437 1.375,1.433594 1.375,2.359375 0,1.25 -0.335937,2.335938 -1,3.25 -0.667969,0.917969 -1.429687,1.375 -2.28125,1.375 -1.261719,0 -2.355469,-0.320312 -3.28125,-0.96875 -0.917969,-0.644531 -1.375,-1.414062 -1.375,-2.3125 z m 0,0"
           id="path62" />
      </g>
    </g>
  </g>
  <g
     fill="#ffffff"
     fill-opacity="1"
     id="g76"
     transform="matrix(1.4806559,0,0,1.4806559,-117.85157,-102.93349)">
    <g
       transform="translate(303.42361,292.55845)"
       id="g74">
      <g
         id="g72">
        <path
           d="M 1.78125,-3.109375 5.546875,-4 v -20.53125 l -3.765625,-0.90625 0.53125,-3.09375 8.8125,-0.578125 1.53125,4.15625 c 1.644531,-1.53125 3.253906,-2.601563 4.828125,-3.21875 1.582031,-0.625 3.25,-0.9375 5,-0.9375 2.976563,0 5.25,0.765625 6.8125,2.296875 1.5625,1.523438 2.34375,3.746094 2.34375,6.671875 V -4 l 3.75,0.890625 L 34.875,0 H 20.78125 L 20.25,-3.109375 24.015625,-4 v -15.75 c 0,-2.019531 -0.324219,-3.472656 -0.96875,-4.359375 C 22.410156,-24.992188 21.4375,-25.4375 20.125,-25.4375 c -0.9375,0 -2.007812,0.328125 -3.203125,0.984375 -1.199219,0.648437 -2.449219,1.625 -3.75,2.9375 V -4 L 16.9375,-3.109375 16.40625,0 H 2.3125 Z m 0,0"
           id="path70" />
      </g>
    </g>
  </g>
  <g
     fill="#ffffff"
     fill-opacity="1"
     id="g84"
     transform="matrix(1.4806559,0,0,1.4806559,-117.85157,-102.93349)">
    <g
       transform="translate(340.0167,292.55845)"
       id="g82">
      <g
         id="g80">
        <path
           d="m 18.375,-28.53125 0.53125,3.125 -7.09375,0.84375 v 16.890625 c 0,1.449219 0.226562,2.574219 0.6875,3.375 0.46875,0.792969 1.382812,1.1875 2.75,1.1875 0.507812,0 1.097656,-0.097656 1.765625,-0.296875 0.664063,-0.195312 1.304687,-0.4375 1.921875,-0.71875 v 3 c -0.949219,0.542969 -2.039062,0.960938 -3.265625,1.25 -1.230469,0.300781 -2.460937,0.453125 -3.6875,0.453125 -2.804687,0 -4.804687,-0.6132812 -6,-1.84375 C 4.785156,-2.503906 4.1875,-4.445312 4.1875,-7.09375 V -24.5625 l -3.984375,-0.84375 0.53125,-3.125 H 4.1875 l 1.90625,-7.703125 5.71875,0.515625 v 7.1875 z m 0,0"
           id="path78" />
      </g>
    </g>
  </g>
  <g
     clip-path="url(#0f9df529fe)"
     id="g88"
     transform="matrix(1.4806559,0,0,1.4806559,-117.85157,-102.93349)">
    <path
       fill="#ffffff"
       d="m 368.08203,223.18359 c -3.8125,-2.42578 -8.13672,-5.17968 -16.38672,-5.17968 -8.2539,0 -12.57812,2.7539 -16.39062,5.17968 -3.66797,2.33985 -6.83594,4.35547 -13.5586,4.35547 -6.72265,0 -9.89062,-2.01562 -13.55859,-4.35547 -3.8125,-2.42578 -8.13672,-5.17968 -16.38672,-5.17968 -8.25,0 -12.57422,2.7539 -16.38672,5.17968 -3.66797,2.33985 -6.83594,4.35547 -13.55859,4.35547 -6.72266,0 -9.89063,-2.01562 -13.5586,-4.35547 -3.8125,-2.42578 -8.13281,-5.17968 -16.38671,-5.17968 -8.25,0 -12.57032,2.7539 -16.38672,5.17968 -3.66797,2.33985 -6.83594,4.35547 -13.55469,4.35547 -6.72266,0 -9.89063,-2.01562 -13.55859,-4.35547 -3.8125,-2.42578 -8.13672,-5.17968 -16.38672,-5.17968 -8.25391,0 -12.57422,2.7539 -16.38672,5.17968 -3.66797,2.33985 -6.83594,4.35547 -13.5586,4.35547 -6.72265,0 -9.89062,-2.01562 -13.55859,-4.35547 -3.11719,-1.98437 -6.57812,-4.18359 -12.24609,-4.92187 v 5.5 c 4.07031,0.64453 6.59765,2.25 9.41797,4.04687 3.8125,2.42578 8.13671,5.17969 16.38671,5.17969 8.25391,0 12.57422,-2.75391 16.38672,-5.17969 3.66797,-2.33593 6.83594,-4.35547 13.5586,-4.35547 6.72265,0 9.89062,2.01954 13.55859,4.35547 3.8125,2.42578 8.13281,5.17969 16.38672,5.17969 8.25,0 12.57031,-2.75391 16.38281,-5.17969 3.67188,-2.33593 6.83985,-4.35547 13.5586,-4.35547 6.72265,0 9.89062,2.01954 13.55859,4.35547 3.8125,2.42578 8.13672,5.17969 16.38672,5.17969 8.25,0 12.57422,-2.75391 16.38672,-5.17969 3.66797,-2.33593 6.83593,-4.35547 13.55859,-4.35547 6.72266,0 9.89063,2.01954 13.55859,4.35547 3.8125,2.42578 8.13282,5.17969 16.38672,5.17969 8.25,0 12.57422,-2.75391 16.38672,-5.17969 3.66797,-2.33593 6.83985,-4.35547 13.5625,-4.35547 6.71875,0 9.89063,2.01954 13.5586,4.35547 3.8125,2.42578 8.13671,5.17969 16.38671,5.17969 v -5.44922 c -6.71875,0 -9.89062,-2.01562 -13.55859,-4.35547"
       fill-opacity="1"
       fill-rule="nonzero"
       id="path86" />
  </g>
  <g
     clip-path="url(#f5676d5d5b)"
     id="g92"
     transform="matrix(1.4806559,0,0,1.4806559,-117.85157,-102.93349)">
    <path
       fill="#ffffff"
       d="m 368.08203,237.60156 c -3.8125,-2.42969 -8.13672,-5.18359 -16.38672,-5.18359 -8.2539,0 -12.57812,2.7539 -16.39062,5.18359 -3.66797,2.33594 -6.83594,4.35156 -13.5586,4.35156 -6.72265,0 -9.89062,-2.01562 -13.55859,-4.35156 -3.8125,-2.42969 -8.13672,-5.18359 -16.38672,-5.18359 -8.25,0 -12.57422,2.7539 -16.38672,5.18359 -3.66797,2.33594 -6.83594,4.35156 -13.55859,4.35156 -6.72266,0 -9.89063,-2.01562 -13.5586,-4.35156 -3.8125,-2.42969 -8.13281,-5.18359 -16.38671,-5.18359 -8.25,0 -12.57032,2.7539 -16.38672,5.18359 -3.66797,2.33594 -6.83594,4.35156 -13.55469,4.35156 -6.72266,0 -9.89063,-2.01562 -13.55859,-4.35156 -3.8125,-2.42969 -8.13672,-5.18359 -16.38672,-5.18359 -8.25391,0 -12.57422,2.7539 -16.38672,5.18359 -3.66797,2.33594 -6.83594,4.35156 -13.5586,4.35156 -6.72265,0 -9.89062,-2.01562 -13.55859,-4.35156 -3.11719,-1.98437 -6.57812,-4.1875 -12.24609,-4.92578 v 5.5 c 4.07031,0.64844 6.59765,2.25 9.41797,4.04688 3.8125,2.42968 8.13671,5.17968 16.38671,5.17968 8.25391,0 12.57422,-2.75 16.38672,-5.17968 3.66797,-2.33594 6.83594,-4.35547 13.5586,-4.35547 6.72265,0 9.89062,2.01953 13.55859,4.35547 3.8125,2.42968 8.13281,5.17968 16.38672,5.17968 8.25,0 12.57031,-2.75 16.38281,-5.17968 3.67188,-2.33594 6.83985,-4.35547 13.5586,-4.35547 6.72265,0 9.89062,2.01953 13.55859,4.35547 3.8125,2.42968 8.13672,5.17968 16.38672,5.17968 8.25,0 12.57422,-2.75 16.38672,-5.17968 3.66797,-2.33594 6.83593,-4.35547 13.55859,-4.35547 6.72266,0 9.89063,2.01953 13.55859,4.35547 3.8125,2.42968 8.13282,5.17968 16.38672,5.17968 8.25,0 12.57422,-2.75 16.38672,-5.17968 3.66797,-2.33594 6.83985,-4.35547 13.5625,-4.35547 6.71875,0 9.89063,2.01953 13.5586,4.35547 3.8125,2.42968 8.13671,5.17968 16.38671,5.17968 v -5.44922 c -6.71875,0 -9.89062,-2.01562 -13.55859,-4.35156"
       fill-opacity="1"
       fill-rule="nonzero"
       id="path90" />
  </g>
  <g
     clip-path="url(#c38ab13310)"
     id="g96"
     transform="matrix(1.4806559,0,0,1.4806559,-117.85157,-102.93349)">
    <path
       fill="#ffffff"
       d="m 112.73438,206.33594 70.17187,-64.99219 10.03125,9.99219 18.04297,-18.00782 9.28125,6.23829 22.78515,-34.2461 58.14844,46.01563 h 34.07031 l 56.14844,49.32031 -57.47265,-40.66406 -5.03125,5.01562 v -7.01953 l -28.39063,1.33984 -56.11719,-41.99218 -17.38281,27.30859 19.05078,19.02344 -34.42969,-20.34766 -41.75,41.69141 18.3711,-27.67188 -5.9336,-5.92187 z m 0,0"
       fill-opacity="1"
       fill-rule="nonzero"
       id="path94" />
  </g>
</svg>
