<?xml version="1.0" encoding="UTF-8" standalone="no"?>
<!-- Created with Inkscape (http://www.inkscape.org/) -->

<svg
   width="4in"
   height="4in"
   viewBox="0 0 101.6 101.6"
   version="1.1"
   id="svg5"
   inkscape:version="1.2.1 (9c6d41e4, 2022-07-14)"
   xml:space="preserve"
   sodipodi:docname="surpoint.svg"
   xmlns:inkscape="http://www.inkscape.org/namespaces/inkscape"
   xmlns:sodipodi="http://sodipodi.sourceforge.net/DTD/sodipodi-0.dtd"
   xmlns="http://www.w3.org/2000/svg"
   xmlns:svg="http://www.w3.org/2000/svg"><sodipodi:namedview
     id="namedview7"
     pagecolor="#505050"
     bordercolor="#eeeeee"
     borderopacity="1"
     inkscape:showpageshadow="0"
     inkscape:pageopacity="0"
     inkscape:pagecheckerboard="true"
     inkscape:deskcolor="#505050"
     inkscape:document-units="mm"
     showgrid="false"
     inkscape:zoom="0.84053006"
     inkscape:cx="377.14296"
     inkscape:cy="194.52011"
     inkscape:window-width="1331"
     inkscape:window-height="673"
     inkscape:window-x="1440"
     inkscape:window-y="25"
     inkscape:window-maximized="0"
     inkscape:current-layer="layer1" /><defs
     id="defs2"><g
       id="g373" /><clipPath
       id="76ef736ab5"><path
         d="M 119.34375 74.945312 L 269.15625 74.945312 L 269.15625 152.847656 L 119.34375 152.847656 Z M 119.34375 74.945312 "
         clip-rule="nonzero"
         id="path375" /></clipPath><clipPath
       id="51b5dd055a"><path
         d="M 119.34375 98.351562 L 269.15625 98.351562 L 269.15625 153 L 119.34375 153 Z M 119.34375 98.351562 "
         clip-rule="nonzero"
         id="path378" /></clipPath><clipPath
       id="46beaa04b6"><path
         d="M 121 173.035156 L 268 173.035156 L 268 181.273438 L 121 181.273438 Z M 121 173.035156 "
         clip-rule="nonzero"
         id="path381" /></clipPath><clipPath
       id="458172ef10"><path
         d="M 121 160.488281 L 268 160.488281 L 268 168.726562 L 121 168.726562 Z M 121 160.488281 "
         clip-rule="nonzero"
         id="path384" /></clipPath></defs><g
     inkscape:label="Import"
     inkscape:groupmode="layer"
     id="layer1"><g
       id="g522"
       transform="matrix(0.6257 0 0 0.585704 -70.5871 -35.644)"><g
         clip-path="url(#76ef736ab5)"
         id="g391"><path
           fill="#000000"
           d="m 122.99219,149.19531 c 0,-38.98828 31.91015,-70.60156 71.26562,-70.60156 39.35156,0 71.26172,31.61328 71.26172,70.60156 z m -3.64063,3.65235 h 149.8125 v -3.65235 c 0,-10.02734 -1.98437,-19.75 -5.89453,-28.91406 -3.77734,-8.83984 -9.17969,-16.78516 -16.0625,-23.601562 -6.87891,-6.8125 -14.89062,-12.167969 -23.80859,-15.902344 -9.23438,-3.867188 -19.03907,-5.832032 -29.14063,-5.832032 -10.10547,0 -19.91015,1.964844 -29.14062,5.832032 -8.92188,3.734375 -16.92969,9.089844 -23.8125,15.902344 -6.88282,6.816402 -12.28516,14.761722 -16.0625,23.601562 -3.91016,9.16406 -5.89063,18.88672 -5.89063,28.91406 z m 0,0"
           fill-opacity="1"
           fill-rule="nonzero"
           id="path389" /></g><g
         clip-path="url(#51b5dd055a)"
         id="g395"><path
           fill="#000000"
           d="m 119.34375,152.99219 37.72266,-35.13672 5.39062,5.40234 9.69922,-9.73828 4.99219,3.375 12.24609,-18.515624 31.26172,24.878904 h 18.31641 l 30.18359,26.66406 -30.89844,-21.98437 -2.70312,2.71094 v -3.79688 l -15.26172,0.72657 -30.16797,-22.70313 -9.34375,14.76172 10.24219,10.28906 -18.51172,-11.0039 -22.44141,22.54296 9.875,-14.96093 -3.1914,-3.20313 z m 0,0"
           fill-opacity="1"
           fill-rule="nonzero"
           id="path393" /></g><g
         fill="#000000"
         fill-opacity="1"
         id="g403"><g
           transform="translate(118.282, 213.087)"
           id="g401"><g
             id="g399"><path
               d="m 10.609375,-11.921875 c 2.207031,1.199219 3.734375,2.265625 4.578125,3.203125 0.851562,0.929688 1.28125,2.125 1.28125,3.59375 0,1.75 -0.734375,3.109375 -2.203125,4.078125 -1.460937,0.9609375 -3.523437,1.4375 -6.1875,1.4375 C 6.796875,0.390625 5.582031,0.269531 4.4375,0.03125 3.300781,-0.195312 2.320312,-0.492188 1.5,-0.859375 L 1.328125,-5.53125 4.359375,-5.890625 5.421875,-2.5 c 0.40625,0.125 0.847656,0.21875 1.328125,0.28125 0.476562,0.0625 0.960938,0.09375 1.453125,0.09375 0.550781,0 1.070313,-0.03125 1.5625,-0.09375 0.488281,-0.0625 0.945313,-0.15625 1.375,-0.28125 0.05078,-0.1875 0.08203,-0.398438 0.09375,-0.640625 0.01953,-0.25 0.03125,-0.488281 0.03125,-0.71875 0,-0.78125 -0.296875,-1.457031 -0.890625,-2.03125 -0.585938,-0.570313 -1.789062,-1.375 -3.609375,-2.40625 -2.0625,-1.125 -3.511719,-2.117187 -4.34375,-2.984375 -0.824219,-0.863281 -1.234375,-1.992188 -1.234375,-3.390625 0,-1.601563 0.707031,-2.867187 2.125,-3.796875 1.414062,-0.925781 3.453125,-1.390625 6.109375,-1.390625 0.945313,0 1.960937,0.105469 3.046875,0.3125 1.082031,0.199219 2.128906,0.5 3.140625,0.90625 l 0.15625,4.6875 -3.03125,0.34375 -1.09375,-3.46875 c -0.375,-0.101563 -0.773437,-0.175781 -1.1875,-0.21875 -0.417969,-0.03906 -0.804687,-0.0625 -1.15625,-0.0625 -0.460937,0 -0.9375,0.03906 -1.4375,0.109375 -0.492187,0.0625 -0.929687,0.15625 -1.3125,0.28125 -0.0625,0.1875 -0.105469,0.398438 -0.125,0.625 -0.023437,0.230469 -0.03125,0.453125 -0.03125,0.671875 0,0.5625 0.253906,1.085937 0.765625,1.5625 0.519531,0.480469 1.671875,1.210937 3.453125,2.1875 z m 0,0"
               id="path397" /></g></g></g><g
         fill="#000000"
         fill-opacity="1"
         id="g411"><g
           transform="translate(135.54, 213.087)"
           id="g409"><g
             id="g407"><path
               d="m 7.90625,-6.6875 c 0,1.574219 0.226562,2.730469 0.6875,3.46875 0.457031,0.730469 1.179688,1.09375 2.171875,1.09375 0.644531,0 1.332031,-0.234375 2.0625,-0.703125 0.738281,-0.476563 1.445313,-1.132813 2.125,-1.96875 v -11.9375 l -3.109375,-0.625 0.359375,-2.109375 7.953125,-0.390625 v 17.125 L 22.71875,-2.125 22.359375,0 16.34375,0.390625 15.3125,-2.4375 c -0.929688,0.949219 -1.933594,1.65625 -3.015625,2.125 -1.085937,0.46875 -2.246094,0.703125 -3.484375,0.703125 -2.03125,0 -3.558594,-0.566406 -4.578125,-1.703125 -1.023437,-1.132812 -1.53125,-2.816406 -1.53125,-5.046875 v -10.375 l -2.5625,-0.625 L 0.5,-19.46875 7.90625,-19.859375 Z m 0,0"
               id="path405" /></g></g></g><g
         fill="#000000"
         fill-opacity="1"
         id="g419"><g
           transform="translate(159.148, 213.087)"
           id="g417"><g
             id="g415"><path
               d="m 3.78125,-16.734375 -2.5625,-0.625 0.359375,-2.109375 6.015625,-0.390625 1.03125,2.828125 c 0.53125,-0.976562 1.175781,-1.691406 1.9375,-2.140625 0.769531,-0.457031 1.664062,-0.6875 2.6875,-0.6875 0.46875,0 0.96875,0.07031 1.5,0.203125 0.53125,0.125 1.015625,0.308594 1.453125,0.546875 L 15.75,-13.671875 H 12.3125 L 11.828125,-17.0625 c -0.08594,-0.01953 -0.167969,-0.03516 -0.25,-0.04687 -0.08594,-0.01953 -0.164063,-0.03125 -0.234375,-0.03125 -0.367188,0 -0.757812,0.21875 -1.171875,0.65625 -0.40625,0.4375 -0.804687,1.042969 -1.1875,1.8125 v 11.9375 L 12.140625,-2.125 11.796875,0 H 1.578125 L 1.21875,-2.125 3.78125,-2.734375 Z m 0,0"
               id="path413" /></g></g></g><g
         fill="#000000"
         fill-opacity="1"
         id="g427"><g
           transform="translate(175.634, 213.087)"
           id="g425"><g
             id="g423"><path
               d="m 15.9375,-11.15625 c 0,-2.082031 -0.261719,-3.632812 -0.78125,-4.65625 -0.511719,-1.03125 -1.367188,-1.546875 -2.5625,-1.546875 -0.648438,0 -1.351562,0.25 -2.109375,0.75 -0.75,0.5 -1.453125,1.148437 -2.109375,1.9375 v 12.0625 c 0.59375,0.15625 1.175781,0.277344 1.75,0.359375 0.570312,0.085938 1.082031,0.125 1.53125,0.125 0.65625,0 1.285156,-0.0625 1.890625,-0.1875 0.613281,-0.132812 1.128906,-0.304688 1.546875,-0.515625 0.1875,-0.644531 0.375,-1.554687 0.5625,-2.734375 0.1875,-1.175781 0.28125,-2.332031 0.28125,-3.46875 z m -12.765625,-5.578125 -2.5625,-0.625 0.359375,-2.109375 6.015625,-0.390625 1.03125,2.828125 c 0.894531,-0.945312 1.875,-1.65625 2.9375,-2.125 1.0625,-0.46875 2.160156,-0.703125 3.296875,-0.703125 2.289062,0 4.007812,0.671875 5.15625,2.015625 1.15625,1.34375 1.734375,3.371094 1.734375,6.078125 v 1.6875 c 0,3.21875 -0.828125,5.773437 -2.484375,7.65625 -1.65625,1.875 -3.929688,2.8125 -6.8125,2.8125 -0.617188,0 -1.210938,-0.042969 -1.78125,-0.125 C 9.5,0.179688 8.9375,0.078125 8.375,-0.046875 V 5.0625 L 10.953125,5.671875 10.59375,7.8125 h -9.625 L 0.609375,5.671875 3.171875,5.0625 Z m 0,0"
               id="path421" /></g></g></g><g
         fill="#000000"
         fill-opacity="1"
         id="g435"><g
           transform="translate(197.95, 213.087)"
           id="g433"><g
             id="g431"><path
               d="m 10.15625,0.390625 c -2.886719,0 -5.117188,-0.691406 -6.6875,-2.078125 C 1.894531,-3.070312 1.109375,-5.015625 1.109375,-7.515625 V -9.1875 c 0,-3.332031 0.863281,-5.941406 2.59375,-7.828125 1.738281,-1.894531 4.046875,-2.84375 6.921875,-2.84375 2.84375,0 5.082031,0.6875 6.71875,2.0625 1.644531,1.375 2.46875,3.386719 2.46875,6.03125 v 1.6875 c 0,3.1875 -0.859375,5.730469 -2.578125,7.625 -1.710937,1.898437 -4.070313,2.84375 -7.078125,2.84375 z m 4.453125,-11.546875 c 0,-2.007812 -0.417969,-3.546875 -1.25,-4.609375 -0.835937,-1.0625 -1.890625,-1.59375 -3.171875,-1.59375 -0.574219,0 -1.121094,0.07031 -1.640625,0.203125 -0.511719,0.136719 -0.953125,0.308594 -1.328125,0.515625 -0.28125,0.84375 -0.507812,1.824219 -0.671875,2.9375 -0.15625,1.105469 -0.234375,2.25 -0.234375,3.4375 V -8.125 c 0,1.917969 0.421875,3.398438 1.265625,4.4375 0.851563,1.042969 1.898437,1.5625 3.140625,1.5625 0.59375,0 1.148438,-0.0625 1.671875,-0.1875 0.519531,-0.132812 0.957031,-0.304688 1.3125,-0.515625 0.269531,-0.6875 0.488281,-1.570313 0.65625,-2.65625 0.164063,-1.082031 0.25,-2.265625 0.25,-3.546875 z m 0,0"
               id="path429" /></g></g></g><g
         fill="#000000"
         fill-opacity="1"
         id="g443"><g
           transform="translate(218.903, 213.087)"
           id="g441"><g
             id="g439"><path
               d="M 8.984375,-2.734375 11.5625,-2.125 11.203125,0 h -9.625 L 1.21875,-2.125 3.78125,-2.734375 v -14 l -2.5625,-0.625 0.359375,-2.109375 7.40625,-0.390625 z M 3.34375,-25.03125 c 0,-0.851562 0.222656,-1.597656 0.671875,-2.234375 0.445313,-0.632813 0.96875,-0.953125 1.5625,-0.953125 0.875,0 1.617187,0.21875 2.234375,0.65625 0.625,0.4375 0.9375,0.976562 0.9375,1.609375 0,0.855469 -0.230469,1.59375 -0.6875,2.21875 -0.449219,0.625 -0.964844,0.9375 -1.546875,0.9375 -0.867187,0 -1.609375,-0.21875 -2.234375,-0.65625 -0.625,-0.445313 -0.9375,-0.972656 -0.9375,-1.578125 z m 0,0"
               id="path437" /></g></g></g><g
         fill="#000000"
         fill-opacity="1"
         id="g451"><g
           transform="translate(231.389, 213.087)"
           id="g449"><g
             id="g447"><path
               d="m 1.21875,-2.125 2.5625,-0.609375 v -14 l -2.5625,-0.625 0.359375,-2.109375 6.015625,-0.390625 1.03125,2.828125 c 1.125,-1.039062 2.222656,-1.769531 3.296875,-2.1875 1.082031,-0.425781 2.222656,-0.640625 3.421875,-0.640625 2.03125,0 3.578125,0.523437 4.640625,1.5625 1.070313,1.042969 1.609375,2.558594 1.609375,4.546875 V -2.734375 L 24.15625,-2.125 23.796875,0 h -9.625 L 13.8125,-2.125 16.390625,-2.734375 V -13.46875 c 0,-1.382812 -0.21875,-2.378906 -0.65625,-2.984375 -0.4375,-0.601563 -1.105469,-0.90625 -2,-0.90625 -0.636719,0 -1.367187,0.226563 -2.1875,0.671875 -0.824219,0.4375 -1.679687,1.109375 -2.5625,2.015625 v 11.9375 L 11.5625,-2.125 11.203125,0 h -9.625 z m 0,0"
               id="path445" /></g></g></g><g
         fill="#000000"
         fill-opacity="1"
         id="g459"><g
           transform="translate(256.36, 213.087)"
           id="g457"><g
             id="g455"><path
               d="m 12.546875,-19.46875 0.359375,2.140625 -4.84375,0.5625 v 11.53125 c 0,0.992187 0.15625,1.757813 0.46875,2.296875 0.320312,0.542969 0.945312,0.8125 1.875,0.8125 0.34375,0 0.742188,-0.066406 1.203125,-0.203125 0.457031,-0.132813 0.894531,-0.296875 1.3125,-0.484375 v 2.046875 c -0.648437,0.367187 -1.390625,0.648437 -2.234375,0.84375 -0.835938,0.207031 -1.667969,0.3125 -2.5,0.3125 -1.917969,0 -3.289062,-0.421875 -4.109375,-1.265625 -0.8125,-0.84375 -1.21875,-2.164062 -1.21875,-3.96875 v -11.921875 l -2.71875,-0.5625 L 0.5,-19.46875 H 2.859375 L 4.15625,-24.734375 8.0625,-24.375 v 4.90625 z m 0,0"
               id="path453" /></g></g></g><g
         clip-path="url(#46beaa04b6)"
         id="g463"><path
           fill="#000000"
           d="m 259.56641,175.88672 c -2.08985,-1.33594 -4.46094,-2.85156 -8.98438,-2.85156 -4.52734,0 -6.89453,1.51562 -8.98828,2.85156 -2.01172,1.28515 -3.74609,2.39453 -7.43359,2.39453 -3.6875,0 -5.42188,-1.10938 -7.4336,-2.39453 -2.08984,-1.33594 -4.46094,-2.85156 -8.98437,-2.85156 -4.52735,0 -6.89453,1.51562 -8.98828,2.85156 -2.00782,1.28515 -3.7461,2.39453 -7.4336,2.39453 -3.68359,0 -5.42187,-1.10938 -7.43359,-2.39453 -2.08985,-1.33594 -4.46094,-2.85156 -8.98438,-2.85156 -4.52343,0 -6.89453,1.51562 -8.98437,2.85156 -2.01172,1.28515 -3.75,2.39453 -7.4336,2.39453 -3.6875,0 -5.42187,-1.10938 -7.43359,-2.39453 -2.09375,-1.33594 -4.46094,-2.85156 -8.98437,-2.85156 -4.52735,0 -6.89454,1.51562 -8.98829,2.85156 -2.01171,1.28515 -3.74609,2.39453 -7.43359,2.39453 -3.68359,0 -5.42187,-1.10938 -7.43359,-2.39453 -1.71094,-1.09375 -3.60547,-2.30078 -6.71485,-2.70703 v 3.02343 c 2.23047,0.35547 3.61719,1.23829 5.16407,2.22657 2.08984,1.33203 4.46093,2.84765 8.98437,2.84765 4.52734,0 6.89453,-1.51562 8.98438,-2.84765 2.01171,-1.28516 3.75,-2.39453 7.4375,-2.39453 3.68359,0 5.42187,1.10937 7.43359,2.39453 2.08984,1.33203 4.46094,2.84765 8.98437,2.84765 4.52344,0 6.89454,-1.51562 8.98438,-2.84765 2.01172,-1.28516 3.75,-2.39453 7.43359,-2.39453 3.6875,0 5.42188,1.10937 7.4336,2.39453 2.08984,1.33203 4.46093,2.84765 8.98437,2.84765 4.52735,0 6.89453,-1.51562 8.98438,-2.84765 2.01562,-1.28516 3.75,-2.39453 7.4375,-2.39453 3.68359,0 5.42187,1.10937 7.43359,2.39453 2.08984,1.33203 4.46094,2.84765 8.98438,2.84765 4.52343,0 6.89453,-1.51562 8.98437,-2.84765 2.01172,-1.28516 3.75,-2.39453 7.4375,-2.39453 3.68359,0 5.42188,1.10937 7.43359,2.39453 2.09375,1.33203 4.46094,2.84765 8.98829,2.84765 v -2.99609 c -3.6875,0 -5.42579,-1.10938 -7.4375,-2.39453"
           fill-opacity="1"
           fill-rule="nonzero"
           id="path461" /></g><g
         clip-path="url(#458172ef10)"
         id="g467"><path
           fill="#000000"
           d="m 259.56641,163.33984 c -2.08985,-1.33593 -4.46094,-2.85156 -8.98438,-2.85156 -4.52734,0 -6.89453,1.51563 -8.98828,2.85156 -2.01172,1.28516 -3.74609,2.39453 -7.43359,2.39453 -3.6875,0 -5.42188,-1.10937 -7.4336,-2.39453 -2.08984,-1.33593 -4.46094,-2.85156 -8.98437,-2.85156 -4.52735,0 -6.89453,1.51563 -8.98828,2.85156 -2.00782,1.28516 -3.7461,2.39453 -7.4336,2.39453 -3.68359,0 -5.42187,-1.10937 -7.43359,-2.39453 -2.08985,-1.33593 -4.46094,-2.85156 -8.98438,-2.85156 -4.52343,0 -6.89453,1.51563 -8.98437,2.85156 -2.01172,1.28516 -3.75,2.39453 -7.4336,2.39453 -3.6875,0 -5.42187,-1.10937 -7.43359,-2.39453 -2.09375,-1.33593 -4.46094,-2.85156 -8.98437,-2.85156 -4.52735,0 -6.89454,1.51563 -8.98829,2.85156 -2.01171,1.28516 -3.74609,2.39453 -7.43359,2.39453 -3.68359,0 -5.42187,-1.10937 -7.43359,-2.39453 -1.71094,-1.09375 -3.60547,-2.30078 -6.71485,-2.70703 v 3.02344 c 2.23047,0.35547 3.61719,1.23828 5.16407,2.22656 2.08984,1.33203 4.46093,2.84766 8.98437,2.84766 4.52734,0 6.89453,-1.51563 8.98438,-2.84766 2.01171,-1.28515 3.75,-2.39453 7.4375,-2.39453 3.68359,0 5.42187,1.10938 7.43359,2.39453 2.08984,1.33203 4.46094,2.84766 8.98437,2.84766 4.52344,0 6.89454,-1.51563 8.98438,-2.84766 2.01172,-1.28515 3.75,-2.39453 7.43359,-2.39453 3.6875,0 5.42188,1.10938 7.4336,2.39453 2.08984,1.33203 4.46093,2.84766 8.98437,2.84766 4.52735,0 6.89453,-1.51563 8.98438,-2.84766 2.01562,-1.28515 3.75,-2.39453 7.4375,-2.39453 3.68359,0 5.42187,1.10938 7.43359,2.39453 2.08984,1.33203 4.46094,2.84766 8.98438,2.84766 4.52343,0 6.89453,-1.51563 8.98437,-2.84766 2.01172,-1.28515 3.75,-2.39453 7.4375,-2.39453 3.68359,0 5.42188,1.10938 7.43359,2.39453 2.09375,1.33203 4.46094,2.84766 8.98829,2.84766 v -2.9961 c -3.6875,0 -5.42579,-1.10937 -7.4375,-2.39453"
           fill-opacity="1"
           fill-rule="nonzero"
           id="path465" /></g></g></g></svg>
